<?xml version="1.0" encoding="UTF-8" standalone="no"?>
<!-- Generator: Adobe Illustrator 19.0.0, SVG Export Plug-In . SVG Version: 6.00 Build 0)  -->

<svg
   xmlns:dc="http://purl.org/dc/elements/1.1/"
   xmlns:cc="http://creativecommons.org/ns#"
   xmlns:rdf="http://www.w3.org/1999/02/22-rdf-syntax-ns#"
   xmlns:svg="http://www.w3.org/2000/svg"
   xmlns="http://www.w3.org/2000/svg"
   xmlns:xlink="http://www.w3.org/1999/xlink"
   xmlns:sodipodi="http://sodipodi.sourceforge.net/DTD/sodipodi-0.dtd"
   xmlns:inkscape="http://www.inkscape.org/namespaces/inkscape"
   version="1.1"
   id="Layer_1"
   x="0px"
   y="0px"
   viewBox="20 -220 1931.7678 554.46136"
   xml:space="preserve"
   sodipodi:docname="BerryLogoBig.svg"
   width="1931.7678"
   height="554.46136"
   inkscape:version="0.92.5 (2060ec1f9f, 2020-04-08)"><metadata
   id="metadata93"><rdf:RDF><cc:Work
       rdf:about=""><dc:format>image/svg+xml</dc:format><dc:type
         rdf:resource="http://purl.org/dc/dcmitype/StillImage" /><dc:title></dc:title></cc:Work></rdf:RDF></metadata><defs
   id="defs91"><filter
     inkscape:menu-tooltip="Glowing metal texture"
     inkscape:menu="Bevels"
     inkscape:label="Glowing Metal"
     style="color-interpolation-filters:sRGB"
     id="filter1283"><feGaussianBlur
       stdDeviation="3"
       result="result10"
       id="feGaussianBlur1265" /><feBlend
       in2="SourceGraphic"
       result="result5"
       mode="multiply"
       in="result10"
       id="feBlend1267" /><feComposite
       in2="SourceGraphic"
       in="result5"
       result="fbSourceGraphic"
       operator="over"
       id="feComposite1269" /><feGaussianBlur
       result="result9"
       stdDeviation="5"
       id="feGaussianBlur1271" /><feSpecularLighting
       in="result9"
       result="result1"
       lighting-color="#ffffff"
       surfaceScale="1"
       specularConstant="2.20000005"
       specularExponent="45"
       id="feSpecularLighting1275"><fePointLight
         x="-5000"
         y="-10000"
         z="20000"
         id="fePointLight1273" /></feSpecularLighting><feComposite
       in2="fbSourceGraphic"
       in="result1"
       result="result2"
       operator="in"
       id="feComposite1277" /><feComposite
       in="result2"
       result="result4"
       operator="arithmetic"
       k2="2"
       k3="0.8"
       in2="fbSourceGraphic"
       id="feComposite1279"
       k1="0"
       k4="0" /><feBlend
       in="result4"
       in2="result4"
       mode="multiply"
       id="feBlend1281" /></filter><filter
     style="color-interpolation-filters:sRGB;"
     inkscape:label="Blur Double"
     id="filter1287"
     inkscape:menu="Blurs"
     inkscape:menu-tooltip="Overlays two copies with different blur amounts and modifiable blend and composite"><feGaussianBlur
       stdDeviation="2.5 2.5"
       result="fbSourceGraphic"
       id="feGaussianBlur1285" /><feColorMatrix
       result="fbSourceGraphicAlpha"
       in="fbSourceGraphic"
       values="0 0 0 -1 0 0 0 0 -1 0 0 0 0 -1 0 0 0 0 1 0"
       id="feColorMatrix1367" /><feGaussianBlur
       id="feGaussianBlur1369"
       stdDeviation="5"
       result="fbSourceGraphic"
       in="fbSourceGraphic" /><feGaussianBlur
       id="feGaussianBlur1371"
       stdDeviation="0.01"
       in="fbSourceGraphic"
       result="result1" /><feComposite
       in2="result1"
       id="feComposite1373"
       operator="arithmetic"
       in="fbSourceGraphic"
       k2="0.5"
       k3="0.5"
       result="result2" /><feBlend
       in2="fbSourceGraphic"
       id="feBlend1375"
       mode="normal"
       result="result3" /></filter></defs><sodipodi:namedview
   pagecolor="#ffffff"
   bordercolor="#666666"
   borderopacity="1"
   objecttolerance="10"
   gridtolerance="10"
   guidetolerance="10"
   inkscape:pageopacity="0"
   inkscape:pageshadow="2"
   inkscape:window-width="1920"
   inkscape:window-height="1177"
   id="namedview89"
   showgrid="false"
   fit-margin-top="0"
   fit-margin-left="0"
   fit-margin-right="0"
   fit-margin-bottom="0"
   inkscape:zoom="0.3337544"
   inkscape:cx="970.6273"
   inkscape:cy="70.005427"
   inkscape:window-x="1600"
   inkscape:window-y="0"
   inkscape:window-maximized="1"
   inkscape:current-layer="Layer_1" />
<style
   type="text/css"
   id="style2">
	.st0{display:none;}
	.st1{fill:none;stroke:#4D4D4D;stroke-width:4;stroke-miterlimit:10;}
	.st2{fill:#FF8594;}
	.st3{fill:#FFFFFF;stroke:#FF1B53;stroke-width:5;stroke-miterlimit:10;}
	.st4{fill:#002559;}
	.st5{fill:none;stroke:#FF8594;stroke-width:5;stroke-miterlimit:10;}
	.st6{fill:#FF1B53;}
	.st7{display:none;fill:#FFF1F1;}
	.st8{fill:#FFFFFF;}
</style>
<g
   aria-label="berry"
   transform="matrix(2.2863685,0,0,2.3401479,-701.74872,-260.69646)"
   style="font-style:normal;font-weight:normal;font-size:40px;line-height:1.25;font-family:sans-serif;letter-spacing:0px;word-spacing:0px;fill:#002559;fill-opacity:1;stroke:none;filter:url(#filter1287)"
   id="flowRoot912-7"><path
     inkscape:connector-curvature="0"
     d="m 637.47859,82.00172 q 13.824,0 24.96,6.912 11.328,6.912 17.664,19.2 6.528,12.096 6.528,27.072 0,14.976 -6.912,27.264 -6.912,12.096 -19.2,19.2 -12.096,6.912 -26.88,6.912 -14.784,0 -26.88,-6.912 -11.904,-7.104 -19.008,-19.2 -6.912,-12.288 -6.912,-27.264 v -87.552 q 0,-4.416 2.688,-7.104 2.88,-2.688 7.104,-2.688 4.416,0 7.104,2.688 2.688,2.688 2.688,7.104 v 51.84 q 6.72,-8.256 16.32,-12.864 9.6,-4.608 20.736,-4.608 z m -3.84,89.28 q 9.6,0 17.28,-4.608 7.872,-4.8 12.288,-13.056 4.608,-8.256 4.608,-18.432 0,-10.176 -4.608,-18.24 -4.416,-8.256 -12.288,-12.864 -7.68,-4.8 -17.28,-4.8 -9.6,0 -17.472,4.8 -7.68,4.608 -12.096,12.864 -4.416,8.064 -4.416,18.24 0,10.176 4.416,18.432 4.416,8.256 12.096,13.056 7.872,4.608 17.472,4.608 z"
     style="font-style:normal;font-variant:normal;font-weight:bold;font-stretch:normal;font-size:192px;font-family:Comfortaa;-inkscape-font-specification:'Comfortaa, Bold';font-variant-ligatures:normal;font-variant-caps:normal;font-variant-numeric:normal;font-feature-settings:normal;text-align:start;writing-mode:lr-tb;text-anchor:start;fill:#002559;fill-opacity:1"
     id="path1144-9" /><path
     inkscape:connector-curvature="0"
     d="m 810.08642,133.64972 q 0,3.648 -2.496,6.144 -2.496,2.304 -6.336,2.304 h -72.96 q 2.112,13.44 12.096,21.696 10.176,8.256 24.768,8.256 5.76,0 11.904,-2.112 6.336,-2.112 10.368,-5.184 2.688,-2.112 6.336,-2.112 3.648,0 5.76,1.92 3.456,2.88 3.456,6.528 0,3.456 -3.072,5.76 -6.528,5.184 -16.32,8.448 -9.6,3.264 -18.432,3.264 -15.744,0 -28.224,-6.72 -12.48,-6.912 -19.584,-19.008 -6.912,-12.096 -6.912,-27.456 0,-15.36 6.528,-27.456 6.72,-12.288 18.432,-19.008 11.904,-6.912 26.88,-6.912 14.784,0 25.536,6.528 10.752,6.528 16.512,18.24 5.76,11.712 5.76,26.88 z m -47.808,-35.136 q -14.016,0 -22.848,7.68 -8.64,7.68 -10.944,20.544 h 63.936 q -1.728,-12.864 -9.6,-20.544 -7.872,-7.68 -20.544,-7.68 z"
     style="font-style:normal;font-variant:normal;font-weight:bold;font-stretch:normal;font-size:192px;font-family:Comfortaa;-inkscape-font-specification:'Comfortaa, Bold';font-variant-ligatures:normal;font-variant-caps:normal;font-variant-numeric:normal;font-feature-settings:normal;text-align:start;writing-mode:lr-tb;text-anchor:start;fill:#002559;fill-opacity:1"
     id="path1146-0" /><path
     inkscape:connector-curvature="0"
     d="m 886.50211,81.61772 q 10.176,0 15.936,3.072 5.76,3.072 5.76,7.68 0,1.344 -0.192,1.92 -1.728,6.144 -7.68,6.144 -0.96,0 -2.88,-0.384 -7.68,-1.344 -12.48,-1.344 -13.824,0 -22.272,6.336 -8.448,6.336 -8.448,17.088 v 56.064 q 0,4.608 -2.496,7.104 -2.304,2.496 -7.104,2.496 -4.608,0 -7.104,-2.304 -2.496,-2.496 -2.496,-7.296 v -85.824 q 0,-4.608 2.496,-7.104 2.496,-2.496 7.104,-2.496 9.6,0 9.6,9.6 v 3.648 q 5.76,-6.72 14.208,-10.56 8.448,-3.84 18.048,-3.84 z"
     style="font-style:normal;font-variant:normal;font-weight:bold;font-stretch:normal;font-size:192px;font-family:Comfortaa;-inkscape-font-specification:'Comfortaa, Bold';font-variant-ligatures:normal;font-variant-caps:normal;font-variant-numeric:normal;font-feature-settings:normal;text-align:start;writing-mode:lr-tb;text-anchor:start;fill:#002559;fill-opacity:1"
     id="path1148-3" /><path
     inkscape:connector-curvature="0"
     d="m 979.81376,81.61772 q 10.176,0 15.936,3.072 5.76004,3.072 5.76004,7.68 0,1.344 -0.192,1.92 -1.72804,6.144 -7.68004,6.144 -0.96,0 -2.88,-0.384 -7.68,-1.344 -12.48,-1.344 -13.824,0 -22.272,6.336 -8.448,6.336 -8.448,17.088 v 56.064 q 0,4.608 -2.496,7.104 -2.304,2.496 -7.104,2.496 -4.608,0 -7.104,-2.304 -2.496,-2.496 -2.496,-7.296 v -85.824 q 0,-4.608 2.496,-7.104 2.496,-2.496 7.104,-2.496 9.6,0 9.6,9.6 v 3.648 q 5.76,-6.72 14.208,-10.56 8.448,-3.84 18.048,-3.84 z"
     style="font-style:normal;font-variant:normal;font-weight:bold;font-stretch:normal;font-size:192px;font-family:Comfortaa;-inkscape-font-specification:'Comfortaa, Bold';font-variant-ligatures:normal;font-variant-caps:normal;font-variant-numeric:normal;font-feature-settings:normal;text-align:start;writing-mode:lr-tb;text-anchor:start;fill:#002559;fill-opacity:1"
     id="path1150-3" /><path
     inkscape:connector-curvature="0"
     d="m 1101.9254,83.72972 q 5.952,2.304 5.952,7.488 0,1.92 -1.152,4.608 l -58.752,132.096 q -2.304,5.952 -7.488,5.952 -1.92,0 -4.608,-1.152 -5.76,-2.496 -5.76,-7.488 0,-2.304 1.152,-4.608 l 19.2,-43.2 -43.2,-81.984 q -0.96,-1.728 -0.96,-4.032 0,-2.496 1.536,-4.608 1.536,-2.112 4.032,-3.264 1.728,-0.768 3.84,-0.768 5.376,0 8.064,5.376 l 35.136,69.888 30.912,-69.696 q 2.496,-5.568 7.488,-5.568 2.496,0 4.608,0.96 z"
     style="font-style:normal;font-variant:normal;font-weight:bold;font-stretch:normal;font-size:192px;font-family:Comfortaa;-inkscape-font-specification:'Comfortaa, Bold';font-variant-ligatures:normal;font-variant-caps:normal;font-variant-numeric:normal;font-feature-settings:normal;text-align:start;writing-mode:lr-tb;text-anchor:start;fill:#002559;fill-opacity:1"
     id="path1152-3" /></g><g
   id="Layer_1_1_"
   class="st0"
   style="display:none"
   transform="translate(-222.77365,-222.76405)">
	
		<image
   sodipodi:absref="/home/ricardo/github/berry/docs/figures/1508CEED.jpeg"
   xlink:href="1508CEED.jpeg"
   style="display:inline;overflow:visible;enable-background:new"
   width="1273"
   height="716"
   id="XMLID_2_"
   transform="matrix(1.1994,0,0,1.1995,-123.7094,-160.9144)">
	</image>
</g>








<path
   class="st7"
   d="m 370.12635,49.035942 c 1.6,-0.6 -0.4,-6.5 -1.5,-9.1 -1.8,-4.1 -6.3,-5.4 -6.9,-5.3 -1.7,0.3 -0.1,1.9 5,9.2 2.1,2.9 1.8,5.8 3.4,5.2 z"
   id="path82"
   inkscape:connector-curvature="0"
   style="display:none;fill:#fff1f1" />

<g
   id="g1455"><g
     transform="translate(-222.77365,-222.76405)"
     id="Layer_2">
	
		<ellipse
   style="fill:none;stroke:#4d4d4d;stroke-width:4;stroke-miterlimit:10"
   ry="108.5"
   rx="373.70001"
   cy="280"
   cx="520"
   class="st1"
   transform="matrix(0.7071,0.7071,-0.7071,0.7071,350.2964,-285.6902)"
   id="XMLID_4_" />
	
		<ellipse
   style="fill:none;stroke:#4d4d4d;stroke-width:4;stroke-miterlimit:10"
   ry="108.5"
   rx="373.70001"
   cy="280"
   cx="520"
   class="st1"
   transform="matrix(0.7071,-0.7071,0.7071,0.7071,-45.6806,449.7037)"
   id="XMLID_5_" />
</g><polygon
     transform="translate(-222.77365,-222.76405)"
     style="fill:#ff8594"
     points="641.9,247.2 637.5,311.3 596.4,354.9 555.1,397.8 486.7,406 443.5,364.8 404.1,323.7 385.4,283.2 409.1,258.5 434.5,210 485.4,161.3 550.2,161.8 599.3,204.1 "
     class="st2"
     id="XMLID_29_" /><g
     transform="translate(-222.77365,-222.76405)"
     id="XMLID_32_">
	<g
   id="XMLID_10_">
		<path
   style="fill:#ff8594"
   inkscape:connector-curvature="0"
   d="m 602.9,248.6 c 24.2,-3.3 30.9,-3.5 48.1,1.2 17.1,4.7 27.2,22.4 22.5,39.5 -4.7,17.1 -22.4,27.2 -39.5,22.5"
   class="st2"
   id="XMLID_114_" />
		<path
   style="fill:#ff8594"
   inkscape:connector-curvature="0"
   d="m 602.9,248.6 c 0,0 2.2,-0.9 6.2,-2.2 2,-0.7 4.4,-1.4 7.2,-2.2 2.8,-0.8 6,-1.5 9.7,-2 3.6,-0.5 7.8,-0.8 12.1,-0.6 4.3,0.3 8.8,0.9 13.2,1.9 l 0.8,0.2 0.4,0.1 0.7,0.2 c 0.5,0.1 1.1,0.3 1.6,0.4 l 0.8,0.2 0.4,0.1 0.5,0.2 c 0.7,0.3 1.4,0.5 2,0.8 1.4,0.5 2.6,1.2 3.8,1.8 l 0.9,0.5 0.9,0.6 1.7,1.2 c 4.6,3.2 8.4,7.6 11,12.7 2.7,5 4.2,10.7 4.3,16.2 0.1,0.7 0,1.4 0,2.1 0,0.7 -0.1,1.4 -0.1,2.1 -0.1,1.4 -0.4,2.7 -0.6,4.1 -0.3,1.3 -0.7,2.6 -1,3.9 v 0.1 l -0.1,0.4 v 0 l -0.1,0.2 -0.1,0.4 -0.3,0.8 c -0.2,0.5 -0.4,1 -0.6,1.5 -0.6,1.2 -1.2,2.5 -1.8,3.7 -0.7,1.1 -1.4,2.2 -2.1,3.2 -0.8,1 -1.6,1.9 -2.3,2.9 -0.8,0.9 -1.7,1.7 -2.5,2.5 -3.5,3.1 -7.4,5.3 -11.1,6.7 -3.7,1.3 -7.3,2 -10.4,2 -0.4,0 -0.8,0 -1.1,0 -0.4,0 -0.7,0 -1.1,-0.1 -0.7,0 -1.4,-0.1 -2.1,-0.2 -1.3,-0.2 -2.5,-0.4 -3.6,-0.7 -1,-0.3 -2,-0.6 -2.7,-0.9 -0.8,-0.3 -1.4,-0.6 -1.9,-0.8 -1,-0.5 -1.6,-0.8 -1.6,-0.8 0,0 0.6,0 1.7,0 0.6,0 1.2,0 2,-0.1 0.8,-0.1 1.7,-0.2 2.7,-0.2 1,-0.2 2,-0.4 3.2,-0.6 0.6,-0.2 1.2,-0.3 1.8,-0.5 0.3,-0.1 0.6,-0.2 0.9,-0.2 0.3,-0.1 0.6,-0.2 0.9,-0.3 0.6,-0.2 1.3,-0.5 1.9,-0.7 0.6,-0.3 1.3,-0.6 1.9,-0.9 0.7,-0.3 1.3,-0.7 1.9,-1.1 0.3,-0.2 0.7,-0.4 1,-0.6 0.3,-0.2 0.6,-0.4 0.9,-0.7 2.6,-1.7 5,-4 7.1,-6.7 0.5,-0.7 1,-1.4 1.5,-2.1 0.4,-0.7 0.9,-1.5 1.3,-2.2 0.3,-0.8 0.7,-1.6 1.1,-2.4 0.2,-0.8 0.5,-1.4 0.8,-2.2 0.1,-0.5 0.3,-1.1 0.4,-1.6 l 0.2,-0.8 0.1,-0.4 0.1,-0.2 v -0.1 c -0.2,0.6 0,0.1 -0.1,0.3 v -0.1 c 0.1,-0.9 0.3,-1.8 0.4,-2.7 0,-0.9 0.1,-1.8 0.1,-2.7 v -1.4 c 0,-0.5 0,-0.9 -0.1,-1.4 -0.3,-3.6 -1.4,-7.2 -3.1,-10.4 -1.7,-3.2 -4,-6.1 -6.9,-8.4 l -1.1,-0.8 -0.5,-0.4 -0.6,-0.4 c -0.8,-0.5 -1.5,-1 -2.2,-1.3 -0.3,-0.2 -0.7,-0.4 -1,-0.6 l -0.3,-0.1 -0.4,-0.2 -0.8,-0.3 c -0.5,-0.2 -1,-0.4 -1.6,-0.6 l -0.2,-0.1 h -0.1 v 0 c -0.3,-0.1 0.3,0.1 0.3,0.1 l -0.4,-0.1 -0.8,-0.2 c -4,-1.3 -7.8,-2.6 -11.5,-3.4 -3.6,-0.9 -7.1,-1.4 -10.5,-1.7 -3.3,-0.3 -6.5,-0.5 -9.4,-0.7 -2.9,-0.2 -5.4,-0.3 -7.4,-0.4 -3.8,-0.3 -6.2,-0.6 -6.2,-0.6 z"
   class="st2"
   id="XMLID_113_" />
	</g>
	<g
   id="XMLID_11_">
		<path
   style="fill:#ff8594"
   inkscape:connector-curvature="0"
   d="m 406.5,283.7 c -6.5,-23.5 -7.6,-30.2 -5.2,-47.8 2.4,-17.6 18.6,-29.9 36.2,-27.5 1.3,0.2 2.7,0.4 3.9,0.8"
   class="st2"
   id="XMLID_111_" />
		<path
   style="fill:#ff8594"
   inkscape:connector-curvature="0"
   d="m 406.5,283.7 c 0,0 -1,-1.4 -2.5,-3.9 -1.5,-2.5 -3.5,-6.2 -5.5,-10.8 -1,-2.3 -1.9,-4.9 -2.8,-7.7 -0.8,-2.9 -1.5,-6 -1.8,-9.3 -0.3,-3.3 -0.4,-6.7 -0.2,-10.1 0.1,-1.7 0.2,-3.4 0.4,-5 l 0.1,-1.2 0.1,-0.6 0.1,-0.6 0.1,-0.3 0.4,-2.4 0.1,-0.3 0.1,-0.4 0.2,-0.8 0.4,-1.5 c 0.2,-0.5 0.3,-1 0.5,-1.5 l 0.6,-1.4 c 0.4,-0.9 0.7,-1.8 1.2,-2.7 0.5,-0.8 0.9,-1.7 1.4,-2.5 2.1,-3.2 4.6,-6.1 7.4,-8.4 0.7,-0.6 1.4,-1.1 2.2,-1.6 0.4,-0.3 0.7,-0.5 1.1,-0.8 0.4,-0.2 0.8,-0.4 1.1,-0.6 0.8,-0.4 1.5,-0.8 2.2,-1.2 0.8,-0.3 1.5,-0.7 2.3,-1 0.7,-0.3 1.5,-0.6 2.3,-0.8 0.8,-0.2 1.5,-0.5 2.2,-0.6 0.7,-0.1 1.5,-0.3 2.2,-0.4 0.7,-0.1 1.4,-0.3 2.1,-0.3 1.4,-0.1 2.7,-0.2 3.9,-0.1 1.2,0.1 2.4,0.1 3.5,0.4 0.5,0.1 1,0.2 1.5,0.3 0.5,0.1 1,0.2 1.4,0.4 0.9,0.3 1.7,0.6 2.4,0.8 1.4,0.5 2.5,1.1 3.1,1.5 0.7,0.4 1,0.7 1,0.7 0,0 -0.4,0 -1.2,0.1 -0.8,0.1 -1.9,0.2 -3.3,0.5 -0.7,0.2 -1.5,0.3 -2.3,0.4 -0.8,0.1 -1.7,0.4 -2.5,0.7 -0.9,0.2 -1.8,0.6 -2.8,0.9 -1,0.3 -1.9,0.8 -2.9,1.2 -0.5,0.2 -1,0.5 -1.5,0.7 -0.5,0.3 -1,0.5 -1.5,0.8 -0.5,0.3 -0.9,0.6 -1.4,0.9 -0.5,0.3 -1,0.6 -1.4,1 -0.5,0.4 -0.9,0.7 -1.4,1.1 -0.5,0.4 -0.9,0.8 -1.3,1.2 l -0.7,0.6 -0.6,0.7 c -0.4,0.5 -0.9,0.9 -1.2,1.3 -1.6,1.9 -3,4 -4.1,6.2 -0.3,0.6 -0.5,1.1 -0.8,1.7 -0.3,0.6 -0.4,1.2 -0.7,1.8 l -0.3,0.9 -0.2,0.8 -0.2,0.8 -0.1,0.4 -0.1,0.2 -0.1,0.3 -0.5,2.4 -0.1,0.3 v 0.1 0.1 c -0.1,0.3 0.1,-0.4 0,-0.3 v 0 l -0.1,0.6 -0.2,1.1 c -0.2,1.5 -0.4,3 -0.7,4.5 -0.4,3 -0.7,5.8 -0.9,8.5 -0.2,2.7 -0.3,5.4 -0.2,8 0,2.6 0.1,5.2 0.3,7.6 0.2,4.8 0.3,8.9 0.3,11.8 0.1,3 -0.1,4.8 -0.1,4.8 z"
   class="st2"
   id="XMLID_110_" />
	</g>
	<g
   id="XMLID_8_">
		<path
   style="fill:#ff8594"
   inkscape:connector-curvature="0"
   d="m 447.8,241.4 c -6.5,-23.5 -7.6,-30.2 -5.2,-47.8 2.4,-17.6 18.6,-29.9 36.2,-27.5 1.3,0.2 2.7,0.4 3.9,0.8"
   class="st2"
   id="XMLID_107_" />
		<path
   style="fill:#ff8594"
   inkscape:connector-curvature="0"
   d="m 447.8,241.4 c 0,0 -1,-1.4 -2.5,-3.9 -1.5,-2.5 -3.5,-6.2 -5.5,-10.8 -1,-2.3 -1.9,-4.9 -2.8,-7.7 -0.8,-2.9 -1.5,-6 -1.8,-9.3 -0.3,-3.3 -0.4,-6.7 -0.2,-10.1 0.1,-1.7 0.2,-3.4 0.4,-5 l 0.1,-1.2 0.1,-0.6 0.1,-0.6 0.1,-0.3 0.4,-2.4 0.1,-0.3 0.1,-0.4 0.2,-0.8 0.4,-1.5 c 0.2,-0.5 0.3,-1 0.5,-1.5 l 0.6,-1.4 c 0.4,-0.9 0.7,-1.8 1.2,-2.7 0.5,-0.8 0.9,-1.7 1.4,-2.5 2.1,-3.2 4.6,-6.1 7.4,-8.4 0.7,-0.6 1.4,-1.1 2.2,-1.6 0.4,-0.3 0.7,-0.5 1.1,-0.8 0.4,-0.2 0.8,-0.4 1.1,-0.6 0.8,-0.4 1.5,-0.8 2.2,-1.2 0.8,-0.3 1.5,-0.7 2.3,-1 0.7,-0.3 1.5,-0.6 2.3,-0.8 0.8,-0.2 1.5,-0.5 2.2,-0.6 0.7,-0.1 1.5,-0.3 2.2,-0.4 0.7,-0.1 1.4,-0.3 2.1,-0.3 1.4,-0.1 2.7,-0.2 3.9,-0.1 1.2,0.1 2.4,0.1 3.5,0.4 0.5,0.1 1,0.2 1.5,0.3 0.5,0.1 1,0.2 1.4,0.4 0.9,0.3 1.7,0.6 2.4,0.8 1.4,0.5 2.5,1.1 3.1,1.5 0.7,0.4 1,0.7 1,0.7 0,0 -0.4,0 -1.2,0.1 -0.8,0.1 -1.9,0.2 -3.3,0.5 -0.7,0.2 -1.5,0.3 -2.3,0.4 -0.8,0.1 -1.7,0.4 -2.5,0.7 -0.9,0.2 -1.8,0.6 -2.8,0.9 -1,0.3 -1.9,0.8 -2.9,1.2 -0.5,0.2 -1,0.5 -1.5,0.7 -0.5,0.3 -1,0.5 -1.5,0.8 -0.5,0.3 -0.9,0.6 -1.4,0.9 -0.5,0.3 -1,0.6 -1.4,1 -0.5,0.4 -0.9,0.7 -1.4,1.1 -0.5,0.4 -0.9,0.8 -1.3,1.2 l -0.7,0.6 -0.6,0.7 c -0.4,0.5 -0.9,0.9 -1.2,1.3 -1.6,1.9 -3,4 -4.1,6.2 -0.3,0.6 -0.5,1.1 -0.8,1.7 -0.3,0.6 -0.4,1.2 -0.7,1.8 l -0.3,0.9 -0.2,0.8 -0.2,0.8 -0.1,0.4 -0.1,0.2 -0.1,0.3 -0.5,2.4 -0.1,0.3 v 0.1 0.1 c -0.1,0.3 0.1,-0.4 0,-0.3 v 0 l -0.1,0.6 -0.2,1.1 c -0.2,1.5 -0.4,3 -0.7,4.5 -0.4,3 -0.7,5.8 -0.9,8.5 -0.2,2.7 -0.3,5.4 -0.2,8 0,2.6 0.1,5.2 0.3,7.6 0.2,4.8 0.3,8.9 0.3,11.8 0.1,3.1 -0.1,4.8 -0.1,4.8 z"
   class="st2"
   id="XMLID_106_" />
	</g>
	<g
   id="XMLID_6_">
		<path
   style="fill:#ff8594"
   inkscape:connector-curvature="0"
   d="m 489,199.1 c -6.5,-23.5 -7.6,-30.2 -5.2,-47.8 2.4,-17.6 18.6,-29.9 36.2,-27.5 17.6,2.4 29.9,18.6 27.5,36.2"
   class="st2"
   id="XMLID_104_" />
		<path
   style="fill:#ff8594"
   inkscape:connector-curvature="0"
   d="m 489,199.1 c 0,0 -1.2,-2.1 -3,-5.8 -0.9,-1.9 -2,-4.2 -3.1,-6.9 -1.1,-2.7 -2.3,-5.8 -3.3,-9.3 -1,-3.5 -1.9,-7.6 -2.2,-11.9 -0.3,-4.3 -0.2,-8.8 0.1,-13.3 l 0.1,-0.8 v -0.4 l 0.1,-0.7 c 0.1,-0.5 0.1,-1.1 0.2,-1.7 l 0.1,-0.8 0.1,-0.4 0.1,-0.5 c 0.2,-0.7 0.3,-1.4 0.5,-2.1 0.3,-1.5 0.9,-2.7 1.3,-4 l 0.4,-1 0.5,-0.9 0.9,-1.9 c 2.6,-4.9 6.5,-9.3 11.1,-12.6 4.6,-3.3 10,-5.5 15.5,-6.4 0.7,-0.2 1.4,-0.2 2.1,-0.3 l 2.1,-0.2 c 1.4,-0.1 2.7,0 4.1,0 1.4,0.1 2.7,0.3 4,0.5 h 0.1 l 0.4,0.1 h 0.1 0.2 l 0.4,0.1 0.8,0.2 c 0.5,0.1 1.1,0.3 1.6,0.4 1.3,0.4 2.7,0.9 3.9,1.3 1.2,0.5 2.3,1.1 3.4,1.6 1.1,0.6 2.1,1.3 3.1,1.9 1,0.7 1.9,1.4 2.8,2.2 3.6,3 6.2,6.6 8.1,10.1 1.8,3.5 2.9,7 3.3,10.1 0.1,0.4 0.1,0.8 0.2,1.1 0,0.4 0.1,0.7 0.1,1.1 0.1,0.7 0.1,1.4 0.1,2.1 0,1.3 -0.1,2.5 -0.2,3.6 -0.2,1.1 -0.3,2 -0.5,2.8 -0.2,0.8 -0.4,1.5 -0.6,2 -0.4,1.1 -0.5,1.6 -0.5,1.6 0,0 -0.1,-0.6 -0.3,-1.7 -0.1,-0.5 -0.1,-1.2 -0.3,-2 -0.2,-0.8 -0.4,-1.6 -0.6,-2.6 -0.3,-0.9 -0.6,-2 -1,-3.1 -0.2,-0.5 -0.5,-1.1 -0.7,-1.7 -0.1,-0.3 -0.2,-0.6 -0.4,-0.9 -0.1,-0.3 -0.3,-0.6 -0.5,-0.9 -0.3,-0.6 -0.6,-1.2 -0.9,-1.8 -0.4,-0.6 -0.8,-1.2 -1.2,-1.8 -0.4,-0.6 -0.9,-1.2 -1.3,-1.8 -0.2,-0.3 -0.5,-0.6 -0.7,-0.9 -0.2,-0.3 -0.5,-0.6 -0.8,-0.8 -2.1,-2.3 -4.6,-4.4 -7.5,-6.1 -0.8,-0.4 -1.5,-0.8 -2.3,-1.2 -0.8,-0.3 -1.6,-0.6 -2.4,-1 -0.8,-0.2 -1.7,-0.5 -2.5,-0.8 -0.8,-0.1 -1.5,-0.3 -2.3,-0.5 -0.5,-0.1 -1.1,-0.1 -1.6,-0.2 l -0.8,-0.1 -0.4,-0.1 h -0.2 -0.1 c 0.6,0.1 0.1,0 0.3,0 h -0.1 c -0.9,0 -1.8,0 -2.7,0 -0.9,0.1 -1.8,0.1 -2.7,0.2 l -1.3,0.2 c -0.4,0.1 -0.9,0.1 -1.3,0.3 -3.5,0.8 -6.9,2.3 -9.9,4.5 -3,2.1 -5.6,4.8 -7.4,7.9 l -0.7,1.2 -0.3,0.6 -0.3,0.6 c -0.4,0.8 -0.8,1.7 -1,2.4 -0.1,0.4 -0.3,0.7 -0.4,1.1 l -0.1,0.3 -0.1,0.4 -0.2,0.8 c -0.1,0.5 -0.3,1.1 -0.4,1.6 v 0.2 0.1 0.1 c 0,0.3 0.1,-0.3 0,-0.3 l -0.1,0.4 -0.1,0.8 c -0.8,4.2 -1.5,8.1 -1.9,11.8 -0.4,3.7 -0.5,7.2 -0.3,10.6 0.1,3.4 0.3,6.5 0.6,9.4 0.2,2.9 0.4,5.4 0.6,7.4 0.1,4.1 0.1,6.5 0.1,6.5 z"
   class="st2"
   id="XMLID_103_" />
	</g>
	<g
   id="XMLID_7_">
		<path
   style="fill:#ff8594"
   inkscape:connector-curvature="0"
   d="m 628.2,280.7 c 6.5,23.5 7.6,30.2 5.2,47.8 -2.4,17.6 -18.6,29.9 -36.2,27.5 -1.3,-0.2 -2.7,-0.4 -3.9,-0.8"
   class="st2"
   id="XMLID_101_" />
		<path
   style="fill:#ff8594"
   inkscape:connector-curvature="0"
   d="m 628.2,280.7 c 0,0 1,1.4 2.5,3.9 1.5,2.5 3.5,6.2 5.5,10.8 1,2.3 1.9,4.9 2.8,7.7 0.8,2.9 1.5,6 1.8,9.3 0.3,3.3 0.4,6.7 0.2,10.1 -0.1,1.7 -0.2,3.4 -0.4,5 l -0.1,1.2 -0.1,0.6 -0.1,0.6 -0.1,0.3 -0.4,2.4 -0.1,0.3 -0.1,0.4 -0.2,0.8 -0.4,1.5 c -0.2,0.5 -0.3,1 -0.5,1.5 l -0.6,1.4 c -0.4,0.9 -0.7,1.8 -1.2,2.7 -0.5,0.8 -0.9,1.7 -1.4,2.5 -2.1,3.2 -4.6,6.1 -7.4,8.4 -0.7,0.6 -1.4,1.1 -2.2,1.6 -0.4,0.3 -0.7,0.5 -1.1,0.8 -0.4,0.2 -0.8,0.4 -1.1,0.6 -0.8,0.4 -1.5,0.8 -2.2,1.2 -0.8,0.3 -1.5,0.7 -2.3,1 -0.7,0.3 -1.5,0.6 -2.3,0.8 -0.8,0.2 -1.5,0.5 -2.2,0.6 -0.7,0.1 -1.5,0.3 -2.2,0.4 -0.7,0.1 -1.4,0.3 -2.1,0.3 -1.4,0.1 -2.7,0.2 -3.9,0.1 -1.2,-0.1 -2.4,-0.1 -3.5,-0.4 -0.5,-0.1 -1,-0.2 -1.5,-0.3 -0.5,-0.1 -1,-0.2 -1.4,-0.4 -0.9,-0.3 -1.7,-0.6 -2.4,-0.8 -1.4,-0.5 -2.5,-1.1 -3.1,-1.5 -0.7,-0.4 -1,-0.7 -1,-0.7 0,0 0.4,0 1.2,-0.1 0.8,-0.1 1.9,-0.2 3.3,-0.5 0.7,-0.2 1.5,-0.3 2.3,-0.4 0.8,-0.1 1.7,-0.4 2.5,-0.7 0.9,-0.2 1.8,-0.6 2.8,-0.9 1,-0.3 1.9,-0.8 2.9,-1.2 0.5,-0.2 1,-0.5 1.5,-0.7 0.5,-0.3 1,-0.5 1.5,-0.8 0.5,-0.3 0.9,-0.6 1.4,-0.9 0.5,-0.3 1,-0.6 1.4,-1 0.5,-0.4 0.9,-0.7 1.4,-1.1 0.5,-0.4 0.9,-0.8 1.3,-1.2 l 0.7,-0.6 0.6,-0.7 c 0.4,-0.5 0.9,-0.9 1.2,-1.3 1.6,-1.9 3,-4 4.1,-6.2 0.3,-0.6 0.5,-1.1 0.8,-1.7 0.3,-0.6 0.4,-1.2 0.7,-1.8 l 0.3,-0.9 0.2,-0.8 0.2,-0.8 0.1,-0.4 0.1,-0.2 0.1,-0.3 0.5,-2.4 0.1,-0.3 v -0.1 -0.1 c 0.1,-0.3 -0.1,0.4 0,0.3 v 0 l 0.1,-0.6 0.2,-1.1 c 0.2,-1.5 0.4,-3 0.7,-4.5 0.4,-3 0.7,-5.8 0.9,-8.5 0.2,-2.7 0.3,-5.4 0.2,-8 0,-2.6 -0.1,-5.2 -0.3,-7.6 -0.2,-4.8 -0.3,-8.9 -0.3,-11.8 -0.1,-3.1 0.1,-4.8 0.1,-4.8 z"
   class="st2"
   id="XMLID_100_" />
	</g>
	<g
   id="XMLID_12_">
		<path
   style="fill:#ff8594"
   inkscape:connector-curvature="0"
   d="m 545.7,365.3 c 6.5,23.5 7.6,30.2 5.2,47.8 -2.4,17.6 -18.6,29.9 -36.2,27.5 -17.6,-2.4 -29.9,-18.6 -27.5,-36.2"
   class="st2"
   id="XMLID_98_" />
		<path
   style="fill:#ff8594"
   inkscape:connector-curvature="0"
   d="m 545.7,365.3 c 0,0 1.2,2.1 3,5.8 0.9,1.9 2,4.2 3.1,6.9 1.1,2.7 2.3,5.8 3.3,9.3 1,3.5 1.9,7.6 2.2,11.9 0.3,4.3 0.2,8.8 -0.1,13.3 l -0.1,0.8 v 0.4 l -0.1,0.7 c -0.1,0.5 -0.1,1.1 -0.2,1.7 l -0.1,0.8 -0.1,0.4 -0.1,0.5 c -0.2,0.7 -0.3,1.4 -0.5,2.1 -0.3,1.5 -0.9,2.7 -1.3,4 l -0.4,1 -0.5,0.9 -0.9,1.9 c -2.6,4.9 -6.5,9.3 -11.1,12.6 -4.6,3.3 -10,5.5 -15.5,6.4 -0.7,0.2 -1.4,0.2 -2.1,0.3 l -2.1,0.2 c -1.4,0.1 -2.7,0 -4.1,0 -1.4,-0.1 -2.7,-0.3 -4,-0.5 h -0.1 l -0.4,-0.1 h -0.1 -0.2 l -0.4,-0.1 -0.8,-0.2 c -0.5,-0.1 -1.1,-0.3 -1.6,-0.4 -1.3,-0.4 -2.7,-0.9 -3.9,-1.3 -1.2,-0.5 -2.3,-1.1 -3.4,-1.6 -1.1,-0.6 -2.1,-1.3 -3.1,-1.9 -1,-0.7 -1.9,-1.4 -2.8,-2.2 -3.6,-3 -6.2,-6.6 -8.1,-10.1 -1.8,-3.5 -2.9,-7 -3.3,-10.1 -0.1,-0.4 -0.1,-0.8 -0.2,-1.1 0,-0.4 -0.1,-0.7 -0.1,-1.1 -0.1,-0.7 -0.1,-1.4 -0.1,-2.1 0,-1.3 0.1,-2.5 0.2,-3.6 0.2,-1.1 0.3,-2 0.5,-2.8 0.2,-0.8 0.4,-1.5 0.6,-2 0.4,-1.1 0.5,-1.6 0.5,-1.6 0,0 0.1,0.6 0.3,1.7 0.1,0.5 0.1,1.2 0.3,2 0.2,0.8 0.4,1.6 0.6,2.6 0.3,0.9 0.6,2 1,3.1 0.2,0.5 0.5,1.1 0.7,1.7 0.1,0.3 0.2,0.6 0.4,0.9 0.1,0.3 0.3,0.6 0.5,0.9 0.3,0.6 0.6,1.2 0.9,1.8 0.4,0.6 0.8,1.2 1.2,1.8 0.4,0.6 0.9,1.2 1.3,1.8 0.2,0.3 0.5,0.6 0.7,0.9 0.2,0.3 0.5,0.6 0.8,0.8 2.1,2.3 4.6,4.4 7.5,6.1 0.8,0.4 1.5,0.8 2.3,1.2 0.8,0.3 1.6,0.6 2.4,1 0.8,0.2 1.7,0.5 2.5,0.8 0.8,0.1 1.5,0.3 2.3,0.5 0.5,0.1 1.1,0.1 1.6,0.2 l 0.8,0.1 0.4,0.1 h 0.2 0.1 c -0.6,-0.1 -0.1,0 -0.3,0 h 0.1 c 0.9,0 1.8,0 2.7,0 0.9,-0.1 1.8,-0.1 2.7,-0.2 l 1.3,-0.2 c 0.4,-0.1 0.9,-0.1 1.3,-0.3 3.5,-0.8 6.9,-2.3 9.9,-4.5 3,-2.1 5.6,-4.8 7.4,-7.9 l 0.7,-1.2 0.3,-0.6 0.3,-0.6 c 0.4,-0.8 0.8,-1.7 1,-2.4 0.1,-0.4 0.3,-0.7 0.4,-1.1 l 0.1,-0.3 0.1,-0.4 0.2,-0.8 c 0.1,-0.5 0.3,-1.1 0.4,-1.6 v -0.2 -0.1 -0.1 c 0,-0.3 -0.1,0.3 0,0.3 l 0.1,-0.4 0.1,-0.8 c 0.8,-4.2 1.5,-8.1 1.9,-11.8 0.4,-3.7 0.5,-7.2 0.3,-10.6 -0.1,-3.4 -0.3,-6.5 -0.6,-9.4 -0.2,-2.9 -0.4,-5.4 -0.6,-7.4 -0.1,-4.1 -0.1,-6.5 -0.1,-6.5 z"
   class="st2"
   id="XMLID_97_" />
	</g>
	<g
   id="XMLID_14_">
		<path
   style="fill:#ff8594"
   inkscape:connector-curvature="0"
   d="m 514.8,397.8 c -23.5,6.5 -30.2,7.6 -47.8,5.2 -17.6,-2.4 -29.9,-18.6 -27.5,-36.2 0.2,-1.3 0.4,-2.7 0.8,-3.9"
   class="st2"
   id="XMLID_95_" />
		<path
   style="fill:#ff8594"
   inkscape:connector-curvature="0"
   d="m 514.8,397.8 c 0,0 -1.4,1 -3.9,2.5 -2.5,1.5 -6.2,3.5 -10.8,5.5 -2.3,1 -4.9,1.9 -7.7,2.8 -2.9,0.8 -6,1.5 -9.3,1.8 -3.3,0.3 -6.7,0.4 -10.1,0.2 -1.7,-0.1 -3.4,-0.2 -5,-0.4 l -1.2,-0.1 -0.6,-0.1 -0.6,-0.1 -0.3,-0.1 -2.4,-0.4 -0.3,-0.1 -0.4,-0.1 -0.8,-0.2 -1.5,-0.4 c -0.5,-0.2 -1,-0.3 -1.5,-0.5 l -1.4,-0.6 c -0.9,-0.4 -1.8,-0.7 -2.7,-1.2 -0.8,-0.5 -1.7,-0.9 -2.5,-1.4 -3.2,-2.1 -6.1,-4.6 -8.4,-7.4 -0.6,-0.7 -1.1,-1.4 -1.6,-2.2 -0.3,-0.4 -0.5,-0.7 -0.8,-1.1 -0.2,-0.4 -0.4,-0.8 -0.6,-1.1 -0.4,-0.8 -0.8,-1.5 -1.2,-2.2 -0.3,-0.8 -0.7,-1.5 -1,-2.3 -0.3,-0.7 -0.6,-1.5 -0.8,-2.3 -0.2,-0.8 -0.5,-1.5 -0.6,-2.2 -0.1,-0.7 -0.3,-1.5 -0.4,-2.2 -0.1,-0.7 -0.3,-1.4 -0.3,-2.1 -0.1,-1.4 -0.2,-2.7 -0.1,-3.9 0.1,-1.2 0.1,-2.4 0.4,-3.5 0.1,-0.5 0.2,-1 0.3,-1.5 0.1,-0.5 0.2,-1 0.4,-1.4 0.3,-0.9 0.6,-1.7 0.8,-2.4 0.5,-1.4 1.1,-2.5 1.5,-3.1 0.4,-0.7 0.7,-1 0.7,-1 0,0 0,0.4 0.1,1.2 0.1,0.8 0.2,1.9 0.5,3.3 0.2,0.7 0.3,1.5 0.4,2.3 0.1,0.8 0.4,1.7 0.7,2.5 0.2,0.9 0.6,1.8 0.9,2.8 0.3,1 0.8,1.9 1.2,2.9 0.2,0.5 0.5,1 0.7,1.5 0.3,0.5 0.5,1 0.8,1.5 0.3,0.5 0.6,0.9 0.9,1.4 0.3,0.5 0.6,1 1,1.4 0.4,0.5 0.7,0.9 1.1,1.4 0.4,0.5 0.8,0.9 1.2,1.3 l 0.6,0.7 0.7,0.6 c 0.5,0.4 0.9,0.9 1.3,1.2 1.9,1.6 4,3 6.2,4.1 0.6,0.3 1.1,0.5 1.7,0.8 0.6,0.3 1.2,0.4 1.8,0.7 l 0.9,0.3 0.8,0.2 0.8,0.2 0.4,0.1 0.2,0.1 0.3,0.1 2.4,0.5 0.3,0.1 h 0.1 0.1 c 0.3,0.1 -0.4,-0.1 -0.3,0 v 0 l 0.6,0.1 1.1,0.2 c 1.5,0.2 3,0.4 4.5,0.7 3,0.4 5.8,0.7 8.5,0.9 2.7,0.2 5.4,0.3 8,0.2 2.6,0 5.2,-0.1 7.6,-0.3 4.8,-0.2 8.9,-0.3 11.8,-0.3 3.1,-0.1 4.8,0.1 4.8,0.1 z"
   class="st2"
   id="XMLID_94_" />
	</g>
	<g
   id="XMLID_15_">
		<path
   style="fill:#ff8594"
   inkscape:connector-curvature="0"
   d="m 472.5,356.5 c -23.5,6.5 -30.2,7.6 -47.8,5.2 -17.6,-2.4 -29.9,-18.6 -27.5,-36.2 0.2,-1.3 0.4,-2.7 0.8,-3.9"
   class="st2"
   id="XMLID_92_" />
		<path
   style="fill:#ff8594"
   inkscape:connector-curvature="0"
   d="m 472.5,356.5 c 0,0 -1.4,1 -3.9,2.5 -2.5,1.5 -6.2,3.5 -10.8,5.5 -2.3,1 -4.9,1.9 -7.7,2.8 -2.9,0.8 -6,1.5 -9.3,1.8 -3.3,0.3 -6.7,0.4 -10.1,0.2 -1.7,-0.1 -3.4,-0.2 -5,-0.4 l -1.2,-0.1 -0.6,-0.1 -0.6,-0.1 -0.3,-0.1 -2.4,-0.4 -0.3,-0.1 -0.4,-0.1 -0.8,-0.2 -1.5,-0.4 c -0.5,-0.2 -1,-0.3 -1.5,-0.5 l -1.4,-0.6 c -0.9,-0.4 -1.8,-0.7 -2.7,-1.2 -0.8,-0.5 -1.7,-0.9 -2.5,-1.4 -3.2,-2.1 -6.1,-4.6 -8.4,-7.4 -0.6,-0.7 -1.1,-1.4 -1.6,-2.2 -0.3,-0.4 -0.5,-0.7 -0.8,-1.1 -0.2,-0.4 -0.4,-0.8 -0.6,-1.1 -0.4,-0.8 -0.8,-1.5 -1.2,-2.2 -0.3,-0.8 -0.7,-1.5 -1,-2.3 -0.3,-0.7 -0.6,-1.5 -0.8,-2.3 -0.2,-0.8 -0.5,-1.5 -0.6,-2.2 -0.1,-0.7 -0.3,-1.5 -0.4,-2.2 -0.1,-0.7 -0.3,-1.4 -0.3,-2.1 -0.1,-1.4 -0.2,-2.7 -0.1,-3.9 0.1,-1.2 0.1,-2.4 0.4,-3.5 0.1,-0.5 0.2,-1 0.3,-1.5 0.1,-0.5 0.2,-1 0.4,-1.4 0.3,-0.9 0.6,-1.7 0.8,-2.4 0.5,-1.4 1.1,-2.5 1.5,-3.1 0.4,-0.7 0.7,-1 0.7,-1 0,0 0,0.4 0.1,1.2 0.1,0.8 0.2,1.9 0.5,3.3 0.2,0.7 0.3,1.5 0.4,2.3 0.1,0.8 0.4,1.7 0.7,2.5 0.2,0.9 0.6,1.8 0.9,2.8 0.3,1 0.8,1.9 1.2,2.9 0.2,0.5 0.5,1 0.7,1.5 0.3,0.5 0.5,1 0.8,1.5 0.3,0.5 0.6,0.9 0.9,1.4 0.3,0.5 0.6,1 1,1.4 0.4,0.5 0.7,0.9 1.1,1.4 0.4,0.5 0.8,0.9 1.2,1.3 l 0.6,0.7 0.7,0.6 c 0.5,0.4 0.9,0.9 1.3,1.2 1.9,1.6 4,3 6.2,4.1 0.6,0.3 1.1,0.5 1.7,0.8 0.6,0.3 1.2,0.4 1.8,0.7 l 0.9,0.3 0.8,0.2 0.8,0.2 0.4,0.1 0.2,0.1 0.3,0.1 2.4,0.5 0.3,0.1 h 0.1 0.1 c 0.3,0.1 -0.4,-0.1 -0.3,0 v 0 l 0.6,0.1 1.1,0.2 c 1.5,0.2 3,0.4 4.5,0.7 3,0.4 5.8,0.7 8.5,0.9 2.7,0.2 5.4,0.3 8,0.2 2.6,0 5.2,-0.1 7.6,-0.3 4.8,-0.2 8.9,-0.3 11.8,-0.3 3.1,0 4.8,0.1 4.8,0.1 z"
   class="st2"
   id="XMLID_91_" />
	</g>
	<g
   id="XMLID_9_">
		<path
   style="fill:#ff8594"
   inkscape:connector-curvature="0"
   d="m 428.7,318.9 c -24.2,3.3 -30.9,3.5 -48.1,-1.2 -17.1,-4.7 -27.2,-22.4 -22.5,-39.5 4.7,-17.1 25.2,-27.4 42.3,-22.8"
   class="st2"
   id="XMLID_89_" />
		<path
   style="fill:#ff8594"
   inkscape:connector-curvature="0"
   d="m 428.7,318.9 c 0,0 -0.6,0.2 -1.6,0.6 -1.1,0.4 -2.6,1 -4.7,1.6 -2,0.7 -4.5,1.4 -7.3,2.2 -2.9,0.8 -6.1,1.5 -9.9,2 -1.9,0.3 -3.8,0.4 -5.9,0.6 -2.1,0.1 -4.2,0.1 -6.4,-0.1 -4.4,-0.3 -8.9,-1 -13.4,-2 l -0.4,-0.1 -0.6,-0.1 -0.8,-0.2 -0.4,-0.1 -0.5,-0.2 -1,-0.3 c -1.4,-0.5 -2.6,-0.9 -3.9,-1.5 -2.5,-1.1 -4.9,-2.6 -7.2,-4.3 -4.5,-3.4 -8.2,-8.1 -10.7,-13.3 -1.2,-2.6 -2.2,-5.4 -2.8,-8.2 -0.6,-2.8 -0.9,-5.7 -0.8,-8.5 0,-2.8 0.4,-5.6 1.1,-8.3 0.2,-0.7 0.4,-1.3 0.5,-2 l 0.1,-0.2 0.1,-0.2 v -0.1 -0.1 l 0.1,-0.4 0.3,-0.8 0.2,-0.5 0.2,-0.5 0.4,-1 c 0.3,-0.7 0.6,-1.2 0.9,-1.8 1.3,-2.4 2.8,-4.6 4.5,-6.5 1.7,-1.9 3.5,-3.6 5.4,-5 3.8,-2.8 7.7,-4.7 11.5,-5.9 3.8,-1.2 7.4,-1.6 10.5,-1.7 3.1,0 5.8,0.4 8,0.9 2.1,0.5 3.7,1.2 4.8,1.6 1,0.5 1.6,0.8 1.6,0.8 0,0 -0.6,0 -1.7,0 -1.1,0 -2.8,0.1 -4.8,0.3 -2,0.3 -4.4,0.7 -7,1.6 -2.6,0.8 -5.4,2 -8.1,3.7 -2.8,1.7 -5.5,3.8 -7.8,6.4 -1.2,1.3 -2.3,2.7 -3.2,4.2 -0.9,1.5 -1.7,3.1 -2.4,4.7 -0.1,0.4 -0.3,0.8 -0.4,1.2 l -0.3,1.1 -0.2,0.8 -0.1,0.4 v 0.1 0.1 c -0.1,0.2 0.1,-0.2 0,-0.1 v 0.2 c -0.1,0.5 -0.2,0.9 -0.2,1.4 -0.3,1.8 -0.3,3.7 -0.3,5.5 0.2,3.7 1.1,7.4 2.8,10.7 1.6,3.4 4,6.3 6.7,8.8 1.4,1.2 2.9,2.3 4.5,3.2 0.8,0.4 1.6,0.9 2.4,1.2 l 0.5,0.2 0.3,0.1 0.4,0.1 0.8,0.3 0.2,0.1 h 0.1 c -0.1,0 0.2,0.1 -0.1,0 v 0 l 0.4,0.1 c 4.1,1.4 8,2.6 11.7,3.5 3.7,0.9 7.2,1.5 10.6,1.8 3.4,0.4 6.6,0.5 9.5,0.7 2.9,0.2 5.5,0.3 7.5,0.4 2.1,0.1 3.8,0.3 4.9,0.4 0.8,0.3 1.4,0.4 1.4,0.4 z"
   class="st2"
   id="XMLID_88_" />
	</g>
	<g
   id="XMLID_13_">
		<path
   style="fill:#ff8594"
   inkscape:connector-curvature="0"
   d="m 586.9,323 c 6.5,23.5 7.6,30.2 5.2,47.8 -2.4,17.6 -18.6,29.9 -36.2,27.5 -1.3,-0.2 -2.7,-0.4 -3.9,-0.8"
   class="st2"
   id="XMLID_86_" />
		<path
   style="fill:#ff8594"
   inkscape:connector-curvature="0"
   d="m 586.9,323 c 0,0 1,1.4 2.5,3.9 1.5,2.5 3.5,6.2 5.5,10.8 1,2.3 1.9,4.9 2.8,7.7 0.8,2.9 1.5,6 1.8,9.3 0.3,3.3 0.4,6.7 0.2,10.1 -0.1,1.7 -0.2,3.4 -0.4,5 l -0.1,1.2 -0.1,0.6 -0.1,0.6 -0.1,0.3 -0.4,2.4 -0.1,0.3 -0.1,0.4 -0.2,0.8 -0.4,1.5 c -0.2,0.5 -0.3,1 -0.5,1.5 l -0.6,1.4 c -0.4,0.9 -0.7,1.8 -1.2,2.7 -0.5,0.8 -0.9,1.7 -1.4,2.5 -2.1,3.2 -4.6,6.1 -7.4,8.4 -0.7,0.6 -1.4,1.1 -2.2,1.6 -0.4,0.3 -0.7,0.5 -1.1,0.8 -0.4,0.2 -0.8,0.4 -1.1,0.6 -0.8,0.4 -1.5,0.8 -2.2,1.2 -0.8,0.3 -1.5,0.7 -2.3,1 -0.7,0.3 -1.5,0.6 -2.3,0.8 -0.8,0.2 -1.5,0.5 -2.2,0.6 -0.7,0.1 -1.5,0.3 -2.2,0.4 -0.7,0.1 -1.4,0.3 -2.1,0.3 -1.4,0.1 -2.7,0.2 -3.9,0.1 -1.2,-0.1 -2.4,-0.1 -3.5,-0.4 -0.5,-0.1 -1,-0.2 -1.5,-0.3 -0.5,-0.1 -1,-0.2 -1.4,-0.4 -0.9,-0.3 -1.7,-0.6 -2.4,-0.8 -1.4,-0.5 -2.5,-1.1 -3.1,-1.5 -0.7,-0.4 -1,-0.7 -1,-0.7 0,0 0.4,0 1.2,-0.1 0.8,-0.1 1.9,-0.2 3.3,-0.5 0.7,-0.2 1.5,-0.3 2.3,-0.4 0.8,-0.1 1.7,-0.4 2.5,-0.7 0.9,-0.2 1.8,-0.6 2.8,-0.9 1,-0.3 1.9,-0.8 2.9,-1.2 0.5,-0.2 1,-0.5 1.5,-0.7 0.5,-0.3 1,-0.5 1.5,-0.8 0.5,-0.3 0.9,-0.6 1.4,-0.9 0.5,-0.3 1,-0.6 1.4,-1 0.5,-0.4 0.9,-0.7 1.4,-1.1 0.5,-0.4 0.9,-0.8 1.3,-1.2 l 0.7,-0.6 0.6,-0.7 c 0.4,-0.5 0.9,-0.9 1.2,-1.3 1.6,-1.9 3,-4 4.1,-6.2 0.3,-0.6 0.5,-1.1 0.8,-1.7 0.3,-0.6 0.4,-1.2 0.7,-1.8 l 0.3,-0.9 0.2,-0.8 0.2,-0.8 0.1,-0.4 0.1,-0.2 0.1,-0.3 0.5,-2.4 0.1,-0.3 v -0.1 -0.1 c 0.1,-0.3 -0.1,0.4 0,0.3 v 0 l 0.1,-0.6 0.2,-1.1 c 0.2,-1.5 0.4,-3 0.7,-4.5 0.4,-3 0.7,-5.8 0.9,-8.5 0.2,-2.7 0.3,-5.4 0.2,-8 0,-2.6 -0.1,-5.2 -0.3,-7.6 -0.2,-4.8 -0.3,-8.9 -0.3,-11.8 0,-3.1 0.1,-4.8 0.1,-4.8 z"
   class="st2"
   id="XMLID_85_" />
	</g>
	<g
   id="XMLID_16_">
		<path
   style="fill:#ff8594"
   inkscape:connector-curvature="0"
   d="m 521.7,168.2 c 23.5,-6.5 30.2,-7.6 47.8,-5.2 17.6,2.4 29.9,18.6 27.5,36.2 -0.2,1.3 -0.4,2.7 -0.8,3.9"
   class="st2"
   id="XMLID_83_" />
		<path
   style="fill:#ff8594"
   inkscape:connector-curvature="0"
   d="m 521.7,168.2 c 0,0 1.4,-1 3.9,-2.5 2.5,-1.5 6.2,-3.5 10.8,-5.5 2.3,-1 4.9,-1.9 7.7,-2.8 2.9,-0.8 6,-1.5 9.3,-1.8 3.3,-0.3 6.7,-0.4 10.1,-0.2 1.7,0.1 3.4,0.2 5,0.4 l 1.2,0.1 0.6,0.1 0.6,0.1 0.3,0.1 2.4,0.4 0.3,0.1 0.4,0.1 0.8,0.2 1.5,0.4 c 0.5,0.2 1,0.3 1.5,0.5 l 1.4,0.6 c 0.9,0.4 1.8,0.7 2.7,1.2 0.8,0.5 1.7,0.9 2.5,1.4 3.2,2.1 6.1,4.6 8.4,7.4 0.6,0.7 1.1,1.4 1.6,2.2 0.3,0.4 0.5,0.7 0.8,1.1 0.2,0.4 0.4,0.8 0.6,1.1 0.4,0.8 0.8,1.5 1.2,2.2 0.3,0.8 0.7,1.5 1,2.3 0.3,0.7 0.6,1.5 0.8,2.3 0.2,0.8 0.5,1.5 0.6,2.2 0.1,0.7 0.3,1.5 0.4,2.2 0.1,0.7 0.3,1.4 0.3,2.1 0.1,1.4 0.2,2.7 0.1,3.9 -0.1,1.2 -0.1,2.4 -0.4,3.5 -0.1,0.5 -0.2,1 -0.3,1.5 -0.1,0.5 -0.2,1 -0.4,1.4 -0.3,0.9 -0.6,1.7 -0.8,2.4 -0.5,1.4 -1.1,2.5 -1.5,3.1 -0.4,0.7 -0.7,1 -0.7,1 0,0 0,-0.4 -0.1,-1.2 -0.1,-0.8 -0.2,-1.9 -0.5,-3.3 -0.2,-0.7 -0.3,-1.5 -0.4,-2.3 -0.1,-0.8 -0.4,-1.7 -0.7,-2.5 -0.2,-0.9 -0.6,-1.8 -0.9,-2.8 -0.3,-1 -0.8,-1.9 -1.2,-2.9 -0.2,-0.5 -0.5,-1 -0.7,-1.5 -0.3,-0.5 -0.5,-1 -0.8,-1.5 -0.3,-0.5 -0.6,-0.9 -0.9,-1.4 -0.3,-0.5 -0.6,-1 -1,-1.4 -0.4,-0.5 -0.7,-0.9 -1.1,-1.4 -0.4,-0.5 -0.8,-0.9 -1.2,-1.3 l -0.6,-0.7 -0.7,-0.6 c -0.5,-0.4 -0.9,-0.9 -1.3,-1.2 -1.9,-1.6 -4,-3 -6.2,-4.1 -0.6,-0.3 -1.1,-0.5 -1.7,-0.8 -0.6,-0.3 -1.2,-0.4 -1.8,-0.7 l -0.9,-0.3 -0.8,-0.2 -0.8,-0.2 -0.4,-0.1 -0.2,-0.1 -0.3,-0.1 -2.4,-0.5 -0.3,-0.1 h -0.1 -0.1 c -0.3,-0.1 0.4,0.1 0.3,0 v 0 l -0.6,-0.1 -1.1,-0.2 c -1.5,-0.2 -3,-0.4 -4.5,-0.7 -3,-0.4 -5.8,-0.7 -8.5,-0.9 -2.7,-0.2 -5.4,-0.3 -8,-0.2 -2.6,0 -5.2,0.1 -7.6,0.3 -4.8,0.2 -8.9,0.3 -11.8,0.3 -3.1,0 -4.8,-0.1 -4.8,-0.1 z"
   class="st2"
   id="XMLID_82_" />
	</g>
	<g
   id="XMLID_17_">
		<path
   style="fill:#ff8594"
   inkscape:connector-curvature="0"
   d="m 564,209.4 c 23.5,-6.5 30.2,-7.6 47.8,-5.2 17.6,2.4 29.9,18.6 27.5,36.2 -0.2,1.3 -0.4,2.7 -0.8,3.9"
   class="st2"
   id="XMLID_80_" />
		<path
   style="fill:#ff8594"
   inkscape:connector-curvature="0"
   d="m 564,209.4 c 0,0 1.4,-1 3.9,-2.5 2.5,-1.5 6.2,-3.5 10.8,-5.5 2.3,-1 4.9,-1.9 7.7,-2.8 2.9,-0.8 6,-1.5 9.3,-1.8 3.3,-0.3 6.7,-0.4 10.1,-0.2 1.7,0.1 3.4,0.2 5,0.4 l 1.2,0.1 0.6,0.1 0.6,0.1 0.3,0.1 2.4,0.4 0.3,0.1 0.4,0.1 0.8,0.2 1.5,0.4 c 0.5,0.2 1,0.3 1.5,0.5 l 1.4,0.6 c 0.9,0.4 1.8,0.7 2.7,1.2 0.8,0.5 1.7,0.9 2.5,1.4 3.2,2.1 6.1,4.6 8.4,7.4 0.6,0.7 1.1,1.4 1.6,2.2 0.3,0.4 0.5,0.7 0.8,1.1 0.2,0.4 0.4,0.8 0.6,1.1 0.4,0.8 0.8,1.5 1.2,2.2 0.3,0.8 0.7,1.5 1,2.3 0.3,0.7 0.6,1.5 0.8,2.3 0.2,0.8 0.5,1.5 0.6,2.2 0.1,0.7 0.3,1.5 0.4,2.2 0.1,0.7 0.3,1.4 0.3,2.1 0.1,1.4 0.2,2.7 0.1,3.9 -0.1,1.2 -0.1,2.4 -0.4,3.5 -0.1,0.5 -0.2,1 -0.3,1.5 -0.1,0.5 -0.2,1 -0.4,1.4 -0.3,0.9 -0.6,1.7 -0.8,2.4 -0.5,1.4 -1.1,2.5 -1.5,3.1 -0.4,0.7 -0.7,1 -0.7,1 0,0 0,-0.4 -0.1,-1.2 -0.1,-0.8 -0.2,-1.9 -0.5,-3.3 -0.2,-0.7 -0.3,-1.5 -0.4,-2.3 -0.1,-0.8 -0.4,-1.7 -0.7,-2.5 -0.2,-0.9 -0.6,-1.8 -0.9,-2.8 -0.3,-1 -0.8,-1.9 -1.2,-2.9 -0.2,-0.5 -0.5,-1 -0.7,-1.5 -0.3,-0.5 -0.5,-1 -0.8,-1.5 -0.3,-0.5 -0.6,-0.9 -0.9,-1.4 -0.3,-0.5 -0.6,-1 -1,-1.4 -0.4,-0.5 -0.7,-0.9 -1.1,-1.4 -0.4,-0.5 -0.8,-0.9 -1.2,-1.3 l -0.6,-0.7 -0.7,-0.6 c -0.5,-0.4 -0.9,-0.9 -1.3,-1.2 -1.9,-1.6 -4,-3 -6.2,-4.1 -0.6,-0.3 -1.1,-0.5 -1.7,-0.8 -0.6,-0.3 -1.2,-0.4 -1.8,-0.7 l -0.9,-0.3 -0.8,-0.2 -0.8,-0.2 -0.4,-0.1 -0.2,-0.1 -0.3,-0.1 -2.4,-0.5 -0.3,-0.1 h -0.1 -0.1 c -0.3,-0.1 0.4,0.1 0.3,0 v 0 l -0.6,-0.1 -1.1,-0.2 c -1.5,-0.2 -3,-0.4 -4.5,-0.7 -3,-0.4 -5.8,-0.7 -8.5,-0.9 -2.7,-0.2 -5.4,-0.3 -8,-0.2 -2.6,0 -5.2,0.1 -7.6,0.3 -4.8,0.2 -8.9,0.3 -11.8,0.3 -3.1,0.1 -4.8,-0.1 -4.8,-0.1 z"
   class="st2"
   id="XMLID_79_" />
	</g>
</g><g
     transform="translate(-222.77365,-222.76405)"
     id="XMLID_72_">
	<ellipse
   style="fill:#ffffff;stroke:#ff1b53;stroke-width:5;stroke-miterlimit:10"
   ry="32.400002"
   rx="32.700001"
   cy="282.20001"
   cx="449.79999"
   class="st3"
   id="XMLID_71_" />
	<ellipse
   style="fill:#002559"
   ry="32.400002"
   rx="23"
   cy="282.20001"
   cx="442.29999"
   class="st4"
   id="XMLID_19_" />
	<ellipse
   style="fill:none;stroke:#ff8594;stroke-width:5;stroke-miterlimit:10"
   ry="32.400002"
   rx="32.700001"
   cy="282.20001"
   cx="449.79999"
   class="st5"
   id="XMLID_18_" />
</g><g
     transform="translate(-222.77365,-222.76405)"
     id="XMLID_31_">
	<ellipse
   style="fill:#ffffff;stroke:#ff1b53;stroke-width:5;stroke-miterlimit:10"
   ry="32.400002"
   rx="32.700001"
   cy="282.20001"
   cx="583.5"
   class="st3"
   id="XMLID_73_" />
	<ellipse
   style="fill:#002559"
   ry="32.400002"
   rx="24.1"
   cy="282.20001"
   cx="574.90002"
   class="st4"
   id="XMLID_21_" />
	<ellipse
   style="fill:none;stroke:#ff8594;stroke-width:5;stroke-miterlimit:10"
   ry="32.400002"
   rx="32.700001"
   cy="282.20001"
   cx="583.5"
   class="st5"
   id="XMLID_22_" />
</g><circle
     style="fill:#002559"
     r="32"
     cy="-176.56406"
     cx="177.52634"
     class="st4"
     id="XMLID_36_" /><g
     style="fill:#ff0000"
     transform="translate(-222.77365,-222.76405)"
     id="XMLID_33_">
	<g
   style="fill:#ff0000"
   id="XMLID_70_">
		<path
   style="fill:#ff0000"
   inkscape:connector-curvature="0"
   d="m 602.9,248.6 c 0,0 2.2,-0.9 6.2,-2.2 2,-0.7 4.4,-1.4 7.2,-2.2 2.8,-0.8 6,-1.5 9.7,-2 3.6,-0.5 7.8,-0.8 12.1,-0.6 4.3,0.3 8.8,0.9 13.2,1.9 l 0.8,0.2 0.4,0.1 0.7,0.2 c 0.5,0.1 1.1,0.3 1.6,0.4 l 0.8,0.2 0.4,0.1 0.5,0.2 c 0.7,0.3 1.4,0.5 2,0.8 1.4,0.5 2.6,1.2 3.8,1.8 l 0.9,0.5 0.9,0.6 1.7,1.2 c 4.6,3.2 8.4,7.6 11,12.7 2.7,5 4.2,10.7 4.3,16.2 0.1,0.7 0,1.4 0,2.1 0,0.7 -0.1,1.4 -0.1,2.1 -0.1,1.4 -0.4,2.7 -0.6,4.1 -0.3,1.3 -0.7,2.6 -1,3.9 v 0.1 l -0.1,0.4 v 0 l -0.1,0.2 -0.1,0.4 -0.3,0.8 c -0.2,0.5 -0.4,1 -0.6,1.5 -0.6,1.2 -1.2,2.5 -1.8,3.7 -0.7,1.1 -1.4,2.2 -2.1,3.2 -0.8,1 -1.6,1.9 -2.3,2.9 -0.8,0.9 -1.7,1.7 -2.5,2.5 -3.5,3.1 -7.4,5.3 -11.1,6.7 -3.7,1.3 -7.3,2 -10.4,2 -0.4,0 -0.8,0 -1.1,0 -0.4,0 -0.7,0 -1.1,-0.1 -0.7,0 -1.4,-0.1 -2.1,-0.2 -1.3,-0.2 -2.5,-0.4 -3.6,-0.7 -1,-0.3 -2,-0.6 -2.7,-0.9 -0.8,-0.3 -1.4,-0.6 -1.9,-0.8 -1,-0.5 -1.6,-0.8 -1.6,-0.8 0,0 0.6,0 1.7,0 0.6,0 1.2,0 2,-0.1 0.8,-0.1 1.7,-0.2 2.7,-0.2 1,-0.2 2,-0.4 3.2,-0.6 0.6,-0.2 1.2,-0.3 1.8,-0.5 0.3,-0.1 0.6,-0.2 0.9,-0.2 0.3,-0.1 0.6,-0.2 0.9,-0.3 0.6,-0.2 1.3,-0.5 1.9,-0.7 0.6,-0.3 1.3,-0.6 1.9,-0.9 0.7,-0.3 1.3,-0.7 1.9,-1.1 0.3,-0.2 0.7,-0.4 1,-0.6 0.3,-0.2 0.6,-0.4 0.9,-0.7 2.6,-1.7 5,-4 7.1,-6.7 0.5,-0.7 1,-1.4 1.5,-2.1 0.4,-0.7 0.9,-1.5 1.3,-2.2 0.3,-0.8 0.7,-1.6 1.1,-2.4 0.2,-0.8 0.5,-1.4 0.8,-2.2 0.1,-0.5 0.3,-1.1 0.4,-1.6 l 0.2,-0.8 0.1,-0.4 0.1,-0.2 v -0.1 c -0.2,0.6 0,0.1 -0.1,0.3 v -0.1 c 0.1,-0.9 0.3,-1.8 0.4,-2.7 0,-0.9 0.1,-1.8 0.1,-2.7 v -1.4 c 0,-0.5 0,-0.9 -0.1,-1.4 -0.3,-3.6 -1.4,-7.2 -3.1,-10.4 -1.7,-3.2 -4,-6.1 -6.9,-8.4 l -1.1,-0.8 -0.5,-0.4 -0.6,-0.4 c -0.8,-0.5 -1.5,-1 -2.2,-1.3 -0.3,-0.2 -0.7,-0.4 -1,-0.6 l -0.3,-0.1 -0.4,-0.2 -0.8,-0.3 c -0.5,-0.2 -1,-0.4 -1.6,-0.6 l -0.2,-0.1 h -0.1 v 0 c -0.3,-0.1 0.3,0.1 0.3,0.1 l -0.4,-0.1 -0.8,-0.2 c -4,-1.3 -7.8,-2.6 -11.5,-3.4 -3.6,-0.9 -7.1,-1.4 -10.5,-1.7 -3.3,-0.3 -6.5,-0.5 -9.4,-0.7 -2.9,-0.2 -5.4,-0.3 -7.4,-0.4 -3.8,-0.3 -6.2,-0.6 -6.2,-0.6 z"
   class="st6"
   id="XMLID_77_" />
	</g>
	<g
   style="fill:#ff0000"
   id="XMLID_69_">
		<path
   style="fill:#ff0000"
   inkscape:connector-curvature="0"
   d="m 406.5,283.7 c 0,0 -1,-1.4 -2.5,-3.9 -1.5,-2.5 -3.5,-6.2 -5.5,-10.8 -1,-2.3 -1.9,-4.9 -2.8,-7.7 -0.8,-2.9 -1.5,-6 -1.8,-9.3 -0.3,-3.3 -0.4,-6.7 -0.2,-10.1 0.1,-1.7 0.2,-3.4 0.4,-5 l 0.1,-1.2 0.1,-0.6 0.1,-0.6 0.1,-0.3 0.4,-2.4 0.1,-0.3 0.1,-0.4 0.2,-0.8 0.4,-1.5 c 0.2,-0.5 0.3,-1 0.5,-1.5 l 0.6,-1.4 c 0.4,-0.9 0.7,-1.8 1.2,-2.7 0.5,-0.8 0.9,-1.7 1.4,-2.5 2.1,-3.2 4.6,-6.1 7.4,-8.4 0.7,-0.6 1.4,-1.1 2.2,-1.6 0.4,-0.3 0.7,-0.5 1.1,-0.8 0.4,-0.2 0.8,-0.4 1.1,-0.6 0.8,-0.4 1.5,-0.8 2.2,-1.2 0.8,-0.3 1.5,-0.7 2.3,-1 0.7,-0.3 1.5,-0.6 2.3,-0.8 0.8,-0.2 1.5,-0.5 2.2,-0.6 0.7,-0.1 1.5,-0.3 2.2,-0.4 0.7,-0.1 1.4,-0.3 2.1,-0.3 1.4,-0.1 2.7,-0.2 3.9,-0.1 1.2,0.1 2.4,0.1 3.5,0.4 0.5,0.1 1,0.2 1.5,0.3 0.5,0.1 1,0.2 1.4,0.4 0.9,0.3 1.7,0.6 2.4,0.8 1.4,0.5 2.5,1.1 3.1,1.5 0.7,0.4 1,0.7 1,0.7 0,0 -0.4,0 -1.2,0.1 -0.8,0.1 -1.9,0.2 -3.3,0.5 -0.7,0.2 -1.5,0.3 -2.3,0.4 -0.8,0.1 -1.7,0.4 -2.5,0.7 -0.9,0.2 -1.8,0.6 -2.8,0.9 -1,0.3 -1.9,0.8 -2.9,1.2 -0.5,0.2 -1,0.5 -1.5,0.7 -0.5,0.3 -1,0.5 -1.5,0.8 -0.5,0.3 -0.9,0.6 -1.4,0.9 -0.5,0.3 -1,0.6 -1.4,1 -0.5,0.4 -0.9,0.7 -1.4,1.1 -0.5,0.4 -0.9,0.8 -1.3,1.2 l -0.7,0.6 -0.6,0.7 c -0.4,0.5 -0.9,0.9 -1.2,1.3 -1.6,1.9 -3,4 -4.1,6.2 -0.3,0.6 -0.5,1.1 -0.8,1.7 -0.3,0.6 -0.4,1.2 -0.7,1.8 l -0.3,0.9 -0.2,0.8 -0.2,0.8 -0.1,0.4 -0.1,0.2 -0.1,0.3 -0.5,2.4 -0.1,0.3 v 0.1 0.1 c -0.1,0.3 0.1,-0.4 0,-0.3 v 0 l -0.1,0.6 -0.2,1.1 c -0.2,1.5 -0.4,3 -0.7,4.5 -0.4,3 -0.7,5.8 -0.9,8.5 -0.2,2.7 -0.3,5.4 -0.2,8 0,2.6 0.1,5.2 0.3,7.6 0.2,4.8 0.3,8.9 0.3,11.8 0.1,3 -0.1,4.8 -0.1,4.8 z"
   class="st6"
   id="XMLID_75_" />
	</g>
	<g
   style="fill:#ff0000"
   id="XMLID_68_">
		<path
   style="fill:#ff0000"
   inkscape:connector-curvature="0"
   d="m 447.8,241.4 c 0,0 -1,-1.4 -2.5,-3.9 -1.5,-2.5 -3.5,-6.2 -5.5,-10.8 -1,-2.3 -1.9,-4.9 -2.8,-7.7 -0.8,-2.9 -1.5,-6 -1.8,-9.3 -0.3,-3.3 -0.4,-6.7 -0.2,-10.1 0.1,-1.7 0.2,-3.4 0.4,-5 l 0.1,-1.2 0.1,-0.6 0.1,-0.6 0.1,-0.3 0.4,-2.4 0.1,-0.3 0.1,-0.4 0.2,-0.8 0.4,-1.5 c 0.2,-0.5 0.3,-1 0.5,-1.5 l 0.6,-1.4 c 0.4,-0.9 0.7,-1.8 1.2,-2.7 0.5,-0.8 0.9,-1.7 1.4,-2.5 2.1,-3.2 4.6,-6.1 7.4,-8.4 0.7,-0.6 1.4,-1.1 2.2,-1.6 0.4,-0.3 0.7,-0.5 1.1,-0.8 0.4,-0.2 0.8,-0.4 1.1,-0.6 0.8,-0.4 1.5,-0.8 2.2,-1.2 0.8,-0.3 1.5,-0.7 2.3,-1 0.7,-0.3 1.5,-0.6 2.3,-0.8 0.8,-0.2 1.5,-0.5 2.2,-0.6 0.7,-0.1 1.5,-0.3 2.2,-0.4 0.7,-0.1 1.4,-0.3 2.1,-0.3 1.4,-0.1 2.7,-0.2 3.9,-0.1 1.2,0.1 2.4,0.1 3.5,0.4 0.5,0.1 1,0.2 1.5,0.3 0.5,0.1 1,0.2 1.4,0.4 0.9,0.3 1.7,0.6 2.4,0.8 1.4,0.5 2.5,1.1 3.1,1.5 0.7,0.4 1,0.7 1,0.7 0,0 -0.4,0 -1.2,0.1 -0.8,0.1 -1.9,0.2 -3.3,0.5 -0.7,0.2 -1.5,0.3 -2.3,0.4 -0.8,0.1 -1.7,0.4 -2.5,0.7 -0.9,0.2 -1.8,0.6 -2.8,0.9 -1,0.3 -1.9,0.8 -2.9,1.2 -0.5,0.2 -1,0.5 -1.5,0.7 -0.5,0.3 -1,0.5 -1.5,0.8 -0.5,0.3 -0.9,0.6 -1.4,0.9 -0.5,0.3 -1,0.6 -1.4,1 -0.5,0.4 -0.9,0.7 -1.4,1.1 -0.5,0.4 -0.9,0.8 -1.3,1.2 l -0.7,0.6 -0.6,0.7 c -0.4,0.5 -0.9,0.9 -1.2,1.3 -1.6,1.9 -3,4 -4.1,6.2 -0.3,0.6 -0.5,1.1 -0.8,1.7 -0.3,0.6 -0.4,1.2 -0.7,1.8 l -0.3,0.9 -0.2,0.8 -0.2,0.8 -0.1,0.4 -0.1,0.2 -0.1,0.3 -0.5,2.4 -0.1,0.3 v 0.1 0.1 c -0.1,0.3 0.1,-0.4 0,-0.3 v 0 l -0.1,0.6 -0.2,1.1 c -0.2,1.5 -0.4,3 -0.7,4.5 -0.4,3 -0.7,5.8 -0.9,8.5 -0.2,2.7 -0.3,5.4 -0.2,8 0,2.6 0.1,5.2 0.3,7.6 0.2,4.8 0.3,8.9 0.3,11.8 0.1,3.1 -0.1,4.8 -0.1,4.8 z"
   class="st6"
   id="XMLID_64_" />
	</g>
	<g
   style="fill:#ff0000"
   id="XMLID_67_">
		<path
   style="fill:#ff0000"
   inkscape:connector-curvature="0"
   d="m 547.5,159.9 c 0,0 -0.1,-0.6 -0.3,-1.7 -0.1,-0.5 -0.1,-1.3 -0.3,-2 -0.2,-0.8 -0.4,-1.6 -0.6,-2.6 -0.3,-0.9 -0.6,-2 -1,-3.1 -0.2,-0.5 -0.5,-1.1 -0.7,-1.7 -0.1,-0.3 -0.2,-0.6 -0.4,-0.9 -0.1,-0.3 -0.3,-0.6 -0.5,-0.9 -0.3,-0.6 -0.6,-1.2 -0.9,-1.8 -0.4,-0.6 -0.8,-1.2 -1.2,-1.8 -0.4,-0.6 -0.9,-1.2 -1.3,-1.8 -0.2,-0.3 -0.5,-0.6 -0.7,-0.9 -0.2,-0.3 -0.5,-0.6 -0.8,-0.9 -2.1,-2.3 -4.6,-4.4 -7.5,-6.1 -2.9,-1.7 -6.3,-2.9 -9.8,-3.4 -0.8,-0.1 -1.6,-0.2 -2.4,-0.3 -0.6,0 -1.1,0 -1.7,-0.1 h -0.8 -0.4 -0.2 -0.1 c -0.8,0.1 -1.5,0.1 -2.4,0.2 -0.9,0.2 -1.8,0.2 -2.7,0.5 -3.5,0.8 -6.9,2.3 -9.9,4.5 -3,2.1 -5.6,4.8 -7.4,7.9 l -0.7,1.2 -0.3,0.6 -0.3,0.6 c -0.4,0.8 -0.8,1.6 -1.1,2.5 -0.3,0.8 -0.6,1.7 -0.8,2.6 l -0.3,1.3 c 0,0.1 -0.1,0.3 -0.1,0.3 l -0.1,0.4 -0.2,0.8 c -0.4,2.2 -0.8,4.1 -1.1,6.1 -0.4,2 -0.6,3.9 -0.8,5.7 -0.4,3.7 -0.5,7.2 -0.3,10.6 0.1,3.4 0.3,6.5 0.6,9.4 0.2,2.9 0.4,5.4 0.6,7.4 0.3,4.1 0.3,6.6 0.3,6.6 0,0 -1.2,-2.1 -3,-5.8 -0.9,-1.9 -2,-4.2 -3.1,-6.9 -1.1,-2.7 -2.3,-5.8 -3.3,-9.3 -1,-3.5 -1.9,-7.6 -2.2,-11.9 -0.2,-2.2 -0.2,-4.4 -0.2,-6.6 0,-1.1 0,-2.2 0.1,-3.4 0,-1.2 0.1,-2.2 0.2,-3.3 l 0.1,-0.8 v -0.4 l 0.1,-0.5 c 0.1,-0.7 0.2,-1.3 0.3,-2 0.1,-1.3 0.5,-2.6 0.8,-3.9 0.7,-2.6 1.7,-5.2 3,-7.7 2.6,-4.9 6.5,-9.3 11.1,-12.6 4.6,-3.3 10,-5.5 15.5,-6.4 0.7,-0.2 1.4,-0.2 2.1,-0.3 l 2.1,-0.2 c 1.4,-0.1 3,0 4.4,0 h 0.3 0.2 l 0.4,0.1 0.8,0.1 c 0.6,0.1 1.1,0.1 1.7,0.2 h 0.1 0.4 0.1 l 0.2,0.1 0.5,0.1 1,0.2 c 0.6,0.2 1.3,0.3 1.9,0.5 5,1.4 9.5,4 13.1,7 3.6,3 6.2,6.6 8.1,10.1 1.8,3.5 2.9,7 3.3,10.1 0.1,0.4 0.1,0.8 0.2,1.1 0,0.4 0.1,0.7 0.1,1.1 0.1,0.7 0.1,1.4 0.1,2.1 0,1.3 -0.1,2.5 -0.2,3.6 -0.2,1.1 -0.3,2.1 -0.5,2.9 -0.2,0.8 -0.4,1.4 -0.6,2 -0.4,1 -0.6,1.5 -0.6,1.5 z"
   class="st6"
   id="XMLID_62_" />
	</g>
	<g
   style="fill:#ff0000"
   id="XMLID_66_">
		<path
   style="fill:#ff0000"
   inkscape:connector-curvature="0"
   d="m 628.2,280.7 c 0,0 1,1.4 2.5,3.9 1.5,2.5 3.5,6.2 5.5,10.8 1,2.3 1.9,4.9 2.8,7.7 0.8,2.9 1.5,6 1.8,9.3 0.3,3.3 0.4,6.7 0.2,10.1 -0.1,1.7 -0.2,3.4 -0.4,5 l -0.1,1.2 -0.1,0.6 -0.1,0.6 -0.1,0.3 -0.4,2.4 -0.1,0.3 -0.1,0.4 -0.2,0.8 -0.4,1.5 c -0.2,0.5 -0.3,1 -0.5,1.5 l -0.6,1.4 c -0.4,0.9 -0.7,1.8 -1.2,2.7 -0.5,0.8 -0.9,1.7 -1.4,2.5 -2.1,3.2 -4.6,6.1 -7.4,8.4 -0.7,0.6 -1.4,1.1 -2.2,1.6 -0.4,0.3 -0.7,0.5 -1.1,0.8 -0.4,0.2 -0.8,0.4 -1.1,0.6 -0.8,0.4 -1.5,0.8 -2.2,1.2 -0.8,0.3 -1.5,0.7 -2.3,1 -0.7,0.3 -1.5,0.6 -2.3,0.8 -0.8,0.2 -1.5,0.5 -2.2,0.6 -0.7,0.1 -1.5,0.3 -2.2,0.4 -0.7,0.1 -1.4,0.3 -2.1,0.3 -1.4,0.1 -2.7,0.2 -3.9,0.1 -1.2,-0.1 -2.4,-0.1 -3.5,-0.4 -0.5,-0.1 -1,-0.2 -1.5,-0.3 -0.5,-0.1 -1,-0.2 -1.4,-0.4 -0.9,-0.3 -1.7,-0.6 -2.4,-0.8 -1.4,-0.5 -2.5,-1.1 -3.1,-1.5 -0.7,-0.4 -1,-0.7 -1,-0.7 0,0 0.4,0 1.2,-0.1 0.8,-0.1 1.9,-0.2 3.3,-0.5 0.7,-0.2 1.5,-0.3 2.3,-0.4 0.8,-0.1 1.7,-0.4 2.5,-0.7 0.9,-0.2 1.8,-0.6 2.8,-0.9 1,-0.3 1.9,-0.8 2.9,-1.2 0.5,-0.2 1,-0.5 1.5,-0.7 0.5,-0.3 1,-0.5 1.5,-0.8 0.5,-0.3 0.9,-0.6 1.4,-0.9 0.5,-0.3 1,-0.6 1.4,-1 0.5,-0.4 0.9,-0.7 1.4,-1.1 0.5,-0.4 0.9,-0.8 1.3,-1.2 l 0.7,-0.6 0.6,-0.7 c 0.4,-0.5 0.9,-0.9 1.2,-1.3 1.6,-1.9 3,-4 4.1,-6.2 0.3,-0.6 0.5,-1.1 0.8,-1.7 0.3,-0.6 0.4,-1.2 0.7,-1.8 l 0.3,-0.9 0.2,-0.8 0.2,-0.8 0.1,-0.4 0.1,-0.2 0.1,-0.3 0.5,-2.4 0.1,-0.3 v -0.1 -0.1 c 0.1,-0.3 -0.1,0.4 0,0.3 v 0 l 0.1,-0.6 0.2,-1.1 c 0.2,-1.5 0.4,-3 0.7,-4.5 0.4,-3 0.7,-5.8 0.9,-8.5 0.2,-2.7 0.3,-5.4 0.2,-8 0,-2.6 -0.1,-5.2 -0.3,-7.6 -0.2,-4.8 -0.3,-8.9 -0.3,-11.8 -0.1,-3.1 0.1,-4.8 0.1,-4.8 z"
   class="st6"
   id="XMLID_60_" />
	</g>
	<g
   style="fill:#ff0000"
   id="XMLID_65_">
		<path
   style="fill:#ff0000"
   inkscape:connector-curvature="0"
   d="m 545.7,365.3 c 0,0 1.2,2.1 3,5.8 0.9,1.9 2,4.2 3.1,6.9 1.1,2.7 2.3,5.8 3.3,9.3 1,3.5 1.9,7.6 2.2,11.9 0.3,4.3 0.2,8.8 -0.1,13.3 l -0.1,0.8 v 0.4 l -0.1,0.7 c -0.1,0.5 -0.1,1.1 -0.2,1.7 l -0.1,0.8 -0.1,0.4 -0.1,0.5 c -0.2,0.7 -0.3,1.4 -0.5,2.1 -0.3,1.5 -0.9,2.7 -1.3,4 l -0.4,1 -0.5,0.9 -0.9,1.9 c -2.6,4.9 -6.5,9.3 -11.1,12.6 -4.6,3.3 -10,5.5 -15.5,6.4 -0.7,0.2 -1.4,0.2 -2.1,0.3 l -2.1,0.2 c -1.4,0.1 -2.7,0 -4.1,0 -1.4,-0.1 -2.7,-0.3 -4,-0.5 h -0.1 l -0.4,-0.1 h -0.1 -0.2 l -0.4,-0.1 -0.8,-0.2 c -0.5,-0.1 -1.1,-0.3 -1.6,-0.4 -1.3,-0.4 -2.7,-0.9 -3.9,-1.3 -1.2,-0.5 -2.3,-1.1 -3.4,-1.6 -1.1,-0.6 -2.1,-1.3 -3.1,-1.9 -1,-0.7 -1.9,-1.4 -2.8,-2.2 -3.6,-3 -6.2,-6.6 -8.1,-10.1 -1.8,-3.5 -2.9,-7 -3.3,-10.1 -0.1,-0.4 -0.1,-0.8 -0.2,-1.1 0,-0.4 -0.1,-0.7 -0.1,-1.1 -0.1,-0.7 -0.1,-1.4 -0.1,-2.1 0,-1.3 0.1,-2.5 0.2,-3.6 0.2,-1.1 0.3,-2 0.5,-2.8 0.2,-0.8 0.4,-1.5 0.6,-2 0.4,-1.1 0.5,-1.6 0.5,-1.6 0,0 0.1,0.6 0.3,1.7 0.1,0.5 0.1,1.2 0.3,2 0.2,0.8 0.4,1.6 0.6,2.6 0.3,0.9 0.6,2 1,3.1 0.2,0.5 0.5,1.1 0.7,1.7 0.1,0.3 0.2,0.6 0.4,0.9 0.1,0.3 0.3,0.6 0.5,0.9 0.3,0.6 0.6,1.2 0.9,1.8 0.4,0.6 0.8,1.2 1.2,1.8 0.4,0.6 0.9,1.2 1.3,1.8 0.2,0.3 0.5,0.6 0.7,0.9 0.2,0.3 0.5,0.6 0.8,0.8 2.1,2.3 4.6,4.4 7.5,6.1 0.8,0.4 1.5,0.8 2.3,1.2 0.8,0.3 1.6,0.6 2.4,1 0.8,0.2 1.7,0.5 2.5,0.8 0.8,0.1 1.5,0.3 2.3,0.5 0.5,0.1 1.1,0.1 1.6,0.2 l 0.8,0.1 0.4,0.1 h 0.2 0.1 c -0.6,-0.1 -0.1,0 -0.3,0 h 0.1 c 0.9,0 1.8,0 2.7,0 0.9,-0.1 1.8,-0.1 2.7,-0.2 l 1.3,-0.2 c 0.4,-0.1 0.9,-0.1 1.3,-0.3 3.5,-0.8 6.9,-2.3 9.9,-4.5 3,-2.1 5.6,-4.8 7.4,-7.9 l 0.7,-1.2 0.3,-0.6 0.3,-0.6 c 0.4,-0.8 0.8,-1.7 1,-2.4 0.1,-0.4 0.3,-0.7 0.4,-1.1 l 0.1,-0.3 0.1,-0.4 0.2,-0.8 c 0.1,-0.5 0.3,-1.1 0.4,-1.6 v -0.2 -0.1 -0.1 c 0,-0.3 -0.1,0.3 0,0.3 l 0.1,-0.4 0.1,-0.8 c 0.8,-4.2 1.5,-8.1 1.9,-11.8 0.4,-3.7 0.5,-7.2 0.3,-10.6 -0.1,-3.4 -0.3,-6.5 -0.6,-9.4 -0.2,-2.9 -0.4,-5.4 -0.6,-7.4 -0.1,-4.1 -0.1,-6.5 -0.1,-6.5 z"
   class="st6"
   id="XMLID_58_" />
	</g>
	<g
   style="fill:#ff0000"
   id="XMLID_28_">
		<path
   style="fill:#ff0000"
   inkscape:connector-curvature="0"
   d="m 514.8,397.8 c 0,0 -1.4,1 -3.9,2.5 -2.5,1.5 -6.2,3.5 -10.8,5.5 -2.3,1 -4.9,1.9 -7.7,2.8 -2.9,0.8 -6,1.5 -9.3,1.8 -3.3,0.3 -6.7,0.4 -10.1,0.2 -1.7,-0.1 -3.4,-0.2 -5,-0.4 l -1.2,-0.1 -0.6,-0.1 -0.6,-0.1 -0.3,-0.1 -2.4,-0.4 -0.3,-0.1 -0.4,-0.1 -0.8,-0.2 -1.5,-0.4 c -0.5,-0.2 -1,-0.3 -1.5,-0.5 l -1.4,-0.6 c -0.9,-0.4 -1.8,-0.7 -2.7,-1.2 -0.8,-0.5 -1.7,-0.9 -2.5,-1.4 -3.2,-2.1 -6.1,-4.6 -8.4,-7.4 -0.6,-0.7 -1.1,-1.4 -1.6,-2.2 -0.3,-0.4 -0.5,-0.7 -0.8,-1.1 -0.2,-0.4 -0.4,-0.8 -0.6,-1.1 -0.4,-0.8 -0.8,-1.5 -1.2,-2.2 -0.3,-0.8 -0.7,-1.5 -1,-2.3 -0.3,-0.7 -0.6,-1.5 -0.8,-2.3 -0.2,-0.8 -0.5,-1.5 -0.6,-2.2 -0.1,-0.7 -0.3,-1.5 -0.4,-2.2 -0.1,-0.7 -0.3,-1.4 -0.3,-2.1 -0.1,-1.4 -0.2,-2.7 -0.1,-3.9 0.1,-1.2 0.1,-2.4 0.4,-3.5 0.1,-0.5 0.2,-1 0.3,-1.5 0.1,-0.5 0.2,-1 0.4,-1.4 0.3,-0.9 0.6,-1.7 0.8,-2.4 0.5,-1.4 1.1,-2.5 1.5,-3.1 0.4,-0.7 0.7,-1 0.7,-1 0,0 0,0.4 0.1,1.2 0.1,0.8 0.2,1.9 0.5,3.3 0.2,0.7 0.3,1.5 0.4,2.3 0.1,0.8 0.4,1.7 0.7,2.5 0.2,0.9 0.6,1.8 0.9,2.8 0.3,1 0.8,1.9 1.2,2.9 0.2,0.5 0.5,1 0.7,1.5 0.3,0.5 0.5,1 0.8,1.5 0.3,0.5 0.6,0.9 0.9,1.4 0.3,0.5 0.6,1 1,1.4 0.4,0.5 0.7,0.9 1.1,1.4 0.4,0.5 0.8,0.9 1.2,1.3 l 0.6,0.7 0.7,0.6 c 0.5,0.4 0.9,0.9 1.3,1.2 1.9,1.6 4,3 6.2,4.1 0.6,0.3 1.1,0.5 1.7,0.8 0.6,0.3 1.2,0.4 1.8,0.7 l 0.9,0.3 0.8,0.2 0.8,0.2 0.4,0.1 0.2,0.1 0.3,0.1 2.4,0.5 0.3,0.1 h 0.1 0.1 c 0.3,0.1 -0.4,-0.1 -0.3,0 v 0 l 0.6,0.1 1.1,0.2 c 1.5,0.2 3,0.4 4.5,0.7 3,0.4 5.8,0.7 8.5,0.9 2.7,0.2 5.4,0.3 8,0.2 2.6,0 5.2,-0.1 7.6,-0.3 4.8,-0.2 8.9,-0.3 11.8,-0.3 3.1,-0.1 4.8,0.1 4.8,0.1 z"
   class="st6"
   id="XMLID_56_" />
	</g>
	<g
   style="fill:#ff0000"
   id="XMLID_27_">
		<path
   style="fill:#ff0000"
   inkscape:connector-curvature="0"
   d="m 472.5,356.5 c 0,0 -1.4,1 -3.9,2.5 -2.5,1.5 -6.2,3.5 -10.8,5.5 -2.3,1 -4.9,1.9 -7.7,2.8 -2.9,0.8 -6,1.5 -9.3,1.8 -3.3,0.3 -6.7,0.4 -10.1,0.2 -1.7,-0.1 -3.4,-0.2 -5,-0.4 l -1.2,-0.1 -0.6,-0.1 -0.6,-0.1 -0.3,-0.1 -2.4,-0.4 -0.3,-0.1 -0.4,-0.1 -0.8,-0.2 -1.5,-0.4 c -0.5,-0.2 -1,-0.3 -1.5,-0.5 l -1.4,-0.6 c -0.9,-0.4 -1.8,-0.7 -2.7,-1.2 -0.8,-0.5 -1.7,-0.9 -2.5,-1.4 -3.2,-2.1 -6.1,-4.6 -8.4,-7.4 -0.6,-0.7 -1.1,-1.4 -1.6,-2.2 -0.3,-0.4 -0.5,-0.7 -0.8,-1.1 -0.2,-0.4 -0.4,-0.8 -0.6,-1.1 -0.4,-0.8 -0.8,-1.5 -1.2,-2.2 -0.3,-0.8 -0.7,-1.5 -1,-2.3 -0.3,-0.7 -0.6,-1.5 -0.8,-2.3 -0.2,-0.8 -0.5,-1.5 -0.6,-2.2 -0.1,-0.7 -0.3,-1.5 -0.4,-2.2 -0.1,-0.7 -0.3,-1.4 -0.3,-2.1 -0.1,-1.4 -0.2,-2.7 -0.1,-3.9 0.1,-1.2 0.1,-2.4 0.4,-3.5 0.1,-0.5 0.2,-1 0.3,-1.5 0.1,-0.5 0.2,-1 0.4,-1.4 0.3,-0.9 0.6,-1.7 0.8,-2.4 0.5,-1.4 1.1,-2.5 1.5,-3.1 0.4,-0.7 0.7,-1 0.7,-1 0,0 0,0.4 0.1,1.2 0.1,0.8 0.2,1.9 0.5,3.3 0.2,0.7 0.3,1.5 0.4,2.3 0.1,0.8 0.4,1.7 0.7,2.5 0.2,0.9 0.6,1.8 0.9,2.8 0.3,1 0.8,1.9 1.2,2.9 0.2,0.5 0.5,1 0.7,1.5 0.3,0.5 0.5,1 0.8,1.5 0.3,0.5 0.6,0.9 0.9,1.4 0.3,0.5 0.6,1 1,1.4 0.4,0.5 0.7,0.9 1.1,1.4 0.4,0.5 0.8,0.9 1.2,1.3 l 0.6,0.7 0.7,0.6 c 0.5,0.4 0.9,0.9 1.3,1.2 1.9,1.6 4,3 6.2,4.1 0.6,0.3 1.1,0.5 1.7,0.8 0.6,0.3 1.2,0.4 1.8,0.7 l 0.9,0.3 0.8,0.2 0.8,0.2 0.4,0.1 0.2,0.1 0.3,0.1 2.4,0.5 0.3,0.1 h 0.1 0.1 c 0.3,0.1 -0.4,-0.1 -0.3,0 v 0 l 0.6,0.1 1.1,0.2 c 1.5,0.2 3,0.4 4.5,0.7 3,0.4 5.8,0.7 8.5,0.9 2.7,0.2 5.4,0.3 8,0.2 2.6,0 5.2,-0.1 7.6,-0.3 4.8,-0.2 8.9,-0.3 11.8,-0.3 3.1,0 4.8,0.1 4.8,0.1 z"
   class="st6"
   id="XMLID_54_" />
	</g>
	<g
   style="fill:#ff0000"
   id="XMLID_26_">
		<path
   style="fill:#ff0000"
   inkscape:connector-curvature="0"
   d="m 428.7,318.9 c 0,0 -0.6,0.2 -1.6,0.6 -1.1,0.4 -2.6,1 -4.7,1.6 -2,0.7 -4.5,1.4 -7.3,2.2 -2.9,0.8 -6.1,1.5 -9.9,2 -1.9,0.3 -3.8,0.4 -5.9,0.6 -2.1,0.1 -4.2,0.1 -6.4,-0.1 -4.4,-0.3 -8.9,-1 -13.4,-2 l -0.4,-0.1 -0.6,-0.1 -0.8,-0.2 -0.4,-0.1 -0.5,-0.2 -1,-0.3 c -1.4,-0.5 -2.6,-0.9 -3.9,-1.5 -2.5,-1.1 -4.9,-2.6 -7.2,-4.3 -4.5,-3.4 -8.2,-8.1 -10.7,-13.3 -1.2,-2.6 -2.2,-5.4 -2.8,-8.2 -0.6,-2.8 -0.9,-5.7 -0.8,-8.5 0,-2.8 0.4,-5.6 1.1,-8.3 0.2,-0.7 0.4,-1.3 0.5,-2 l 0.1,-0.2 0.1,-0.2 v -0.1 -0.1 l 0.1,-0.4 0.3,-0.8 0.2,-0.5 0.2,-0.5 0.4,-1 c 0.3,-0.7 0.6,-1.2 0.9,-1.8 1.3,-2.4 2.8,-4.6 4.5,-6.5 1.7,-1.9 3.5,-3.6 5.4,-5 3.8,-2.8 7.7,-4.7 11.5,-5.9 3.8,-1.2 7.4,-1.6 10.5,-1.7 3.1,0 5.8,0.4 8,0.9 2.1,0.5 3.7,1.2 4.8,1.6 1,0.5 1.6,0.8 1.6,0.8 0,0 -0.6,0 -1.7,0 -1.1,0 -2.8,0.1 -4.8,0.3 -2,0.3 -4.4,0.7 -7,1.6 -2.6,0.8 -5.4,2 -8.1,3.7 -2.8,1.7 -5.5,3.8 -7.8,6.4 -1.2,1.3 -2.3,2.7 -3.2,4.2 -0.9,1.5 -1.7,3.1 -2.4,4.7 -0.1,0.4 -0.3,0.8 -0.4,1.2 l -0.3,1.1 -0.2,0.8 -0.1,0.4 v 0.1 0.1 c -0.1,0.2 0.1,-0.2 0,-0.1 v 0.2 c -0.1,0.5 -0.2,0.9 -0.2,1.4 -0.3,1.8 -0.3,3.7 -0.3,5.5 0.2,3.7 1.1,7.4 2.8,10.7 1.6,3.4 4,6.3 6.7,8.8 1.4,1.2 2.9,2.3 4.5,3.2 0.8,0.4 1.6,0.9 2.4,1.2 l 0.5,0.2 0.3,0.1 0.4,0.1 0.8,0.3 0.2,0.1 h 0.1 c -0.1,0 0.2,0.1 -0.1,0 v 0 l 0.4,0.1 c 4.1,1.4 8,2.6 11.7,3.5 3.7,0.9 7.2,1.5 10.6,1.8 3.4,0.4 6.6,0.5 9.5,0.7 2.9,0.2 5.5,0.3 7.5,0.4 2.1,0.1 3.8,0.3 4.9,0.4 0.8,0.3 1.4,0.4 1.4,0.4 z"
   class="st6"
   id="XMLID_52_" />
	</g>
	<g
   style="fill:#ff0000"
   id="XMLID_25_">
		<path
   style="fill:#ff0000"
   inkscape:connector-curvature="0"
   d="m 586.9,323 c 0,0 1,1.4 2.5,3.9 1.5,2.5 3.5,6.2 5.5,10.8 1,2.3 1.9,4.9 2.8,7.7 0.8,2.9 1.5,6 1.8,9.3 0.3,3.3 0.4,6.7 0.2,10.1 -0.1,1.7 -0.2,3.4 -0.4,5 l -0.1,1.2 -0.1,0.6 -0.1,0.6 -0.1,0.3 -0.4,2.4 -0.1,0.3 -0.1,0.4 -0.2,0.8 -0.4,1.5 c -0.2,0.5 -0.3,1 -0.5,1.5 l -0.6,1.4 c -0.4,0.9 -0.7,1.8 -1.2,2.7 -0.5,0.8 -0.9,1.7 -1.4,2.5 -2.1,3.2 -4.6,6.1 -7.4,8.4 -0.7,0.6 -1.4,1.1 -2.2,1.6 -0.4,0.3 -0.7,0.5 -1.1,0.8 -0.4,0.2 -0.8,0.4 -1.1,0.6 -0.8,0.4 -1.5,0.8 -2.2,1.2 -0.8,0.3 -1.5,0.7 -2.3,1 -0.7,0.3 -1.5,0.6 -2.3,0.8 -0.8,0.2 -1.5,0.5 -2.2,0.6 -0.7,0.1 -1.5,0.3 -2.2,0.4 -0.7,0.1 -1.4,0.3 -2.1,0.3 -1.4,0.1 -2.7,0.2 -3.9,0.1 -1.2,-0.1 -2.4,-0.1 -3.5,-0.4 -0.5,-0.1 -1,-0.2 -1.5,-0.3 -0.5,-0.1 -1,-0.2 -1.4,-0.4 -0.9,-0.3 -1.7,-0.6 -2.4,-0.8 -1.4,-0.5 -2.5,-1.1 -3.1,-1.5 -0.7,-0.4 -1,-0.7 -1,-0.7 0,0 0.4,0 1.2,-0.1 0.8,-0.1 1.9,-0.2 3.3,-0.5 0.7,-0.2 1.5,-0.3 2.3,-0.4 0.8,-0.1 1.7,-0.4 2.5,-0.7 0.9,-0.2 1.8,-0.6 2.8,-0.9 1,-0.3 1.9,-0.8 2.9,-1.2 0.5,-0.2 1,-0.5 1.5,-0.7 0.5,-0.3 1,-0.5 1.5,-0.8 0.5,-0.3 0.9,-0.6 1.4,-0.9 0.5,-0.3 1,-0.6 1.4,-1 0.5,-0.4 0.9,-0.7 1.4,-1.1 0.5,-0.4 0.9,-0.8 1.3,-1.2 l 0.7,-0.6 0.6,-0.7 c 0.4,-0.5 0.9,-0.9 1.2,-1.3 1.6,-1.9 3,-4 4.1,-6.2 0.3,-0.6 0.5,-1.1 0.8,-1.7 0.3,-0.6 0.4,-1.2 0.7,-1.8 l 0.3,-0.9 0.2,-0.8 0.2,-0.8 0.1,-0.4 0.1,-0.2 0.1,-0.3 0.5,-2.4 0.1,-0.3 v -0.1 -0.1 c 0.1,-0.3 -0.1,0.4 0,0.3 v 0 l 0.1,-0.6 0.2,-1.1 c 0.2,-1.5 0.4,-3 0.7,-4.5 0.4,-3 0.7,-5.8 0.9,-8.5 0.2,-2.7 0.3,-5.4 0.2,-8 0,-2.6 -0.1,-5.2 -0.3,-7.6 -0.2,-4.8 -0.3,-8.9 -0.3,-11.8 0,-3.1 0.1,-4.8 0.1,-4.8 z"
   class="st6"
   id="XMLID_50_" />
	</g>
	<g
   style="fill:#ff0000"
   id="XMLID_24_">
		<path
   style="fill:#ff0000"
   inkscape:connector-curvature="0"
   d="m 521.7,168.2 c 0,0 1.4,-1 3.9,-2.5 2.5,-1.5 6.2,-3.5 10.8,-5.5 2.3,-1 4.9,-1.9 7.7,-2.8 2.9,-0.8 6,-1.5 9.3,-1.8 3.3,-0.3 6.7,-0.4 10.1,-0.2 1.7,0.1 3.4,0.2 5,0.4 l 1.2,0.1 0.6,0.1 0.6,0.1 0.3,0.1 2.4,0.4 0.3,0.1 0.4,0.1 0.8,0.2 1.5,0.4 c 0.5,0.2 1,0.3 1.5,0.5 l 1.4,0.6 c 0.9,0.4 1.8,0.7 2.7,1.2 0.8,0.5 1.7,0.9 2.5,1.4 3.2,2.1 6.1,4.6 8.4,7.4 0.6,0.7 1.1,1.4 1.6,2.2 0.3,0.4 0.5,0.7 0.8,1.1 0.2,0.4 0.4,0.8 0.6,1.1 0.4,0.8 0.8,1.5 1.2,2.2 0.3,0.8 0.7,1.5 1,2.3 0.3,0.7 0.6,1.5 0.8,2.3 0.2,0.8 0.5,1.5 0.6,2.2 0.1,0.7 0.3,1.5 0.4,2.2 0.1,0.7 0.3,1.4 0.3,2.1 0.1,1.4 0.2,2.7 0.1,3.9 -0.1,1.2 -0.1,2.4 -0.4,3.5 -0.1,0.5 -0.2,1 -0.3,1.5 -0.1,0.5 -0.2,1 -0.4,1.4 -0.3,0.9 -0.6,1.7 -0.8,2.4 -0.5,1.4 -1.1,2.5 -1.5,3.1 -0.4,0.7 -0.7,1 -0.7,1 0,0 0,-0.4 -0.1,-1.2 -0.1,-0.8 -0.2,-1.9 -0.5,-3.3 -0.2,-0.7 -0.3,-1.5 -0.4,-2.3 -0.1,-0.8 -0.4,-1.7 -0.7,-2.5 -0.2,-0.9 -0.6,-1.8 -0.9,-2.8 -0.3,-1 -0.8,-1.9 -1.2,-2.9 -0.2,-0.5 -0.5,-1 -0.7,-1.5 -0.3,-0.5 -0.5,-1 -0.8,-1.5 -0.3,-0.5 -0.6,-0.9 -0.9,-1.4 -0.3,-0.5 -0.6,-1 -1,-1.4 -0.4,-0.5 -0.7,-0.9 -1.1,-1.4 -0.4,-0.5 -0.8,-0.9 -1.2,-1.3 l -0.6,-0.7 -0.7,-0.6 c -0.5,-0.4 -0.9,-0.9 -1.3,-1.2 -1.9,-1.6 -4,-3 -6.2,-4.1 -0.6,-0.3 -1.1,-0.5 -1.7,-0.8 -0.6,-0.3 -1.2,-0.4 -1.8,-0.7 l -0.9,-0.3 -0.8,-0.2 -0.8,-0.2 -0.4,-0.1 -0.2,-0.1 -0.3,-0.1 -2.4,-0.5 -0.3,-0.1 h -0.1 -0.1 c -0.3,-0.1 0.4,0.1 0.3,0 v 0 l -0.6,-0.1 -1.1,-0.2 c -1.5,-0.2 -3,-0.4 -4.5,-0.7 -3,-0.4 -5.8,-0.7 -8.5,-0.9 -2.7,-0.2 -5.4,-0.3 -8,-0.2 -2.6,0 -5.2,0.1 -7.6,0.3 -4.8,0.2 -8.9,0.3 -11.8,0.3 -3.1,0 -4.8,-0.1 -4.8,-0.1 z"
   class="st6"
   id="XMLID_48_" />
	</g>
	<g
   style="fill:#ff0000"
   id="XMLID_23_">
		<path
   style="fill:#ff0000"
   inkscape:connector-curvature="0"
   d="m 638.5,244.3 c 0,0 0,-0.4 -0.1,-1.2 -0.1,-0.8 -0.2,-2 -0.5,-3.3 -0.1,-0.7 -0.3,-1.5 -0.4,-2.4 -0.1,-0.4 -0.2,-0.9 -0.3,-1.3 -0.1,-0.4 -0.2,-0.8 -0.4,-1.3 -0.2,-0.8 -0.6,-1.8 -0.9,-2.7 -0.3,-1 -0.8,-1.9 -1.2,-2.9 -0.4,-1 -1,-1.9 -1.5,-2.9 -0.3,-0.5 -0.6,-1 -0.9,-1.4 -0.3,-0.5 -0.6,-1 -1,-1.4 -1.3,-1.9 -3.1,-3.6 -4.9,-5.3 -1.9,-1.6 -4,-3 -6.2,-4.1 -2.2,-1.1 -4.6,-2 -7.1,-2.6 -2.2,-0.5 -5.8,-1 -8.6,-1.4 -3,-0.4 -5.8,-0.7 -8.5,-0.9 -2.7,-0.2 -5.4,-0.3 -8,-0.2 -1.3,0 -2.6,0.1 -3.9,0.1 -1.3,0 -2.5,0.1 -3.7,0.1 -4.8,0.2 -8.9,0.3 -11.9,0.3 -2.9,0 -4.6,-0.2 -4.6,-0.2 0,0 1.4,-1 3.9,-2.5 1.3,-0.7 2.8,-1.6 4.6,-2.6 1.8,-0.9 3.9,-1.9 6.2,-2.9 2.3,-1 4.9,-1.9 7.7,-2.8 2.9,-0.8 6,-1.5 9.3,-1.8 3.3,-0.3 6.7,-0.4 10.1,-0.2 0.8,0 1.7,0.1 2.5,0.2 0.9,0.1 1.7,0.1 2.5,0.2 1.4,0.1 3.6,0.5 5.5,0.9 3.8,0.9 7.5,2.4 10.8,4.5 3.2,2.1 6.1,4.6 8.4,7.4 0.6,0.7 1.1,1.4 1.6,2.2 0.3,0.4 0.5,0.7 0.8,1.1 0.2,0.4 0.4,0.8 0.6,1.1 0.4,0.8 0.8,1.5 1.2,2.2 0.3,0.8 0.7,1.5 1,2.3 0.3,0.7 0.6,1.5 0.8,2.3 0.2,0.8 0.5,1.5 0.6,2.2 0.1,0.7 0.3,1.5 0.4,2.2 0.1,0.7 0.2,1.4 0.3,2.1 0.1,1.4 0.2,2.7 0.1,3.9 -0.1,1.2 -0.1,2.4 -0.4,3.5 -0.1,0.5 -0.2,1.1 -0.3,1.6 -0.1,0.3 -0.1,0.5 -0.2,0.7 -0.1,0.2 -0.1,0.4 -0.2,0.6 -0.3,0.8 -0.6,1.6 -0.8,2.3 -0.3,0.8 -0.6,1.3 -0.8,1.9 -0.3,0.5 -0.5,1 -0.7,1.3 -0.6,0.8 -0.9,1.1 -0.9,1.1 z"
   class="st6"
   id="XMLID_46_" />
	</g>
</g><circle
     style="fill:#002559"
     r="32"
     cy="291.43594"
     cx="417.52634"
     class="st4"
     id="XMLID_109_" /><circle
     style="fill:#ffffff"
     id="circle84"
     r="5.5999999"
     cy="43.735943"
     cx="368.92636"
     class="st8" /><circle
     style="fill:#ffffff"
     id="circle86"
     r="5.5999999"
     cy="43.735943"
     cx="234.92636"
     class="st8" /></g>
<g
   aria-label="berry"
   transform="matrix(2.2863685,0,0,2.3401479,-701.74872,-260.69646)"
   style="font-style:normal;font-weight:normal;font-size:40px;line-height:1.25;font-family:sans-serif;letter-spacing:0px;word-spacing:0px;opacity:1;fill:#ff8594;fill-opacity:1;stroke:none;filter:url(#filter1283)"
   id="flowRoot912"><path
     d="m 637.47859,82.00172 q 13.824,0 24.96,6.912 11.328,6.912 17.664,19.2 6.528,12.096 6.528,27.072 0,14.976 -6.912,27.264 -6.912,12.096 -19.2,19.2 -12.096,6.912 -26.88,6.912 -14.784,0 -26.88,-6.912 -11.904,-7.104 -19.008,-19.2 -6.912,-12.288 -6.912,-27.264 v -87.552 q 0,-4.416 2.688,-7.104 2.88,-2.688 7.104,-2.688 4.416,0 7.104,2.688 2.688,2.688 2.688,7.104 v 51.84 q 6.72,-8.256 16.32,-12.864 9.6,-4.608 20.736,-4.608 z m -3.84,89.28 q 9.6,0 17.28,-4.608 7.872,-4.8 12.288,-13.056 4.608,-8.256 4.608,-18.432 0,-10.176 -4.608,-18.24 -4.416,-8.256 -12.288,-12.864 -7.68,-4.8 -17.28,-4.8 -9.6,0 -17.472,4.8 -7.68,4.608 -12.096,12.864 -4.416,8.064 -4.416,18.24 0,10.176 4.416,18.432 4.416,8.256 12.096,13.056 7.872,4.608 17.472,4.608 z"
     style="font-style:normal;font-variant:normal;font-weight:bold;font-stretch:normal;font-size:192px;font-family:Comfortaa;-inkscape-font-specification:'Comfortaa, Bold';font-variant-ligatures:normal;font-variant-caps:normal;font-variant-numeric:normal;font-feature-settings:normal;text-align:start;writing-mode:lr-tb;text-anchor:start;fill:#ff8594;fill-opacity:1"
     id="path1144"
     inkscape:connector-curvature="0" /><path
     d="m 810.08642,133.64972 q 0,3.648 -2.496,6.144 -2.496,2.304 -6.336,2.304 h -72.96 q 2.112,13.44 12.096,21.696 10.176,8.256 24.768,8.256 5.76,0 11.904,-2.112 6.336,-2.112 10.368,-5.184 2.688,-2.112 6.336,-2.112 3.648,0 5.76,1.92 3.456,2.88 3.456,6.528 0,3.456 -3.072,5.76 -6.528,5.184 -16.32,8.448 -9.6,3.264 -18.432,3.264 -15.744,0 -28.224,-6.72 -12.48,-6.912 -19.584,-19.008 -6.912,-12.096 -6.912,-27.456 0,-15.36 6.528,-27.456 6.72,-12.288 18.432,-19.008 11.904,-6.912 26.88,-6.912 14.784,0 25.536,6.528 10.752,6.528 16.512,18.24 5.76,11.712 5.76,26.88 z m -47.808,-35.136 q -14.016,0 -22.848,7.68 -8.64,7.68 -10.944,20.544 h 63.936 q -1.728,-12.864 -9.6,-20.544 -7.872,-7.68 -20.544,-7.68 z"
     style="font-style:normal;font-variant:normal;font-weight:bold;font-stretch:normal;font-size:192px;font-family:Comfortaa;-inkscape-font-specification:'Comfortaa, Bold';font-variant-ligatures:normal;font-variant-caps:normal;font-variant-numeric:normal;font-feature-settings:normal;text-align:start;writing-mode:lr-tb;text-anchor:start;fill:#ff8594;fill-opacity:1"
     id="path1146"
     inkscape:connector-curvature="0" /><path
     d="m 886.50211,81.61772 q 10.176,0 15.936,3.072 5.76,3.072 5.76,7.68 0,1.344 -0.192,1.92 -1.728,6.144 -7.68,6.144 -0.96,0 -2.88,-0.384 -7.68,-1.344 -12.48,-1.344 -13.824,0 -22.272,6.336 -8.448,6.336 -8.448,17.088 v 56.064 q 0,4.608 -2.496,7.104 -2.304,2.496 -7.104,2.496 -4.608,0 -7.104,-2.304 -2.496,-2.496 -2.496,-7.296 v -85.824 q 0,-4.608 2.496,-7.104 2.496,-2.496 7.104,-2.496 9.6,0 9.6,9.6 v 3.648 q 5.76,-6.72 14.208,-10.56 8.448,-3.84 18.048,-3.84 z"
     style="font-style:normal;font-variant:normal;font-weight:bold;font-stretch:normal;font-size:192px;font-family:Comfortaa;-inkscape-font-specification:'Comfortaa, Bold';font-variant-ligatures:normal;font-variant-caps:normal;font-variant-numeric:normal;font-feature-settings:normal;text-align:start;writing-mode:lr-tb;text-anchor:start;fill:#ff8594;fill-opacity:1"
     id="path1148"
     inkscape:connector-curvature="0" /><path
     d="m 979.81376,81.61772 q 10.176,0 15.936,3.072 5.76004,3.072 5.76004,7.68 0,1.344 -0.192,1.92 -1.72804,6.144 -7.68004,6.144 -0.96,0 -2.88,-0.384 -7.68,-1.344 -12.48,-1.344 -13.824,0 -22.272,6.336 -8.448,6.336 -8.448,17.088 v 56.064 q 0,4.608 -2.496,7.104 -2.304,2.496 -7.104,2.496 -4.608,0 -7.104,-2.304 -2.496,-2.496 -2.496,-7.296 v -85.824 q 0,-4.608 2.496,-7.104 2.496,-2.496 7.104,-2.496 9.6,0 9.6,9.6 v 3.648 q 5.76,-6.72 14.208,-10.56 8.448,-3.84 18.048,-3.84 z"
     style="font-style:normal;font-variant:normal;font-weight:bold;font-stretch:normal;font-size:192px;font-family:Comfortaa;-inkscape-font-specification:'Comfortaa, Bold';font-variant-ligatures:normal;font-variant-caps:normal;font-variant-numeric:normal;font-feature-settings:normal;text-align:start;writing-mode:lr-tb;text-anchor:start;fill:#ff8594;fill-opacity:1"
     id="path1150"
     inkscape:connector-curvature="0" /><path
     d="m 1101.9254,83.72972 q 5.952,2.304 5.952,7.488 0,1.92 -1.152,4.608 l -58.752,132.096 q -2.304,5.952 -7.488,5.952 -1.92,0 -4.608,-1.152 -5.76,-2.496 -5.76,-7.488 0,-2.304 1.152,-4.608 l 19.2,-43.2 -43.2,-81.984 q -0.96,-1.728 -0.96,-4.032 0,-2.496 1.536,-4.608 1.536,-2.112 4.032,-3.264 1.728,-0.768 3.84,-0.768 5.376,0 8.064,5.376 l 35.136,69.888 30.912,-69.696 q 2.496,-5.568 7.488,-5.568 2.496,0 4.608,0.96 z"
     style="font-style:normal;font-variant:normal;font-weight:bold;font-stretch:normal;font-size:192px;font-family:Comfortaa;-inkscape-font-specification:'Comfortaa, Bold';font-variant-ligatures:normal;font-variant-caps:normal;font-variant-numeric:normal;font-feature-settings:normal;text-align:start;writing-mode:lr-tb;text-anchor:start;fill:#ff8594;fill-opacity:1"
     id="path1152"
     inkscape:connector-curvature="0" /></g></svg>