<?xml version="1.0" encoding="utf-8"?>
<!-- Generator: Adobe Illustrator 19.0.0, SVG Export Plug-In . SVG Version: 6.00 Build 0)  -->
<svg version="1.1" id="Layer_1" xmlns="http://www.w3.org/2000/svg" xmlns:xlink="http://www.w3.org/1999/xlink" x="0px" y="0px"
	 viewBox="20 -220 1000 1000" style="enable-background:new 20 -220 1000 1000;" xml:space="preserve">
<style type="text/css">
	.st0{display:none;}
	.st1{fill:none;stroke:#4D4D4D;stroke-width:4;stroke-miterlimit:10;}
	.st2{fill:#FF8594;}
	.st3{fill:#FFFFFF;stroke:#FF1B53;stroke-width:5;stroke-miterlimit:10;}
	.st4{fill:#002559;}
	.st5{fill:none;stroke:#FF8594;stroke-width:5;stroke-miterlimit:10;}
	.st6{fill:#FF1B53;}
	.st7{display:none;fill:#FFF1F1;}
	.st8{fill:#FFFFFF;}
</style>
<g id="Layer_1_1_" class="st0">
	
		<image style="display:inline;overflow:visible;enable-background:new    ;" width="1273" height="716" id="XMLID_2_" xlink:href="1508CEED.jpeg"  transform="matrix(1.1994 0 0 1.1995 -123.7094 -160.9144)">
	</image>
</g>
<g id="Layer_2">
	
		<ellipse id="XMLID_4_" transform="matrix(0.7071 0.7071 -0.7071 0.7071 350.2964 -285.6902)" class="st1" cx="520" cy="280" rx="373.7" ry="108.5"/>
	
		<ellipse id="XMLID_5_" transform="matrix(0.7071 -0.7071 0.7071 0.7071 -45.6806 449.7037)" class="st1" cx="520" cy="280" rx="373.7" ry="108.5"/>
</g>
<polygon id="XMLID_29_" class="st2" points="385.4,283.2 409.1,258.5 434.5,210 485.4,161.3 550.2,161.8 599.3,204.1 641.9,247.2 
	637.5,311.3 596.4,354.9 555.1,397.8 486.7,406 443.5,364.8 404.1,323.7 "/>
<g id="XMLID_32_">
	<g id="XMLID_10_">
		<path id="XMLID_114_" class="st2" d="M602.9,248.6c24.2-3.3,30.9-3.5,48.1,1.2c17.1,4.7,27.2,22.4,22.5,39.5s-22.4,27.2-39.5,22.5
			"/>
		<path id="XMLID_113_" class="st2" d="M602.9,248.6c0,0,2.2-0.9,6.2-2.2c2-0.7,4.4-1.4,7.2-2.2c2.8-0.8,6-1.5,9.7-2
			c3.6-0.5,7.8-0.8,12.1-0.6c4.3,0.3,8.8,0.9,13.2,1.9l0.8,0.2l0.4,0.1l0.7,0.2c0.5,0.1,1.1,0.3,1.6,0.4l0.8,0.2l0.4,0.1l0.5,0.2
			c0.7,0.3,1.4,0.5,2,0.8c1.4,0.5,2.6,1.2,3.8,1.8l0.9,0.5l0.9,0.6l1.7,1.2c4.6,3.2,8.4,7.6,11,12.7c2.7,5,4.2,10.7,4.3,16.2
			c0.1,0.7,0,1.4,0,2.1s-0.1,1.4-0.1,2.1c-0.1,1.4-0.4,2.7-0.6,4.1c-0.3,1.3-0.7,2.6-1,3.9v0.1l-0.1,0.4l0,0l-0.1,0.2l-0.1,0.4
			l-0.3,0.8c-0.2,0.5-0.4,1-0.6,1.5c-0.6,1.2-1.2,2.5-1.8,3.7c-0.7,1.1-1.4,2.2-2.1,3.2c-0.8,1-1.6,1.9-2.3,2.9
			c-0.8,0.9-1.7,1.7-2.5,2.5c-3.5,3.1-7.4,5.3-11.1,6.7c-3.7,1.3-7.3,2-10.4,2c-0.4,0-0.8,0-1.1,0c-0.4,0-0.7,0-1.1-0.1
			c-0.7,0-1.4-0.1-2.1-0.2c-1.3-0.2-2.5-0.4-3.6-0.7c-1-0.3-2-0.6-2.7-0.9c-0.8-0.3-1.4-0.6-1.9-0.8c-1-0.5-1.6-0.8-1.6-0.8
			s0.6,0,1.7,0c0.6,0,1.2,0,2-0.1s1.7-0.2,2.7-0.2c1-0.2,2-0.4,3.2-0.6c0.6-0.2,1.2-0.3,1.8-0.5c0.3-0.1,0.6-0.2,0.9-0.2
			c0.3-0.1,0.6-0.2,0.9-0.3c0.6-0.2,1.3-0.5,1.9-0.7c0.6-0.3,1.3-0.6,1.9-0.9c0.7-0.3,1.3-0.7,1.9-1.1c0.3-0.2,0.7-0.4,1-0.6
			c0.3-0.2,0.6-0.4,0.9-0.7c2.6-1.7,5-4,7.1-6.7c0.5-0.7,1-1.4,1.5-2.1c0.4-0.7,0.9-1.5,1.3-2.2c0.3-0.8,0.7-1.6,1.1-2.4
			c0.2-0.8,0.5-1.4,0.8-2.2c0.1-0.5,0.3-1.1,0.4-1.6l0.2-0.8l0.1-0.4l0.1-0.2v-0.1c-0.2,0.6,0,0.1-0.1,0.3v-0.1
			c0.1-0.9,0.3-1.8,0.4-2.7c0-0.9,0.1-1.8,0.1-2.7v-1.4c0-0.5,0-0.9-0.1-1.4c-0.3-3.6-1.4-7.2-3.1-10.4c-1.7-3.2-4-6.1-6.9-8.4
			l-1.1-0.8l-0.5-0.4l-0.6-0.4c-0.8-0.5-1.5-1-2.2-1.3c-0.3-0.2-0.7-0.4-1-0.6l-0.3-0.1l-0.4-0.2l-0.8-0.3c-0.5-0.2-1-0.4-1.6-0.6
			l-0.2-0.1h-0.1l0,0c-0.3-0.1,0.3,0.1,0.3,0.1l-0.4-0.1l-0.8-0.2c-4-1.3-7.8-2.6-11.5-3.4c-3.6-0.9-7.1-1.4-10.5-1.7
			c-3.3-0.3-6.5-0.5-9.4-0.7s-5.4-0.3-7.4-0.4C605.3,248.9,602.9,248.6,602.9,248.6z"/>
	</g>
	<g id="XMLID_11_">
		<path id="XMLID_111_" class="st2" d="M406.5,283.7c-6.5-23.5-7.6-30.2-5.2-47.8c2.4-17.6,18.6-29.9,36.2-27.5
			c1.3,0.2,2.7,0.4,3.9,0.8"/>
		<path id="XMLID_110_" class="st2" d="M406.5,283.7c0,0-1-1.4-2.5-3.9s-3.5-6.2-5.5-10.8c-1-2.3-1.9-4.9-2.8-7.7
			c-0.8-2.9-1.5-6-1.8-9.3s-0.4-6.7-0.2-10.1c0.1-1.7,0.2-3.4,0.4-5l0.1-1.2l0.1-0.6l0.1-0.6l0.1-0.3l0.4-2.4l0.1-0.3l0.1-0.4
			l0.2-0.8l0.4-1.5c0.2-0.5,0.3-1,0.5-1.5l0.6-1.4c0.4-0.9,0.7-1.8,1.2-2.7c0.5-0.8,0.9-1.7,1.4-2.5c2.1-3.2,4.6-6.1,7.4-8.4
			c0.7-0.6,1.4-1.1,2.2-1.6c0.4-0.3,0.7-0.5,1.1-0.8c0.4-0.2,0.8-0.4,1.1-0.6c0.8-0.4,1.5-0.8,2.2-1.2c0.8-0.3,1.5-0.7,2.3-1
			c0.7-0.3,1.5-0.6,2.3-0.8c0.8-0.2,1.5-0.5,2.2-0.6s1.5-0.3,2.2-0.4s1.4-0.3,2.1-0.3c1.4-0.1,2.7-0.2,3.9-0.1
			c1.2,0.1,2.4,0.1,3.5,0.4c0.5,0.1,1,0.2,1.5,0.3c0.5,0.1,1,0.2,1.4,0.4c0.9,0.3,1.7,0.6,2.4,0.8c1.4,0.5,2.5,1.1,3.1,1.5
			c0.7,0.4,1,0.7,1,0.7s-0.4,0-1.2,0.1c-0.8,0.1-1.9,0.2-3.3,0.5c-0.7,0.2-1.5,0.3-2.3,0.4s-1.7,0.4-2.5,0.7
			c-0.9,0.2-1.8,0.6-2.8,0.9s-1.9,0.8-2.9,1.2c-0.5,0.2-1,0.5-1.5,0.7c-0.5,0.3-1,0.5-1.5,0.8s-0.9,0.6-1.4,0.9s-1,0.6-1.4,1
			c-0.5,0.4-0.9,0.7-1.4,1.1s-0.9,0.8-1.3,1.2l-0.7,0.6l-0.6,0.7c-0.4,0.5-0.9,0.9-1.2,1.3c-1.6,1.9-3,4-4.1,6.2
			c-0.3,0.6-0.5,1.1-0.8,1.7s-0.4,1.2-0.7,1.8l-0.3,0.9l-0.2,0.8l-0.2,0.8l-0.1,0.4l-0.1,0.2l-0.1,0.3l-0.5,2.4l-0.1,0.3v0.1v0.1
			c-0.1,0.3,0.1-0.4,0-0.3l0,0l-0.1,0.6l-0.2,1.1c-0.2,1.5-0.4,3-0.7,4.5c-0.4,3-0.7,5.8-0.9,8.5c-0.2,2.7-0.3,5.4-0.2,8
			c0,2.6,0.1,5.2,0.3,7.6c0.2,4.8,0.3,8.9,0.3,11.8C406.7,281.9,406.5,283.7,406.5,283.7z"/>
	</g>
	<g id="XMLID_8_">
		<path id="XMLID_107_" class="st2" d="M447.8,241.4c-6.5-23.5-7.6-30.2-5.2-47.8c2.4-17.6,18.6-29.9,36.2-27.5
			c1.3,0.2,2.7,0.4,3.9,0.8"/>
		<path id="XMLID_106_" class="st2" d="M447.8,241.4c0,0-1-1.4-2.5-3.9s-3.5-6.2-5.5-10.8c-1-2.3-1.9-4.9-2.8-7.7
			c-0.8-2.9-1.5-6-1.8-9.3s-0.4-6.7-0.2-10.1c0.1-1.7,0.2-3.4,0.4-5l0.1-1.2l0.1-0.6l0.1-0.6l0.1-0.3l0.4-2.4l0.1-0.3l0.1-0.4
			l0.2-0.8l0.4-1.5c0.2-0.5,0.3-1,0.5-1.5l0.6-1.4c0.4-0.9,0.7-1.8,1.2-2.7c0.5-0.8,0.9-1.7,1.4-2.5c2.1-3.2,4.6-6.1,7.4-8.4
			c0.7-0.6,1.4-1.1,2.2-1.6c0.4-0.3,0.7-0.5,1.1-0.8c0.4-0.2,0.8-0.4,1.1-0.6c0.8-0.4,1.5-0.8,2.2-1.2c0.8-0.3,1.5-0.7,2.3-1
			c0.7-0.3,1.5-0.6,2.3-0.8c0.8-0.2,1.5-0.5,2.2-0.6s1.5-0.3,2.2-0.4s1.4-0.3,2.1-0.3c1.4-0.1,2.7-0.2,3.9-0.1
			c1.2,0.1,2.4,0.1,3.5,0.4c0.5,0.1,1,0.2,1.5,0.3c0.5,0.1,1,0.2,1.4,0.4c0.9,0.3,1.7,0.6,2.4,0.8c1.4,0.5,2.5,1.1,3.1,1.5
			c0.7,0.4,1,0.7,1,0.7s-0.4,0-1.2,0.1c-0.8,0.1-1.9,0.2-3.3,0.5c-0.7,0.2-1.5,0.3-2.3,0.4s-1.7,0.4-2.5,0.7
			c-0.9,0.2-1.8,0.6-2.8,0.9s-1.9,0.8-2.9,1.2c-0.5,0.2-1,0.5-1.5,0.7c-0.5,0.3-1,0.5-1.5,0.8s-0.9,0.6-1.4,0.9s-1,0.6-1.4,1
			c-0.5,0.4-0.9,0.7-1.4,1.1s-0.9,0.8-1.3,1.2l-0.7,0.6l-0.6,0.7c-0.4,0.5-0.9,0.9-1.2,1.3c-1.6,1.9-3,4-4.1,6.2
			c-0.3,0.6-0.5,1.1-0.8,1.7s-0.4,1.2-0.7,1.8l-0.3,0.9l-0.2,0.8l-0.2,0.8l-0.1,0.4l-0.1,0.2l-0.1,0.3l-0.5,2.4l-0.1,0.3v0.1v0.1
			c-0.1,0.3,0.1-0.4,0-0.3l0,0l-0.1,0.6l-0.2,1.1c-0.2,1.5-0.4,3-0.7,4.5c-0.4,3-0.7,5.8-0.9,8.5c-0.2,2.7-0.3,5.4-0.2,8
			c0,2.6,0.1,5.2,0.3,7.6c0.2,4.8,0.3,8.9,0.3,11.8C448,239.7,447.8,241.4,447.8,241.4z"/>
	</g>
	<g id="XMLID_6_">
		<path id="XMLID_104_" class="st2" d="M489,199.1c-6.5-23.5-7.6-30.2-5.2-47.8c2.4-17.6,18.6-29.9,36.2-27.5
			c17.6,2.4,29.9,18.6,27.5,36.2"/>
		<path id="XMLID_103_" class="st2" d="M489,199.1c0,0-1.2-2.1-3-5.8c-0.9-1.9-2-4.2-3.1-6.9c-1.1-2.7-2.3-5.8-3.3-9.3
			s-1.9-7.6-2.2-11.9c-0.3-4.3-0.2-8.8,0.1-13.3l0.1-0.8v-0.4l0.1-0.7c0.1-0.5,0.1-1.1,0.2-1.7l0.1-0.8l0.1-0.4l0.1-0.5
			c0.2-0.7,0.3-1.4,0.5-2.1c0.3-1.5,0.9-2.7,1.3-4l0.4-1l0.5-0.9l0.9-1.9c2.6-4.9,6.5-9.3,11.1-12.6c4.6-3.3,10-5.5,15.5-6.4
			c0.7-0.2,1.4-0.2,2.1-0.3l2.1-0.2c1.4-0.1,2.7,0,4.1,0c1.4,0.1,2.7,0.3,4,0.5h0.1l0.4,0.1h0.1h0.2l0.4,0.1l0.8,0.2
			c0.5,0.1,1.1,0.3,1.6,0.4c1.3,0.4,2.7,0.9,3.9,1.3c1.2,0.5,2.3,1.1,3.4,1.6c1.1,0.6,2.1,1.3,3.1,1.9c1,0.7,1.9,1.4,2.8,2.2
			c3.6,3,6.2,6.6,8.1,10.1c1.8,3.5,2.9,7,3.3,10.1c0.1,0.4,0.1,0.8,0.2,1.1c0,0.4,0.1,0.7,0.1,1.1c0.1,0.7,0.1,1.4,0.1,2.1
			c0,1.3-0.1,2.5-0.2,3.6c-0.2,1.1-0.3,2-0.5,2.8s-0.4,1.5-0.6,2c-0.4,1.1-0.5,1.6-0.5,1.6s-0.1-0.6-0.3-1.7c-0.1-0.5-0.1-1.2-0.3-2
			s-0.4-1.6-0.6-2.6c-0.3-0.9-0.6-2-1-3.1c-0.2-0.5-0.5-1.1-0.7-1.7c-0.1-0.3-0.2-0.6-0.4-0.9c-0.1-0.3-0.3-0.6-0.5-0.9
			c-0.3-0.6-0.6-1.2-0.9-1.8c-0.4-0.6-0.8-1.2-1.2-1.8c-0.4-0.6-0.9-1.2-1.3-1.8c-0.2-0.3-0.5-0.6-0.7-0.9s-0.5-0.6-0.8-0.8
			c-2.1-2.3-4.6-4.4-7.5-6.1c-0.8-0.4-1.5-0.8-2.3-1.2c-0.8-0.3-1.6-0.6-2.4-1c-0.8-0.2-1.7-0.5-2.5-0.8c-0.8-0.1-1.5-0.3-2.3-0.5
			c-0.5-0.1-1.1-0.1-1.6-0.2l-0.8-0.1L519,130h-0.2h-0.1c0.6,0.1,0.1,0,0.3,0h-0.1c-0.9,0-1.8,0-2.7,0c-0.9,0.1-1.8,0.1-2.7,0.2
			l-1.3,0.2c-0.4,0.1-0.9,0.1-1.3,0.3c-3.5,0.8-6.9,2.3-9.9,4.5c-3,2.1-5.6,4.8-7.4,7.9l-0.7,1.2l-0.3,0.6l-0.3,0.6
			c-0.4,0.8-0.8,1.7-1,2.4c-0.1,0.4-0.3,0.7-0.4,1.1l-0.1,0.3l-0.1,0.4l-0.2,0.8c-0.1,0.5-0.3,1.1-0.4,1.6v0.2v0.1v0.1
			c0,0.3,0.1-0.3,0-0.3l-0.1,0.4l-0.1,0.8c-0.8,4.2-1.5,8.1-1.9,11.8c-0.4,3.7-0.5,7.2-0.3,10.6c0.1,3.4,0.3,6.5,0.6,9.4
			c0.2,2.9,0.4,5.4,0.6,7.4C489,196.7,489,199.1,489,199.1z"/>
	</g>
	<g id="XMLID_7_">
		<path id="XMLID_101_" class="st2" d="M628.2,280.7c6.5,23.5,7.6,30.2,5.2,47.8c-2.4,17.6-18.6,29.9-36.2,27.5
			c-1.3-0.2-2.7-0.4-3.9-0.8"/>
		<path id="XMLID_100_" class="st2" d="M628.2,280.7c0,0,1,1.4,2.5,3.9s3.5,6.2,5.5,10.8c1,2.3,1.9,4.9,2.8,7.7
			c0.8,2.9,1.5,6,1.8,9.3s0.4,6.7,0.2,10.1c-0.1,1.7-0.2,3.4-0.4,5l-0.1,1.2l-0.1,0.6l-0.1,0.6l-0.1,0.3l-0.4,2.4l-0.1,0.3l-0.1,0.4
			l-0.2,0.8l-0.4,1.5c-0.2,0.5-0.3,1-0.5,1.5l-0.6,1.4c-0.4,0.9-0.7,1.8-1.2,2.7c-0.5,0.8-0.9,1.7-1.4,2.5c-2.1,3.2-4.6,6.1-7.4,8.4
			c-0.7,0.6-1.4,1.1-2.2,1.6c-0.4,0.3-0.7,0.5-1.1,0.8c-0.4,0.2-0.8,0.4-1.1,0.6c-0.8,0.4-1.5,0.8-2.2,1.2c-0.8,0.3-1.5,0.7-2.3,1
			c-0.7,0.3-1.5,0.6-2.3,0.8s-1.5,0.5-2.2,0.6s-1.5,0.3-2.2,0.4c-0.7,0.1-1.4,0.3-2.1,0.3c-1.4,0.1-2.7,0.2-3.9,0.1
			c-1.2-0.1-2.4-0.1-3.5-0.4c-0.5-0.1-1-0.2-1.5-0.3s-1-0.2-1.4-0.4c-0.9-0.3-1.7-0.6-2.4-0.8c-1.4-0.5-2.5-1.1-3.1-1.5
			c-0.7-0.4-1-0.7-1-0.7s0.4,0,1.2-0.1s1.9-0.2,3.3-0.5c0.7-0.2,1.5-0.3,2.3-0.4c0.8-0.1,1.7-0.4,2.5-0.7c0.9-0.2,1.8-0.6,2.8-0.9
			c1-0.3,1.9-0.8,2.9-1.2c0.5-0.2,1-0.5,1.5-0.7c0.5-0.3,1-0.5,1.5-0.8s0.9-0.6,1.4-0.9c0.5-0.3,1-0.6,1.4-1
			c0.5-0.4,0.9-0.7,1.4-1.1c0.5-0.4,0.9-0.8,1.3-1.2l0.7-0.6l0.6-0.7c0.4-0.5,0.9-0.9,1.2-1.3c1.6-1.9,3-4,4.1-6.2
			c0.3-0.6,0.5-1.1,0.8-1.7c0.3-0.6,0.4-1.2,0.7-1.8l0.3-0.9l0.2-0.8l0.2-0.8l0.1-0.4l0.1-0.2l0.1-0.3l0.5-2.4l0.1-0.3v-0.1v-0.1
			c0.1-0.3-0.1,0.4,0,0.3l0,0l0.1-0.6l0.2-1.1c0.2-1.5,0.4-3,0.7-4.5c0.4-3,0.7-5.8,0.9-8.5s0.3-5.4,0.2-8c0-2.6-0.1-5.2-0.3-7.6
			c-0.2-4.8-0.3-8.9-0.3-11.8C628,282.4,628.2,280.7,628.2,280.7z"/>
	</g>
	<g id="XMLID_12_">
		<path id="XMLID_98_" class="st2" d="M545.7,365.3c6.5,23.5,7.6,30.2,5.2,47.8c-2.4,17.6-18.6,29.9-36.2,27.5
			c-17.6-2.4-29.9-18.6-27.5-36.2"/>
		<path id="XMLID_97_" class="st2" d="M545.7,365.3c0,0,1.2,2.1,3,5.8c0.9,1.9,2,4.2,3.1,6.9s2.3,5.8,3.3,9.3s1.9,7.6,2.2,11.9
			c0.3,4.3,0.2,8.8-0.1,13.3l-0.1,0.8v0.4l-0.1,0.7c-0.1,0.5-0.1,1.1-0.2,1.7l-0.1,0.8l-0.1,0.4l-0.1,0.5c-0.2,0.7-0.3,1.4-0.5,2.1
			c-0.3,1.5-0.9,2.7-1.3,4l-0.4,1l-0.5,0.9l-0.9,1.9c-2.6,4.9-6.5,9.3-11.1,12.6s-10,5.5-15.5,6.4c-0.7,0.2-1.4,0.2-2.1,0.3
			l-2.1,0.2c-1.4,0.1-2.7,0-4.1,0c-1.4-0.1-2.7-0.3-4-0.5h-0.1l-0.4-0.1h-0.1h-0.2l-0.4-0.1l-0.8-0.2c-0.5-0.1-1.1-0.3-1.6-0.4
			c-1.3-0.4-2.7-0.9-3.9-1.3c-1.2-0.5-2.3-1.1-3.4-1.6c-1.1-0.6-2.1-1.3-3.1-1.9c-1-0.7-1.9-1.4-2.8-2.2c-3.6-3-6.2-6.6-8.1-10.1
			c-1.8-3.5-2.9-7-3.3-10.1c-0.1-0.4-0.1-0.8-0.2-1.1c0-0.4-0.1-0.7-0.1-1.1c-0.1-0.7-0.1-1.4-0.1-2.1c0-1.3,0.1-2.5,0.2-3.6
			c0.2-1.1,0.3-2,0.5-2.8s0.4-1.5,0.6-2c0.4-1.1,0.5-1.6,0.5-1.6s0.1,0.6,0.3,1.7c0.1,0.5,0.1,1.2,0.3,2c0.2,0.8,0.4,1.6,0.6,2.6
			c0.3,0.9,0.6,2,1,3.1c0.2,0.5,0.5,1.1,0.7,1.7c0.1,0.3,0.2,0.6,0.4,0.9c0.1,0.3,0.3,0.6,0.5,0.9c0.3,0.6,0.6,1.2,0.9,1.8
			c0.4,0.6,0.8,1.2,1.2,1.8c0.4,0.6,0.9,1.2,1.3,1.8c0.2,0.3,0.5,0.6,0.7,0.9c0.2,0.3,0.5,0.6,0.8,0.8c2.1,2.3,4.6,4.4,7.5,6.1
			c0.8,0.4,1.5,0.8,2.3,1.2c0.8,0.3,1.6,0.6,2.4,1c0.8,0.2,1.7,0.5,2.5,0.8c0.8,0.1,1.5,0.3,2.3,0.5c0.5,0.1,1.1,0.1,1.6,0.2
			l0.8,0.1l0.4,0.1h0.2h0.1c-0.6-0.1-0.1,0-0.3,0h0.1c0.9,0,1.8,0,2.7,0c0.9-0.1,1.8-0.1,2.7-0.2l1.3-0.2c0.4-0.1,0.9-0.1,1.3-0.3
			c3.5-0.8,6.9-2.3,9.9-4.5c3-2.1,5.6-4.8,7.4-7.9l0.7-1.2l0.3-0.6l0.3-0.6c0.4-0.8,0.8-1.7,1-2.4c0.1-0.4,0.3-0.7,0.4-1.1l0.1-0.3
			l0.1-0.4l0.2-0.8c0.1-0.5,0.3-1.1,0.4-1.6v-0.2V412v-0.1c0-0.3-0.1,0.3,0,0.3l0.1-0.4l0.1-0.8c0.8-4.2,1.5-8.1,1.9-11.8
			s0.5-7.2,0.3-10.6c-0.1-3.4-0.3-6.5-0.6-9.4c-0.2-2.9-0.4-5.4-0.6-7.4C545.7,367.7,545.7,365.3,545.7,365.3z"/>
	</g>
	<g id="XMLID_14_">
		<path id="XMLID_95_" class="st2" d="M514.8,397.8c-23.5,6.5-30.2,7.6-47.8,5.2c-17.6-2.4-29.9-18.6-27.5-36.2
			c0.2-1.3,0.4-2.7,0.8-3.9"/>
		<path id="XMLID_94_" class="st2" d="M514.8,397.8c0,0-1.4,1-3.9,2.5c-2.5,1.5-6.2,3.5-10.8,5.5c-2.3,1-4.9,1.9-7.7,2.8
			c-2.9,0.8-6,1.5-9.3,1.8s-6.7,0.4-10.1,0.2c-1.7-0.1-3.4-0.2-5-0.4l-1.2-0.1l-0.6-0.1l-0.6-0.1l-0.3-0.1l-2.4-0.4l-0.3-0.1
			l-0.4-0.1l-0.8-0.2l-1.5-0.4c-0.5-0.2-1-0.3-1.5-0.5l-1.4-0.6c-0.9-0.4-1.8-0.7-2.7-1.2c-0.8-0.5-1.7-0.9-2.5-1.4
			c-3.2-2.1-6.1-4.6-8.4-7.4c-0.6-0.7-1.1-1.4-1.6-2.2c-0.3-0.4-0.5-0.7-0.8-1.1c-0.2-0.4-0.4-0.8-0.6-1.1c-0.4-0.8-0.8-1.5-1.2-2.2
			c-0.3-0.8-0.7-1.5-1-2.3c-0.3-0.7-0.6-1.5-0.8-2.3c-0.2-0.8-0.5-1.5-0.6-2.2s-0.3-1.5-0.4-2.2s-0.3-1.4-0.3-2.1
			c-0.1-1.4-0.2-2.7-0.1-3.9s0.1-2.4,0.4-3.5c0.1-0.5,0.2-1,0.3-1.5c0.1-0.5,0.2-1,0.4-1.4c0.3-0.9,0.6-1.7,0.8-2.4
			c0.5-1.4,1.1-2.5,1.5-3.1c0.4-0.7,0.7-1,0.7-1s0,0.4,0.1,1.2s0.2,1.9,0.5,3.3c0.2,0.7,0.3,1.5,0.4,2.3s0.4,1.7,0.7,2.5
			c0.2,0.9,0.6,1.8,0.9,2.8s0.8,1.9,1.2,2.9c0.2,0.5,0.5,1,0.7,1.5c0.3,0.5,0.5,1,0.8,1.5s0.6,0.9,0.9,1.4s0.6,1,1,1.4
			c0.4,0.5,0.7,0.9,1.1,1.4s0.8,0.9,1.2,1.3l0.6,0.7l0.7,0.6c0.5,0.4,0.9,0.9,1.3,1.2c1.9,1.6,4,3,6.2,4.1c0.6,0.3,1.1,0.5,1.7,0.8
			s1.2,0.4,1.8,0.7l0.9,0.3l0.8,0.2l0.8,0.2l0.4,0.1l0.2,0.1l0.3,0.1l2.4,0.5l0.3,0.1h0.1h0.1c0.3,0.1-0.4-0.1-0.3,0l0,0l0.6,0.1
			l1.1,0.2c1.5,0.2,3,0.4,4.5,0.7c3,0.4,5.8,0.7,8.5,0.9s5.4,0.3,8,0.2c2.6,0,5.2-0.1,7.6-0.3c4.8-0.2,8.9-0.3,11.8-0.3
			C513.1,397.6,514.8,397.8,514.8,397.8z"/>
	</g>
	<g id="XMLID_15_">
		<path id="XMLID_92_" class="st2" d="M472.5,356.5c-23.5,6.5-30.2,7.6-47.8,5.2c-17.6-2.4-29.9-18.6-27.5-36.2
			c0.2-1.3,0.4-2.7,0.8-3.9"/>
		<path id="XMLID_91_" class="st2" d="M472.5,356.5c0,0-1.4,1-3.9,2.5s-6.2,3.5-10.8,5.5c-2.3,1-4.9,1.9-7.7,2.8
			c-2.9,0.8-6,1.5-9.3,1.8s-6.7,0.4-10.1,0.2c-1.7-0.1-3.4-0.2-5-0.4l-1.2-0.1l-0.6-0.1l-0.6-0.1l-0.3-0.1l-2.4-0.4l-0.3-0.1
			l-0.4-0.1l-0.8-0.2l-1.5-0.4c-0.5-0.2-1-0.3-1.5-0.5l-1.4-0.6c-0.9-0.4-1.8-0.7-2.7-1.2c-0.8-0.5-1.7-0.9-2.5-1.4
			c-3.2-2.1-6.1-4.6-8.4-7.4c-0.6-0.7-1.1-1.4-1.6-2.2c-0.3-0.4-0.5-0.7-0.8-1.1c-0.2-0.4-0.4-0.8-0.6-1.1c-0.4-0.8-0.8-1.5-1.2-2.2
			c-0.3-0.8-0.7-1.5-1-2.3c-0.3-0.7-0.6-1.5-0.8-2.3c-0.2-0.8-0.5-1.5-0.6-2.2s-0.3-1.5-0.4-2.2s-0.3-1.4-0.3-2.1
			c-0.1-1.4-0.2-2.7-0.1-3.9s0.1-2.4,0.4-3.5c0.1-0.5,0.2-1,0.3-1.5c0.1-0.5,0.2-1,0.4-1.4c0.3-0.9,0.6-1.7,0.8-2.4
			c0.5-1.4,1.1-2.5,1.5-3.1c0.4-0.7,0.7-1,0.7-1s0,0.4,0.1,1.2s0.2,1.9,0.5,3.3c0.2,0.7,0.3,1.5,0.4,2.3s0.4,1.7,0.7,2.5
			c0.2,0.9,0.6,1.8,0.9,2.8s0.8,1.9,1.2,2.9c0.2,0.5,0.5,1,0.7,1.5c0.3,0.5,0.5,1,0.8,1.5s0.6,0.9,0.9,1.4s0.6,1,1,1.4
			c0.4,0.5,0.7,0.9,1.1,1.4s0.8,0.9,1.2,1.3l0.6,0.7l0.7,0.6c0.5,0.4,0.9,0.9,1.3,1.2c1.9,1.6,4,3,6.2,4.1c0.6,0.3,1.1,0.5,1.7,0.8
			s1.2,0.4,1.8,0.7l0.9,0.3l0.8,0.2l0.8,0.2l0.4,0.1l0.2,0.1l0.3,0.1l2.4,0.5l0.3,0.1h0.1h0.1c0.3,0.1-0.4-0.1-0.3,0l0,0l0.6,0.1
			l1.1,0.2c1.5,0.2,3,0.4,4.5,0.7c3,0.4,5.8,0.7,8.5,0.9s5.4,0.3,8,0.2c2.6,0,5.2-0.1,7.6-0.3c4.8-0.2,8.9-0.3,11.8-0.3
			C470.8,356.4,472.5,356.5,472.5,356.5z"/>
	</g>
	<g id="XMLID_9_">
		<path id="XMLID_89_" class="st2" d="M428.7,318.9c-24.2,3.3-30.9,3.5-48.1-1.2c-17.1-4.7-27.2-22.4-22.5-39.5s25.2-27.4,42.3-22.8
			"/>
		<path id="XMLID_88_" class="st2" d="M428.7,318.9c0,0-0.6,0.2-1.6,0.6c-1.1,0.4-2.6,1-4.7,1.6c-2,0.7-4.5,1.4-7.3,2.2
			c-2.9,0.8-6.1,1.5-9.9,2c-1.9,0.3-3.8,0.4-5.9,0.6c-2.1,0.1-4.2,0.1-6.4-0.1c-4.4-0.3-8.9-1-13.4-2l-0.4-0.1l-0.6-0.1l-0.8-0.2
			l-0.4-0.1l-0.5-0.2l-1-0.3c-1.4-0.5-2.6-0.9-3.9-1.5c-2.5-1.1-4.9-2.6-7.2-4.3c-4.5-3.4-8.2-8.1-10.7-13.3
			c-1.2-2.6-2.2-5.4-2.8-8.2c-0.6-2.8-0.9-5.7-0.8-8.5c0-2.8,0.4-5.6,1.1-8.3c0.2-0.7,0.4-1.3,0.5-2l0.1-0.2l0.1-0.2v-0.1v-0.1
			l0.1-0.4l0.3-0.8l0.2-0.5l0.2-0.5l0.4-1c0.3-0.7,0.6-1.2,0.9-1.8c1.3-2.4,2.8-4.6,4.5-6.5s3.5-3.6,5.4-5c3.8-2.8,7.7-4.7,11.5-5.9
			c3.8-1.2,7.4-1.6,10.5-1.7c3.1,0,5.8,0.4,8,0.9c2.1,0.5,3.7,1.2,4.8,1.6c1,0.5,1.6,0.8,1.6,0.8s-0.6,0-1.7,0s-2.8,0.1-4.8,0.3
			c-2,0.3-4.4,0.7-7,1.6c-2.6,0.8-5.4,2-8.1,3.7c-2.8,1.7-5.5,3.8-7.8,6.4c-1.2,1.3-2.3,2.7-3.2,4.2c-0.9,1.5-1.7,3.1-2.4,4.7
			c-0.1,0.4-0.3,0.8-0.4,1.2l-0.3,1.1l-0.2,0.8l-0.1,0.4v0.1v0.1c-0.1,0.2,0.1-0.2,0-0.1v0.2c-0.1,0.5-0.2,0.9-0.2,1.4
			c-0.3,1.8-0.3,3.7-0.3,5.5c0.2,3.7,1.1,7.4,2.8,10.7c1.6,3.4,4,6.3,6.7,8.8c1.4,1.2,2.9,2.3,4.5,3.2c0.8,0.4,1.6,0.9,2.4,1.2
			l0.5,0.2l0.3,0.1l0.4,0.1l0.8,0.3l0.2,0.1h0.1c-0.1,0,0.2,0.1-0.1,0l0,0l0.4,0.1c4.1,1.4,8,2.6,11.7,3.5s7.2,1.5,10.6,1.8
			c3.4,0.4,6.6,0.5,9.5,0.7s5.5,0.3,7.5,0.4c2.1,0.1,3.8,0.3,4.9,0.4C428.1,318.8,428.7,318.9,428.7,318.9z"/>
	</g>
	<g id="XMLID_13_">
		<path id="XMLID_86_" class="st2" d="M586.9,323c6.5,23.5,7.6,30.2,5.2,47.8c-2.4,17.6-18.6,29.9-36.2,27.5
			c-1.3-0.2-2.7-0.4-3.9-0.8"/>
		<path id="XMLID_85_" class="st2" d="M586.9,323c0,0,1,1.4,2.5,3.9s3.5,6.2,5.5,10.8c1,2.3,1.9,4.9,2.8,7.7c0.8,2.9,1.5,6,1.8,9.3
			s0.4,6.7,0.2,10.1c-0.1,1.7-0.2,3.4-0.4,5l-0.1,1.2l-0.1,0.6l-0.1,0.6l-0.1,0.3l-0.4,2.4l-0.1,0.3l-0.1,0.4l-0.2,0.8l-0.4,1.5
			c-0.2,0.5-0.3,1-0.5,1.5l-0.6,1.4c-0.4,0.9-0.7,1.8-1.2,2.7c-0.5,0.8-0.9,1.7-1.4,2.5c-2.1,3.2-4.6,6.1-7.4,8.4
			c-0.7,0.6-1.4,1.1-2.2,1.6c-0.4,0.3-0.7,0.5-1.1,0.8c-0.4,0.2-0.8,0.4-1.1,0.6c-0.8,0.4-1.5,0.8-2.2,1.2c-0.8,0.3-1.5,0.7-2.3,1
			c-0.7,0.3-1.5,0.6-2.3,0.8s-1.5,0.5-2.2,0.6s-1.5,0.3-2.2,0.4c-0.7,0.1-1.4,0.3-2.1,0.3c-1.4,0.1-2.7,0.2-3.9,0.1
			c-1.2-0.1-2.4-0.1-3.5-0.4c-0.5-0.1-1-0.2-1.5-0.3s-1-0.2-1.4-0.4c-0.9-0.3-1.7-0.6-2.4-0.8c-1.4-0.5-2.5-1.1-3.1-1.5
			c-0.7-0.4-1-0.7-1-0.7s0.4,0,1.2-0.1s1.9-0.2,3.3-0.5c0.7-0.2,1.5-0.3,2.3-0.4c0.8-0.1,1.7-0.4,2.5-0.7c0.9-0.2,1.8-0.6,2.8-0.9
			c1-0.3,1.9-0.8,2.9-1.2c0.5-0.2,1-0.5,1.5-0.7c0.5-0.3,1-0.5,1.5-0.8s0.9-0.6,1.4-0.9c0.5-0.3,1-0.6,1.4-1
			c0.5-0.4,0.9-0.7,1.4-1.1c0.5-0.4,0.9-0.8,1.3-1.2l0.7-0.6l0.6-0.7c0.4-0.5,0.9-0.9,1.2-1.3c1.6-1.9,3-4,4.1-6.2
			c0.3-0.6,0.5-1.1,0.8-1.7c0.3-0.6,0.4-1.2,0.7-1.8l0.3-0.9l0.2-0.8l0.2-0.8l0.1-0.4l0.1-0.2l0.1-0.3l0.5-2.4l0.1-0.3v-0.1v-0.1
			c0.1-0.3-0.1,0.4,0,0.3l0,0l0.1-0.6l0.2-1.1c0.2-1.5,0.4-3,0.7-4.5c0.4-3,0.7-5.8,0.9-8.5s0.3-5.4,0.2-8c0-2.6-0.1-5.2-0.3-7.6
			c-0.2-4.8-0.3-8.9-0.3-11.8C586.8,324.7,586.9,323,586.9,323z"/>
	</g>
	<g id="XMLID_16_">
		<path id="XMLID_83_" class="st2" d="M521.7,168.2c23.5-6.5,30.2-7.6,47.8-5.2s29.9,18.6,27.5,36.2c-0.2,1.3-0.4,2.7-0.8,3.9"/>
		<path id="XMLID_82_" class="st2" d="M521.7,168.2c0,0,1.4-1,3.9-2.5s6.2-3.5,10.8-5.5c2.3-1,4.9-1.9,7.7-2.8
			c2.9-0.8,6-1.5,9.3-1.8s6.7-0.4,10.1-0.2c1.7,0.1,3.4,0.2,5,0.4l1.2,0.1l0.6,0.1l0.6,0.1l0.3,0.1l2.4,0.4l0.3,0.1l0.4,0.1l0.8,0.2
			l1.5,0.4c0.5,0.2,1,0.3,1.5,0.5l1.4,0.6c0.9,0.4,1.8,0.7,2.7,1.2c0.8,0.5,1.7,0.9,2.5,1.4c3.2,2.1,6.1,4.6,8.4,7.4
			c0.6,0.7,1.1,1.4,1.6,2.2c0.3,0.4,0.5,0.7,0.8,1.1c0.2,0.4,0.4,0.8,0.6,1.1c0.4,0.8,0.8,1.5,1.2,2.2c0.3,0.8,0.7,1.5,1,2.3
			c0.3,0.7,0.6,1.5,0.8,2.3s0.5,1.5,0.6,2.2s0.3,1.5,0.4,2.2c0.1,0.7,0.3,1.4,0.3,2.1c0.1,1.4,0.2,2.7,0.1,3.9
			c-0.1,1.2-0.1,2.4-0.4,3.5c-0.1,0.5-0.2,1-0.3,1.5s-0.2,1-0.4,1.4c-0.3,0.9-0.6,1.7-0.8,2.4c-0.5,1.4-1.1,2.5-1.5,3.1
			c-0.4,0.7-0.7,1-0.7,1s0-0.4-0.1-1.2c-0.1-0.8-0.2-1.9-0.5-3.3c-0.2-0.7-0.3-1.5-0.4-2.3c-0.1-0.8-0.4-1.7-0.7-2.5
			c-0.2-0.9-0.6-1.8-0.9-2.8c-0.3-1-0.8-1.9-1.2-2.9c-0.2-0.5-0.5-1-0.7-1.5c-0.3-0.5-0.5-1-0.8-1.5s-0.6-0.9-0.9-1.4
			c-0.3-0.5-0.6-1-1-1.4c-0.4-0.5-0.7-0.9-1.1-1.4c-0.4-0.5-0.8-0.9-1.2-1.3l-0.6-0.7l-0.7-0.6c-0.5-0.4-0.9-0.9-1.3-1.2
			c-1.9-1.6-4-3-6.2-4.1c-0.6-0.3-1.1-0.5-1.7-0.8c-0.6-0.3-1.2-0.4-1.8-0.7l-0.9-0.3l-0.8-0.2l-0.8-0.2l-0.4-0.1l-0.2-0.1l-0.3-0.1
			l-2.4-0.5l-0.3-0.1h-0.1h-0.1c-0.3-0.1,0.4,0.1,0.3,0l0,0l-0.6-0.1l-1.1-0.2c-1.5-0.2-3-0.4-4.5-0.7c-3-0.4-5.8-0.7-8.5-0.9
			c-2.7-0.2-5.4-0.3-8-0.2c-2.6,0-5.2,0.1-7.6,0.3c-4.8,0.2-8.9,0.3-11.8,0.3C523.4,168.3,521.7,168.2,521.7,168.2z"/>
	</g>
	<g id="XMLID_17_">
		<path id="XMLID_80_" class="st2" d="M564,209.4c23.5-6.5,30.2-7.6,47.8-5.2s29.9,18.6,27.5,36.2c-0.2,1.3-0.4,2.7-0.8,3.9"/>
		<path id="XMLID_79_" class="st2" d="M564,209.4c0,0,1.4-1,3.9-2.5s6.2-3.5,10.8-5.5c2.3-1,4.9-1.9,7.7-2.8c2.9-0.8,6-1.5,9.3-1.8
			s6.7-0.4,10.1-0.2c1.7,0.1,3.4,0.2,5,0.4l1.2,0.1l0.6,0.1l0.6,0.1l0.3,0.1l2.4,0.4l0.3,0.1l0.4,0.1l0.8,0.2l1.5,0.4
			c0.5,0.2,1,0.3,1.5,0.5l1.4,0.6c0.9,0.4,1.8,0.7,2.7,1.2c0.8,0.5,1.7,0.9,2.5,1.4c3.2,2.1,6.1,4.6,8.4,7.4
			c0.6,0.7,1.1,1.4,1.6,2.2c0.3,0.4,0.5,0.7,0.8,1.1c0.2,0.4,0.4,0.8,0.6,1.1c0.4,0.8,0.8,1.5,1.2,2.2c0.3,0.8,0.7,1.5,1,2.3
			c0.3,0.7,0.6,1.5,0.8,2.3s0.5,1.5,0.6,2.2s0.3,1.5,0.4,2.2c0.1,0.7,0.3,1.4,0.3,2.1c0.1,1.4,0.2,2.7,0.1,3.9
			c-0.1,1.2-0.1,2.4-0.4,3.5c-0.1,0.5-0.2,1-0.3,1.5s-0.2,1-0.4,1.4c-0.3,0.9-0.6,1.7-0.8,2.4c-0.5,1.4-1.1,2.5-1.5,3.1
			c-0.4,0.7-0.7,1-0.7,1s0-0.4-0.1-1.2c-0.1-0.8-0.2-1.9-0.5-3.3c-0.2-0.7-0.3-1.5-0.4-2.3c-0.1-0.8-0.4-1.7-0.7-2.5
			c-0.2-0.9-0.6-1.8-0.9-2.8c-0.3-1-0.8-1.9-1.2-2.9c-0.2-0.5-0.5-1-0.7-1.5c-0.3-0.5-0.5-1-0.8-1.5s-0.6-0.9-0.9-1.4
			c-0.3-0.5-0.6-1-1-1.4c-0.4-0.5-0.7-0.9-1.1-1.4c-0.4-0.5-0.8-0.9-1.2-1.3l-0.6-0.7l-0.7-0.6c-0.5-0.4-0.9-0.9-1.3-1.2
			c-1.9-1.6-4-3-6.2-4.1c-0.6-0.3-1.1-0.5-1.7-0.8c-0.6-0.3-1.2-0.4-1.8-0.7l-0.9-0.3l-0.8-0.2l-0.8-0.2l-0.4-0.1l-0.2-0.1l-0.3-0.1
			l-2.4-0.5l-0.3-0.1h-0.1h-0.1c-0.3-0.1,0.4,0.1,0.3,0l0,0l-0.6-0.1l-1.1-0.2c-1.5-0.2-3-0.4-4.5-0.7c-3-0.4-5.8-0.7-8.5-0.9
			c-2.7-0.2-5.4-0.3-8-0.2c-2.6,0-5.2,0.1-7.6,0.3c-4.8,0.2-8.9,0.3-11.8,0.3C565.7,209.6,564,209.4,564,209.4z"/>
	</g>
</g>
<g id="XMLID_72_">
	<ellipse id="XMLID_71_" class="st3" cx="449.8" cy="282.2" rx="32.7" ry="32.4"/>
	<ellipse id="XMLID_19_" class="st4" cx="442.3" cy="282.2" rx="23" ry="32.4"/>
	<ellipse id="XMLID_18_" class="st5" cx="449.8" cy="282.2" rx="32.7" ry="32.4"/>
</g>
<g id="XMLID_31_">
	<ellipse id="XMLID_73_" class="st3" cx="583.5" cy="282.2" rx="32.7" ry="32.4"/>
	<ellipse id="XMLID_21_" class="st4" cx="574.9" cy="282.2" rx="24.1" ry="32.4"/>
	<ellipse id="XMLID_22_" class="st5" cx="583.5" cy="282.2" rx="32.7" ry="32.4"/>
</g>
<circle id="XMLID_36_" class="st4" cx="400.3" cy="46.2" r="32"/>
<g id="XMLID_33_">
	<g id="XMLID_70_">
		<path id="XMLID_77_" class="st6" d="M602.9,248.6c0,0,2.2-0.9,6.2-2.2c2-0.7,4.4-1.4,7.2-2.2c2.8-0.8,6-1.5,9.7-2
			c3.6-0.5,7.8-0.8,12.1-0.6c4.3,0.3,8.8,0.9,13.2,1.9l0.8,0.2l0.4,0.1l0.7,0.2c0.5,0.1,1.1,0.3,1.6,0.4l0.8,0.2l0.4,0.1l0.5,0.2
			c0.7,0.3,1.4,0.5,2,0.8c1.4,0.5,2.6,1.2,3.8,1.8l0.9,0.5l0.9,0.6l1.7,1.2c4.6,3.2,8.4,7.6,11,12.7c2.7,5,4.2,10.7,4.3,16.2
			c0.1,0.7,0,1.4,0,2.1s-0.1,1.4-0.1,2.1c-0.1,1.4-0.4,2.7-0.6,4.1c-0.3,1.3-0.7,2.6-1,3.9v0.1l-0.1,0.4l0,0l-0.1,0.2l-0.1,0.4
			l-0.3,0.8c-0.2,0.5-0.4,1-0.6,1.5c-0.6,1.2-1.2,2.5-1.8,3.7c-0.7,1.1-1.4,2.2-2.1,3.2c-0.8,1-1.6,1.9-2.3,2.9
			c-0.8,0.9-1.7,1.7-2.5,2.5c-3.5,3.1-7.4,5.3-11.1,6.7c-3.7,1.3-7.3,2-10.4,2c-0.4,0-0.8,0-1.1,0c-0.4,0-0.7,0-1.1-0.1
			c-0.7,0-1.4-0.1-2.1-0.2c-1.3-0.2-2.5-0.4-3.6-0.7c-1-0.3-2-0.6-2.7-0.9c-0.8-0.3-1.4-0.6-1.9-0.8c-1-0.5-1.6-0.8-1.6-0.8
			s0.6,0,1.7,0c0.6,0,1.2,0,2-0.1s1.7-0.2,2.7-0.2c1-0.2,2-0.4,3.2-0.6c0.6-0.2,1.2-0.3,1.8-0.5c0.3-0.1,0.6-0.2,0.9-0.2
			c0.3-0.1,0.6-0.2,0.9-0.3c0.6-0.2,1.3-0.5,1.9-0.7c0.6-0.3,1.3-0.6,1.9-0.9c0.7-0.3,1.3-0.7,1.9-1.1c0.3-0.2,0.7-0.4,1-0.6
			c0.3-0.2,0.6-0.4,0.9-0.7c2.6-1.7,5-4,7.1-6.7c0.5-0.7,1-1.4,1.5-2.1c0.4-0.7,0.9-1.5,1.3-2.2c0.3-0.8,0.7-1.6,1.1-2.4
			c0.2-0.8,0.5-1.4,0.8-2.2c0.1-0.5,0.3-1.1,0.4-1.6l0.2-0.8l0.1-0.4l0.1-0.2v-0.1c-0.2,0.6,0,0.1-0.1,0.3v-0.1
			c0.1-0.9,0.3-1.8,0.4-2.7c0-0.9,0.1-1.8,0.1-2.7v-1.4c0-0.5,0-0.9-0.1-1.4c-0.3-3.6-1.4-7.2-3.1-10.4c-1.7-3.2-4-6.1-6.9-8.4
			l-1.1-0.8l-0.5-0.4l-0.6-0.4c-0.8-0.5-1.5-1-2.2-1.3c-0.3-0.2-0.7-0.4-1-0.6l-0.3-0.1l-0.4-0.2l-0.8-0.3c-0.5-0.2-1-0.4-1.6-0.6
			l-0.2-0.1h-0.1l0,0c-0.3-0.1,0.3,0.1,0.3,0.1l-0.4-0.1l-0.8-0.2c-4-1.3-7.8-2.6-11.5-3.4c-3.6-0.9-7.1-1.4-10.5-1.7
			c-3.3-0.3-6.5-0.5-9.4-0.7s-5.4-0.3-7.4-0.4C605.3,248.9,602.9,248.6,602.9,248.6z"/>
	</g>
	<g id="XMLID_69_">
		<path id="XMLID_75_" class="st6" d="M406.5,283.7c0,0-1-1.4-2.5-3.9s-3.5-6.2-5.5-10.8c-1-2.3-1.9-4.9-2.8-7.7
			c-0.8-2.9-1.5-6-1.8-9.3s-0.4-6.7-0.2-10.1c0.1-1.7,0.2-3.4,0.4-5l0.1-1.2l0.1-0.6l0.1-0.6l0.1-0.3l0.4-2.4l0.1-0.3l0.1-0.4
			l0.2-0.8l0.4-1.5c0.2-0.5,0.3-1,0.5-1.5l0.6-1.4c0.4-0.9,0.7-1.8,1.2-2.7c0.5-0.8,0.9-1.7,1.4-2.5c2.1-3.2,4.6-6.1,7.4-8.4
			c0.7-0.6,1.4-1.1,2.2-1.6c0.4-0.3,0.7-0.5,1.1-0.8c0.4-0.2,0.8-0.4,1.1-0.6c0.8-0.4,1.5-0.8,2.2-1.2c0.8-0.3,1.5-0.7,2.3-1
			c0.7-0.3,1.5-0.6,2.3-0.8c0.8-0.2,1.5-0.5,2.2-0.6s1.5-0.3,2.2-0.4s1.4-0.3,2.1-0.3c1.4-0.1,2.7-0.2,3.9-0.1
			c1.2,0.1,2.4,0.1,3.5,0.4c0.5,0.1,1,0.2,1.5,0.3c0.5,0.1,1,0.2,1.4,0.4c0.9,0.3,1.7,0.6,2.4,0.8c1.4,0.5,2.5,1.1,3.1,1.5
			c0.7,0.4,1,0.7,1,0.7s-0.4,0-1.2,0.1c-0.8,0.1-1.9,0.2-3.3,0.5c-0.7,0.2-1.5,0.3-2.3,0.4s-1.7,0.4-2.5,0.7
			c-0.9,0.2-1.8,0.6-2.8,0.9s-1.9,0.8-2.9,1.2c-0.5,0.2-1,0.5-1.5,0.7c-0.5,0.3-1,0.5-1.5,0.8s-0.9,0.6-1.4,0.9s-1,0.6-1.4,1
			c-0.5,0.4-0.9,0.7-1.4,1.1s-0.9,0.8-1.3,1.2l-0.7,0.6l-0.6,0.7c-0.4,0.5-0.9,0.9-1.2,1.3c-1.6,1.9-3,4-4.1,6.2
			c-0.3,0.6-0.5,1.1-0.8,1.7s-0.4,1.2-0.7,1.8l-0.3,0.9l-0.2,0.8l-0.2,0.8l-0.1,0.4l-0.1,0.2l-0.1,0.3l-0.5,2.4l-0.1,0.3v0.1v0.1
			c-0.1,0.3,0.1-0.4,0-0.3l0,0l-0.1,0.6l-0.2,1.1c-0.2,1.5-0.4,3-0.7,4.5c-0.4,3-0.7,5.8-0.9,8.5c-0.2,2.7-0.3,5.4-0.2,8
			c0,2.6,0.1,5.2,0.3,7.6c0.2,4.8,0.3,8.9,0.3,11.8C406.7,281.9,406.5,283.7,406.5,283.7z"/>
	</g>
	<g id="XMLID_68_">
		<path id="XMLID_64_" class="st6" d="M447.8,241.4c0,0-1-1.4-2.5-3.9s-3.5-6.2-5.5-10.8c-1-2.3-1.9-4.9-2.8-7.7
			c-0.8-2.9-1.5-6-1.8-9.3s-0.4-6.7-0.2-10.1c0.1-1.7,0.2-3.4,0.4-5l0.1-1.2l0.1-0.6l0.1-0.6l0.1-0.3l0.4-2.4l0.1-0.3l0.1-0.4
			l0.2-0.8l0.4-1.5c0.2-0.5,0.3-1,0.5-1.5l0.6-1.4c0.4-0.9,0.7-1.8,1.2-2.7c0.5-0.8,0.9-1.7,1.4-2.5c2.1-3.2,4.6-6.1,7.4-8.4
			c0.7-0.6,1.4-1.1,2.2-1.6c0.4-0.3,0.7-0.5,1.1-0.8c0.4-0.2,0.8-0.4,1.1-0.6c0.8-0.4,1.5-0.8,2.2-1.2c0.8-0.3,1.5-0.7,2.3-1
			c0.7-0.3,1.5-0.6,2.3-0.8c0.8-0.2,1.5-0.5,2.2-0.6s1.5-0.3,2.2-0.4s1.4-0.3,2.1-0.3c1.4-0.1,2.7-0.2,3.9-0.1
			c1.2,0.1,2.4,0.1,3.5,0.4c0.5,0.1,1,0.2,1.5,0.3c0.5,0.1,1,0.2,1.4,0.4c0.9,0.3,1.7,0.6,2.4,0.8c1.4,0.5,2.5,1.1,3.1,1.5
			c0.7,0.4,1,0.7,1,0.7s-0.4,0-1.2,0.1c-0.8,0.1-1.9,0.2-3.3,0.5c-0.7,0.2-1.5,0.3-2.3,0.4s-1.7,0.4-2.5,0.7
			c-0.9,0.2-1.8,0.6-2.8,0.9s-1.9,0.8-2.9,1.2c-0.5,0.2-1,0.5-1.5,0.7c-0.5,0.3-1,0.5-1.5,0.8s-0.9,0.6-1.4,0.9s-1,0.6-1.4,1
			c-0.5,0.4-0.9,0.7-1.4,1.1s-0.9,0.8-1.3,1.2l-0.7,0.6l-0.6,0.7c-0.4,0.5-0.9,0.9-1.2,1.3c-1.6,1.9-3,4-4.1,6.2
			c-0.3,0.6-0.5,1.1-0.8,1.7s-0.4,1.2-0.7,1.8l-0.3,0.9l-0.2,0.8l-0.2,0.8l-0.1,0.4l-0.1,0.2l-0.1,0.3l-0.5,2.4l-0.1,0.3v0.1v0.1
			c-0.1,0.3,0.1-0.4,0-0.3l0,0l-0.1,0.6l-0.2,1.1c-0.2,1.5-0.4,3-0.7,4.5c-0.4,3-0.7,5.8-0.9,8.5c-0.2,2.7-0.3,5.4-0.2,8
			c0,2.6,0.1,5.2,0.3,7.6c0.2,4.8,0.3,8.9,0.3,11.8C448,239.7,447.8,241.4,447.8,241.4z"/>
	</g>
	<g id="XMLID_67_">
		<path id="XMLID_62_" class="st6" d="M547.5,159.9c0,0-0.1-0.6-0.3-1.7c-0.1-0.5-0.1-1.3-0.3-2c-0.2-0.8-0.4-1.6-0.6-2.6
			c-0.3-0.9-0.6-2-1-3.1c-0.2-0.5-0.5-1.1-0.7-1.7c-0.1-0.3-0.2-0.6-0.4-0.9c-0.1-0.3-0.3-0.6-0.5-0.9c-0.3-0.6-0.6-1.2-0.9-1.8
			c-0.4-0.6-0.8-1.2-1.2-1.8c-0.4-0.6-0.9-1.2-1.3-1.8c-0.2-0.3-0.5-0.6-0.7-0.9s-0.5-0.6-0.8-0.9c-2.1-2.3-4.6-4.4-7.5-6.1
			c-2.9-1.7-6.3-2.9-9.8-3.4c-0.8-0.1-1.6-0.2-2.4-0.3c-0.6,0-1.1,0-1.7-0.1h-0.8h-0.4H516h-0.1c-0.8,0.1-1.5,0.1-2.4,0.2
			c-0.9,0.2-1.8,0.2-2.7,0.5c-3.5,0.8-6.9,2.3-9.9,4.5c-3,2.1-5.6,4.8-7.4,7.9l-0.7,1.2l-0.3,0.6l-0.3,0.6c-0.4,0.8-0.8,1.6-1.1,2.5
			c-0.3,0.8-0.6,1.7-0.8,2.6l-0.3,1.3c0,0.1-0.1,0.3-0.1,0.3l-0.1,0.4l-0.2,0.8c-0.4,2.2-0.8,4.1-1.1,6.1c-0.4,2-0.6,3.9-0.8,5.7
			c-0.4,3.7-0.5,7.2-0.3,10.6c0.1,3.4,0.3,6.5,0.6,9.4c0.2,2.9,0.4,5.4,0.6,7.4c0.3,4.1,0.3,6.6,0.3,6.6s-1.2-2.1-3-5.8
			c-0.9-1.9-2-4.2-3.1-6.9c-1.1-2.7-2.3-5.8-3.3-9.3s-1.9-7.6-2.2-11.9c-0.2-2.2-0.2-4.4-0.2-6.6c0-1.1,0-2.2,0.1-3.4
			c0-1.2,0.1-2.2,0.2-3.3l0.1-0.8v-0.4l0.1-0.5c0.1-0.7,0.2-1.3,0.3-2c0.1-1.3,0.5-2.6,0.8-3.9c0.7-2.6,1.7-5.2,3-7.7
			c2.6-4.9,6.5-9.3,11.1-12.6c4.6-3.3,10-5.5,15.5-6.4c0.7-0.2,1.4-0.2,2.1-0.3l2.1-0.2c1.4-0.1,3,0,4.4,0h0.3h0.2l0.4,0.1l0.8,0.1
			c0.6,0.1,1.1,0.1,1.7,0.2h0.1h0.4h0.1l0.2,0.1l0.5,0.1l1,0.2c0.6,0.2,1.3,0.3,1.9,0.5c5,1.4,9.5,4,13.1,7c3.6,3,6.2,6.6,8.1,10.1
			c1.8,3.5,2.9,7,3.3,10.1c0.1,0.4,0.1,0.8,0.2,1.1c0,0.4,0.1,0.7,0.1,1.1c0.1,0.7,0.1,1.4,0.1,2.1c0,1.3-0.1,2.5-0.2,3.6
			c-0.2,1.1-0.3,2.1-0.5,2.9s-0.4,1.4-0.6,2C547.7,159.4,547.5,159.9,547.5,159.9z"/>
	</g>
	<g id="XMLID_66_">
		<path id="XMLID_60_" class="st6" d="M628.2,280.7c0,0,1,1.4,2.5,3.9s3.5,6.2,5.5,10.8c1,2.3,1.9,4.9,2.8,7.7
			c0.8,2.9,1.5,6,1.8,9.3s0.4,6.7,0.2,10.1c-0.1,1.7-0.2,3.4-0.4,5l-0.1,1.2l-0.1,0.6l-0.1,0.6l-0.1,0.3l-0.4,2.4l-0.1,0.3l-0.1,0.4
			l-0.2,0.8l-0.4,1.5c-0.2,0.5-0.3,1-0.5,1.5l-0.6,1.4c-0.4,0.9-0.7,1.8-1.2,2.7c-0.5,0.8-0.9,1.7-1.4,2.5c-2.1,3.2-4.6,6.1-7.4,8.4
			c-0.7,0.6-1.4,1.1-2.2,1.6c-0.4,0.3-0.7,0.5-1.1,0.8c-0.4,0.2-0.8,0.4-1.1,0.6c-0.8,0.4-1.5,0.8-2.2,1.2c-0.8,0.3-1.5,0.7-2.3,1
			c-0.7,0.3-1.5,0.6-2.3,0.8s-1.5,0.5-2.2,0.6s-1.5,0.3-2.2,0.4c-0.7,0.1-1.4,0.3-2.1,0.3c-1.4,0.1-2.7,0.2-3.9,0.1
			c-1.2-0.1-2.4-0.1-3.5-0.4c-0.5-0.1-1-0.2-1.5-0.3s-1-0.2-1.4-0.4c-0.9-0.3-1.7-0.6-2.4-0.8c-1.4-0.5-2.5-1.1-3.1-1.5
			c-0.7-0.4-1-0.7-1-0.7s0.4,0,1.2-0.1s1.9-0.2,3.3-0.5c0.7-0.2,1.5-0.3,2.3-0.4c0.8-0.1,1.7-0.4,2.5-0.7c0.9-0.2,1.8-0.6,2.8-0.9
			c1-0.3,1.9-0.8,2.9-1.2c0.5-0.2,1-0.5,1.5-0.7c0.5-0.3,1-0.5,1.5-0.8s0.9-0.6,1.4-0.9c0.5-0.3,1-0.6,1.4-1
			c0.5-0.4,0.9-0.7,1.4-1.1c0.5-0.4,0.9-0.8,1.3-1.2l0.7-0.6l0.6-0.7c0.4-0.5,0.9-0.9,1.2-1.3c1.6-1.9,3-4,4.1-6.2
			c0.3-0.6,0.5-1.1,0.8-1.7c0.3-0.6,0.4-1.2,0.7-1.8l0.3-0.9l0.2-0.8l0.2-0.8l0.1-0.4l0.1-0.2l0.1-0.3l0.5-2.4l0.1-0.3v-0.1v-0.1
			c0.1-0.3-0.1,0.4,0,0.3l0,0l0.1-0.6l0.2-1.1c0.2-1.5,0.4-3,0.7-4.5c0.4-3,0.7-5.8,0.9-8.5s0.3-5.4,0.2-8c0-2.6-0.1-5.2-0.3-7.6
			c-0.2-4.8-0.3-8.9-0.3-11.8C628,282.4,628.2,280.7,628.2,280.7z"/>
	</g>
	<g id="XMLID_65_">
		<path id="XMLID_58_" class="st6" d="M545.7,365.3c0,0,1.2,2.1,3,5.8c0.9,1.9,2,4.2,3.1,6.9s2.3,5.8,3.3,9.3s1.9,7.6,2.2,11.9
			c0.3,4.3,0.2,8.8-0.1,13.3l-0.1,0.8v0.4l-0.1,0.7c-0.1,0.5-0.1,1.1-0.2,1.7l-0.1,0.8l-0.1,0.4l-0.1,0.5c-0.2,0.7-0.3,1.4-0.5,2.1
			c-0.3,1.5-0.9,2.7-1.3,4l-0.4,1l-0.5,0.9l-0.9,1.9c-2.6,4.9-6.5,9.3-11.1,12.6s-10,5.5-15.5,6.4c-0.7,0.2-1.4,0.2-2.1,0.3
			l-2.1,0.2c-1.4,0.1-2.7,0-4.1,0c-1.4-0.1-2.7-0.3-4-0.5h-0.1l-0.4-0.1h-0.1h-0.2l-0.4-0.1l-0.8-0.2c-0.5-0.1-1.1-0.3-1.6-0.4
			c-1.3-0.4-2.7-0.9-3.9-1.3c-1.2-0.5-2.3-1.1-3.4-1.6c-1.1-0.6-2.1-1.3-3.1-1.9c-1-0.7-1.9-1.4-2.8-2.2c-3.6-3-6.2-6.6-8.1-10.1
			c-1.8-3.5-2.9-7-3.3-10.1c-0.1-0.4-0.1-0.8-0.2-1.1c0-0.4-0.1-0.7-0.1-1.1c-0.1-0.7-0.1-1.4-0.1-2.1c0-1.3,0.1-2.5,0.2-3.6
			c0.2-1.1,0.3-2,0.5-2.8s0.4-1.5,0.6-2c0.4-1.1,0.5-1.6,0.5-1.6s0.1,0.6,0.3,1.7c0.1,0.5,0.1,1.2,0.3,2c0.2,0.8,0.4,1.6,0.6,2.6
			c0.3,0.9,0.6,2,1,3.1c0.2,0.5,0.5,1.1,0.7,1.7c0.1,0.3,0.2,0.6,0.4,0.9c0.1,0.3,0.3,0.6,0.5,0.9c0.3,0.6,0.6,1.2,0.9,1.8
			c0.4,0.6,0.8,1.2,1.2,1.8c0.4,0.6,0.9,1.2,1.3,1.8c0.2,0.3,0.5,0.6,0.7,0.9c0.2,0.3,0.5,0.6,0.8,0.8c2.1,2.3,4.6,4.4,7.5,6.1
			c0.8,0.4,1.5,0.8,2.3,1.2c0.8,0.3,1.6,0.6,2.4,1c0.8,0.2,1.7,0.5,2.5,0.8c0.8,0.1,1.5,0.3,2.3,0.5c0.5,0.1,1.1,0.1,1.6,0.2
			l0.8,0.1l0.4,0.1h0.2h0.1c-0.6-0.1-0.1,0-0.3,0h0.1c0.9,0,1.8,0,2.7,0c0.9-0.1,1.8-0.1,2.7-0.2l1.3-0.2c0.4-0.1,0.9-0.1,1.3-0.3
			c3.5-0.8,6.9-2.3,9.9-4.5c3-2.1,5.6-4.8,7.4-7.9l0.7-1.2l0.3-0.6l0.3-0.6c0.4-0.8,0.8-1.7,1-2.4c0.1-0.4,0.3-0.7,0.4-1.1l0.1-0.3
			l0.1-0.4l0.2-0.8c0.1-0.5,0.3-1.1,0.4-1.6v-0.2V412v-0.1c0-0.3-0.1,0.3,0,0.3l0.1-0.4l0.1-0.8c0.8-4.2,1.5-8.1,1.9-11.8
			s0.5-7.2,0.3-10.6c-0.1-3.4-0.3-6.5-0.6-9.4c-0.2-2.9-0.4-5.4-0.6-7.4C545.7,367.7,545.7,365.3,545.7,365.3z"/>
	</g>
	<g id="XMLID_28_">
		<path id="XMLID_56_" class="st6" d="M514.8,397.8c0,0-1.4,1-3.9,2.5c-2.5,1.5-6.2,3.5-10.8,5.5c-2.3,1-4.9,1.9-7.7,2.8
			c-2.9,0.8-6,1.5-9.3,1.8s-6.7,0.4-10.1,0.2c-1.7-0.1-3.4-0.2-5-0.4l-1.2-0.1l-0.6-0.1l-0.6-0.1l-0.3-0.1l-2.4-0.4l-0.3-0.1
			l-0.4-0.1l-0.8-0.2l-1.5-0.4c-0.5-0.2-1-0.3-1.5-0.5l-1.4-0.6c-0.9-0.4-1.8-0.7-2.7-1.2c-0.8-0.5-1.7-0.9-2.5-1.4
			c-3.2-2.1-6.1-4.6-8.4-7.4c-0.6-0.7-1.1-1.4-1.6-2.2c-0.3-0.4-0.5-0.7-0.8-1.1c-0.2-0.4-0.4-0.8-0.6-1.1c-0.4-0.8-0.8-1.5-1.2-2.2
			c-0.3-0.8-0.7-1.5-1-2.3c-0.3-0.7-0.6-1.5-0.8-2.3c-0.2-0.8-0.5-1.5-0.6-2.2s-0.3-1.5-0.4-2.2s-0.3-1.4-0.3-2.1
			c-0.1-1.4-0.2-2.7-0.1-3.9s0.1-2.4,0.4-3.5c0.1-0.5,0.2-1,0.3-1.5c0.1-0.5,0.2-1,0.4-1.4c0.3-0.9,0.6-1.7,0.8-2.4
			c0.5-1.4,1.1-2.5,1.5-3.1c0.4-0.7,0.7-1,0.7-1s0,0.4,0.1,1.2s0.2,1.9,0.5,3.3c0.2,0.7,0.3,1.5,0.4,2.3s0.4,1.7,0.7,2.5
			c0.2,0.9,0.6,1.8,0.9,2.8s0.8,1.9,1.2,2.9c0.2,0.5,0.5,1,0.7,1.5c0.3,0.5,0.5,1,0.8,1.5s0.6,0.9,0.9,1.4s0.6,1,1,1.4
			c0.4,0.5,0.7,0.9,1.1,1.4s0.8,0.9,1.2,1.3l0.6,0.7l0.7,0.6c0.5,0.4,0.9,0.9,1.3,1.2c1.9,1.6,4,3,6.2,4.1c0.6,0.3,1.1,0.5,1.7,0.8
			s1.2,0.4,1.8,0.7l0.9,0.3l0.8,0.2l0.8,0.2l0.4,0.1l0.2,0.1l0.3,0.1l2.4,0.5l0.3,0.1h0.1h0.1c0.3,0.1-0.4-0.1-0.3,0l0,0l0.6,0.1
			l1.1,0.2c1.5,0.2,3,0.4,4.5,0.7c3,0.4,5.8,0.7,8.5,0.9s5.4,0.3,8,0.2c2.6,0,5.2-0.1,7.6-0.3c4.8-0.2,8.9-0.3,11.8-0.3
			C513.1,397.6,514.8,397.8,514.8,397.8z"/>
	</g>
	<g id="XMLID_27_">
		<path id="XMLID_54_" class="st6" d="M472.5,356.5c0,0-1.4,1-3.9,2.5s-6.2,3.5-10.8,5.5c-2.3,1-4.9,1.9-7.7,2.8
			c-2.9,0.8-6,1.5-9.3,1.8s-6.7,0.4-10.1,0.2c-1.7-0.1-3.4-0.2-5-0.4l-1.2-0.1l-0.6-0.1l-0.6-0.1l-0.3-0.1l-2.4-0.4l-0.3-0.1
			l-0.4-0.1l-0.8-0.2l-1.5-0.4c-0.5-0.2-1-0.3-1.5-0.5l-1.4-0.6c-0.9-0.4-1.8-0.7-2.7-1.2c-0.8-0.5-1.7-0.9-2.5-1.4
			c-3.2-2.1-6.1-4.6-8.4-7.4c-0.6-0.7-1.1-1.4-1.6-2.2c-0.3-0.4-0.5-0.7-0.8-1.1c-0.2-0.4-0.4-0.8-0.6-1.1c-0.4-0.8-0.8-1.5-1.2-2.2
			c-0.3-0.8-0.7-1.5-1-2.3c-0.3-0.7-0.6-1.5-0.8-2.3c-0.2-0.8-0.5-1.5-0.6-2.2s-0.3-1.5-0.4-2.2s-0.3-1.4-0.3-2.1
			c-0.1-1.4-0.2-2.7-0.1-3.9s0.1-2.4,0.4-3.5c0.1-0.5,0.2-1,0.3-1.5c0.1-0.5,0.2-1,0.4-1.4c0.3-0.9,0.6-1.7,0.8-2.4
			c0.5-1.4,1.1-2.5,1.5-3.1c0.4-0.7,0.7-1,0.7-1s0,0.4,0.1,1.2s0.2,1.9,0.5,3.3c0.2,0.7,0.3,1.5,0.4,2.3s0.4,1.7,0.7,2.5
			c0.2,0.9,0.6,1.8,0.9,2.8s0.8,1.9,1.2,2.9c0.2,0.5,0.5,1,0.7,1.5c0.3,0.5,0.5,1,0.8,1.5s0.6,0.9,0.9,1.4s0.6,1,1,1.4
			c0.4,0.5,0.7,0.9,1.1,1.4s0.8,0.9,1.2,1.3l0.6,0.7l0.7,0.6c0.5,0.4,0.9,0.9,1.3,1.2c1.9,1.6,4,3,6.2,4.1c0.6,0.3,1.1,0.5,1.7,0.8
			s1.2,0.4,1.8,0.7l0.9,0.3l0.8,0.2l0.8,0.2l0.4,0.1l0.2,0.1l0.3,0.1l2.4,0.5l0.3,0.1h0.1h0.1c0.3,0.1-0.4-0.1-0.3,0l0,0l0.6,0.1
			l1.1,0.2c1.5,0.2,3,0.4,4.5,0.7c3,0.4,5.8,0.7,8.5,0.9s5.4,0.3,8,0.2c2.6,0,5.2-0.1,7.6-0.3c4.8-0.2,8.9-0.3,11.8-0.3
			C470.8,356.4,472.5,356.5,472.5,356.5z"/>
	</g>
	<g id="XMLID_26_">
		<path id="XMLID_52_" class="st6" d="M428.7,318.9c0,0-0.6,0.2-1.6,0.6c-1.1,0.4-2.6,1-4.7,1.6c-2,0.7-4.5,1.4-7.3,2.2
			c-2.9,0.8-6.1,1.5-9.9,2c-1.9,0.3-3.8,0.4-5.9,0.6c-2.1,0.1-4.2,0.1-6.4-0.1c-4.4-0.3-8.9-1-13.4-2l-0.4-0.1l-0.6-0.1l-0.8-0.2
			l-0.4-0.1l-0.5-0.2l-1-0.3c-1.4-0.5-2.6-0.9-3.9-1.5c-2.5-1.1-4.9-2.6-7.2-4.3c-4.5-3.4-8.2-8.1-10.7-13.3
			c-1.2-2.6-2.2-5.4-2.8-8.2c-0.6-2.8-0.9-5.7-0.8-8.5c0-2.8,0.4-5.6,1.1-8.3c0.2-0.7,0.4-1.3,0.5-2l0.1-0.2l0.1-0.2v-0.1v-0.1
			l0.1-0.4l0.3-0.8l0.2-0.5l0.2-0.5l0.4-1c0.3-0.7,0.6-1.2,0.9-1.8c1.3-2.4,2.8-4.6,4.5-6.5s3.5-3.6,5.4-5c3.8-2.8,7.7-4.7,11.5-5.9
			c3.8-1.2,7.4-1.6,10.5-1.7c3.1,0,5.8,0.4,8,0.9c2.1,0.5,3.7,1.2,4.8,1.6c1,0.5,1.6,0.8,1.6,0.8s-0.6,0-1.7,0s-2.8,0.1-4.8,0.3
			c-2,0.3-4.4,0.7-7,1.6c-2.6,0.8-5.4,2-8.1,3.7c-2.8,1.7-5.5,3.8-7.8,6.4c-1.2,1.3-2.3,2.7-3.2,4.2c-0.9,1.5-1.7,3.1-2.4,4.7
			c-0.1,0.4-0.3,0.8-0.4,1.2l-0.3,1.1l-0.2,0.8l-0.1,0.4v0.1v0.1c-0.1,0.2,0.1-0.2,0-0.1v0.2c-0.1,0.5-0.2,0.9-0.2,1.4
			c-0.3,1.8-0.3,3.7-0.3,5.5c0.2,3.7,1.1,7.4,2.8,10.7c1.6,3.4,4,6.3,6.7,8.8c1.4,1.2,2.9,2.3,4.5,3.2c0.8,0.4,1.6,0.9,2.4,1.2
			l0.5,0.2l0.3,0.1l0.4,0.1l0.8,0.3l0.2,0.1h0.1c-0.1,0,0.2,0.1-0.1,0l0,0l0.4,0.1c4.1,1.4,8,2.6,11.7,3.5s7.2,1.5,10.6,1.8
			c3.4,0.4,6.6,0.5,9.5,0.7s5.5,0.3,7.5,0.4c2.1,0.1,3.8,0.3,4.9,0.4C428.1,318.8,428.7,318.9,428.7,318.9z"/>
	</g>
	<g id="XMLID_25_">
		<path id="XMLID_50_" class="st6" d="M586.9,323c0,0,1,1.4,2.5,3.9s3.5,6.2,5.5,10.8c1,2.3,1.9,4.9,2.8,7.7c0.8,2.9,1.5,6,1.8,9.3
			s0.4,6.7,0.2,10.1c-0.1,1.7-0.2,3.4-0.4,5l-0.1,1.2l-0.1,0.6l-0.1,0.6l-0.1,0.3l-0.4,2.4l-0.1,0.3l-0.1,0.4l-0.2,0.8l-0.4,1.5
			c-0.2,0.5-0.3,1-0.5,1.5l-0.6,1.4c-0.4,0.9-0.7,1.8-1.2,2.7c-0.5,0.8-0.9,1.7-1.4,2.5c-2.1,3.2-4.6,6.1-7.4,8.4
			c-0.7,0.6-1.4,1.1-2.2,1.6c-0.4,0.3-0.7,0.5-1.1,0.8c-0.4,0.2-0.8,0.4-1.1,0.6c-0.8,0.4-1.5,0.8-2.2,1.2c-0.8,0.3-1.5,0.7-2.3,1
			c-0.7,0.3-1.5,0.6-2.3,0.8s-1.5,0.5-2.2,0.6s-1.5,0.3-2.2,0.4c-0.7,0.1-1.4,0.3-2.1,0.3c-1.4,0.1-2.7,0.2-3.9,0.1
			c-1.2-0.1-2.4-0.1-3.5-0.4c-0.5-0.1-1-0.2-1.5-0.3s-1-0.2-1.4-0.4c-0.9-0.3-1.7-0.6-2.4-0.8c-1.4-0.5-2.5-1.1-3.1-1.5
			c-0.7-0.4-1-0.7-1-0.7s0.4,0,1.2-0.1s1.9-0.2,3.3-0.5c0.7-0.2,1.5-0.3,2.3-0.4c0.8-0.1,1.7-0.4,2.5-0.7c0.9-0.2,1.8-0.6,2.8-0.9
			c1-0.3,1.9-0.8,2.9-1.2c0.5-0.2,1-0.5,1.5-0.7c0.5-0.3,1-0.5,1.5-0.8s0.9-0.6,1.4-0.9c0.5-0.3,1-0.6,1.4-1
			c0.5-0.4,0.9-0.7,1.4-1.1c0.5-0.4,0.9-0.8,1.3-1.2l0.7-0.6l0.6-0.7c0.4-0.5,0.9-0.9,1.2-1.3c1.6-1.9,3-4,4.1-6.2
			c0.3-0.6,0.5-1.1,0.8-1.7c0.3-0.6,0.4-1.2,0.7-1.8l0.3-0.9l0.2-0.8l0.2-0.8l0.1-0.4l0.1-0.2l0.1-0.3l0.5-2.4l0.1-0.3v-0.1v-0.1
			c0.1-0.3-0.1,0.4,0,0.3l0,0l0.1-0.6l0.2-1.1c0.2-1.5,0.4-3,0.7-4.5c0.4-3,0.7-5.8,0.9-8.5s0.3-5.4,0.2-8c0-2.6-0.1-5.2-0.3-7.6
			c-0.2-4.8-0.3-8.9-0.3-11.8C586.8,324.7,586.9,323,586.9,323z"/>
	</g>
	<g id="XMLID_24_">
		<path id="XMLID_48_" class="st6" d="M521.7,168.2c0,0,1.4-1,3.9-2.5s6.2-3.5,10.8-5.5c2.3-1,4.9-1.9,7.7-2.8
			c2.9-0.8,6-1.5,9.3-1.8s6.7-0.4,10.1-0.2c1.7,0.1,3.4,0.2,5,0.4l1.2,0.1l0.6,0.1l0.6,0.1l0.3,0.1l2.4,0.4l0.3,0.1l0.4,0.1l0.8,0.2
			l1.5,0.4c0.5,0.2,1,0.3,1.5,0.5l1.4,0.6c0.9,0.4,1.8,0.7,2.7,1.2c0.8,0.5,1.7,0.9,2.5,1.4c3.2,2.1,6.1,4.6,8.4,7.4
			c0.6,0.7,1.1,1.4,1.6,2.2c0.3,0.4,0.5,0.7,0.8,1.1c0.2,0.4,0.4,0.8,0.6,1.1c0.4,0.8,0.8,1.5,1.2,2.2c0.3,0.8,0.7,1.5,1,2.3
			c0.3,0.7,0.6,1.5,0.8,2.3s0.5,1.5,0.6,2.2s0.3,1.5,0.4,2.2c0.1,0.7,0.3,1.4,0.3,2.1c0.1,1.4,0.2,2.7,0.1,3.9
			c-0.1,1.2-0.1,2.4-0.4,3.5c-0.1,0.5-0.2,1-0.3,1.5s-0.2,1-0.4,1.4c-0.3,0.9-0.6,1.7-0.8,2.4c-0.5,1.4-1.1,2.5-1.5,3.1
			c-0.4,0.7-0.7,1-0.7,1s0-0.4-0.1-1.2c-0.1-0.8-0.2-1.9-0.5-3.3c-0.2-0.7-0.3-1.5-0.4-2.3c-0.1-0.8-0.4-1.7-0.7-2.5
			c-0.2-0.9-0.6-1.8-0.9-2.8c-0.3-1-0.8-1.9-1.2-2.9c-0.2-0.5-0.5-1-0.7-1.5c-0.3-0.5-0.5-1-0.8-1.5s-0.6-0.9-0.9-1.4
			c-0.3-0.5-0.6-1-1-1.4c-0.4-0.5-0.7-0.9-1.1-1.4c-0.4-0.5-0.8-0.9-1.2-1.3l-0.6-0.7l-0.7-0.6c-0.5-0.4-0.9-0.9-1.3-1.2
			c-1.9-1.6-4-3-6.2-4.1c-0.6-0.3-1.1-0.5-1.7-0.8c-0.6-0.3-1.2-0.4-1.8-0.7l-0.9-0.3l-0.8-0.2l-0.8-0.2l-0.4-0.1l-0.2-0.1l-0.3-0.1
			l-2.4-0.5l-0.3-0.1h-0.1h-0.1c-0.3-0.1,0.4,0.1,0.3,0l0,0l-0.6-0.1l-1.1-0.2c-1.5-0.2-3-0.4-4.5-0.7c-3-0.4-5.8-0.7-8.5-0.9
			c-2.7-0.2-5.4-0.3-8-0.2c-2.6,0-5.2,0.1-7.6,0.3c-4.8,0.2-8.9,0.3-11.8,0.3C523.4,168.3,521.7,168.2,521.7,168.2z"/>
	</g>
	<g id="XMLID_23_">
		<path id="XMLID_46_" class="st6" d="M638.5,244.3c0,0,0-0.4-0.1-1.2c-0.1-0.8-0.2-2-0.5-3.3c-0.1-0.7-0.3-1.5-0.4-2.4
			c-0.1-0.4-0.2-0.9-0.3-1.3s-0.2-0.8-0.4-1.3c-0.2-0.8-0.6-1.8-0.9-2.7c-0.3-1-0.8-1.9-1.2-2.9s-1-1.9-1.5-2.9
			c-0.3-0.5-0.6-1-0.9-1.4c-0.3-0.5-0.6-1-1-1.4c-1.3-1.9-3.1-3.6-4.9-5.3c-1.9-1.6-4-3-6.2-4.1s-4.6-2-7.1-2.6
			c-2.2-0.5-5.8-1-8.6-1.4c-3-0.4-5.8-0.7-8.5-0.9c-2.7-0.2-5.4-0.3-8-0.2c-1.3,0-2.6,0.1-3.9,0.1c-1.3,0-2.5,0.1-3.7,0.1
			c-4.8,0.2-8.9,0.3-11.9,0.3c-2.9,0-4.6-0.2-4.6-0.2s1.4-1,3.9-2.5c1.3-0.7,2.8-1.6,4.6-2.6c1.8-0.9,3.9-1.9,6.2-2.9
			s4.9-1.9,7.7-2.8c2.9-0.8,6-1.5,9.3-1.8s6.7-0.4,10.1-0.2c0.8,0,1.7,0.1,2.5,0.2c0.9,0.1,1.7,0.1,2.5,0.2c1.4,0.1,3.6,0.5,5.5,0.9
			c3.8,0.9,7.5,2.4,10.8,4.5c3.2,2.1,6.1,4.6,8.4,7.4c0.6,0.7,1.1,1.4,1.6,2.2c0.3,0.4,0.5,0.7,0.8,1.1c0.2,0.4,0.4,0.8,0.6,1.1
			c0.4,0.8,0.8,1.5,1.2,2.2c0.3,0.8,0.7,1.5,1,2.3c0.3,0.7,0.6,1.5,0.8,2.3s0.5,1.5,0.6,2.2s0.3,1.5,0.4,2.2
			c0.1,0.7,0.2,1.4,0.3,2.1c0.1,1.4,0.2,2.7,0.1,3.9c-0.1,1.2-0.1,2.4-0.4,3.5c-0.1,0.5-0.2,1.1-0.3,1.6c-0.1,0.3-0.1,0.5-0.2,0.7
			c-0.1,0.2-0.1,0.4-0.2,0.6c-0.3,0.8-0.6,1.6-0.8,2.3c-0.3,0.8-0.6,1.3-0.8,1.9c-0.3,0.5-0.5,1-0.7,1.3
			C638.8,244,638.5,244.3,638.5,244.3z"/>
	</g>
</g>
<circle id="XMLID_109_" class="st4" cx="640.3" cy="514.2" r="32"/>
<path class="st7" d="M592.9,271.8c1.6-0.6-0.4-6.5-1.5-9.1c-1.8-4.1-6.3-5.4-6.9-5.3c-1.7,0.3-0.1,1.9,5,9.2
	C591.6,269.5,591.3,272.4,592.9,271.8z"/>
<circle class="st8" cx="591.7" cy="266.5" r="5.6"/>
<circle class="st8" cx="457.7" cy="266.5" r="5.6"/>
</svg>
