<?xml version="1.0" encoding="UTF-8" standalone="no"?>
<!-- Generator: Adobe Illustrator 19.0.0, SVG Export Plug-In . SVG Version: 6.00 Build 0)  -->

<svg
   xmlns:dc="http://purl.org/dc/elements/1.1/"
   xmlns:cc="http://creativecommons.org/ns#"
   xmlns:rdf="http://www.w3.org/1999/02/22-rdf-syntax-ns#"
   xmlns:svg="http://www.w3.org/2000/svg"
   xmlns="http://www.w3.org/2000/svg"
   xmlns:xlink="http://www.w3.org/1999/xlink"
   xmlns:sodipodi="http://sodipodi.sourceforge.net/DTD/sodipodi-0.dtd"
   xmlns:inkscape="http://www.inkscape.org/namespaces/inkscape"
   version="1.1"
   id="Layer_1"
   x="0px"
   y="0px"
   viewBox="20 -220 554.38147 554.46136"
   xml:space="preserve"
   sodipodi:docname="BerryLogo.svg"
   width="554.38147"
   height="554.46136"
   inkscape:version="0.92.5 (2060ec1f9f, 2020-04-08)"><metadata
   id="metadata93"><rdf:RDF><cc:Work
       rdf:about=""><dc:format>image/svg+xml</dc:format><dc:type
         rdf:resource="http://purl.org/dc/dcmitype/StillImage" /><dc:title></dc:title></cc:Work></rdf:RDF></metadata><defs
   id="defs91" /><sodipodi:namedview
   pagecolor="#ffffff"
   bordercolor="#666666"
   borderopacity="1"
   objecttolerance="10"
   gridtolerance="10"
   guidetolerance="10"
   inkscape:pageopacity="0"
   inkscape:pageshadow="2"
   inkscape:window-width="1337"
   inkscape:window-height="891"
   id="namedview89"
   showgrid="false"
   fit-margin-top="0"
   fit-margin-left="0"
   fit-margin-right="0"
   fit-margin-bottom="0"
   inkscape:zoom="0.236"
   inkscape:cx="285.70092"
   inkscape:cy="277.22545"
   inkscape:window-x="1877"
   inkscape:window-y="89"
   inkscape:window-maximized="0"
   inkscape:current-layer="Layer_1" />
<style
   type="text/css"
   id="style2">
	.st0{display:none;}
	.st1{fill:none;stroke:#4D4D4D;stroke-width:4;stroke-miterlimit:10;}
	.st2{fill:#FF8594;}
	.st3{fill:#FFFFFF;stroke:#FF1B53;stroke-width:5;stroke-miterlimit:10;}
	.st4{fill:#002559;}
	.st5{fill:none;stroke:#FF8594;stroke-width:5;stroke-miterlimit:10;}
	.st6{fill:#FF1B53;}
	.st7{display:none;fill:#FFF1F1;}
	.st8{fill:#FFFFFF;}
</style>
<g
   id="Layer_1_1_"
   class="st0"
   style="display:none"
   transform="translate(-222.77365,-222.76405)">
	
		<image
   sodipodi:absref="/home/ricardo/github/berry/docs/figures/1508CEED.jpeg"
   xlink:href="1508CEED.jpeg"
   transform="matrix(1.1994,0,0,1.1995,-123.7094,-160.9144)"
   id="XMLID_2_"
   height="716"
   width="1273"
   style="display:inline;overflow:visible;enable-background:new">
	</image>
</g>
<g
   id="Layer_2"
   transform="translate(-222.77365,-222.76405)">
	
		<ellipse
   id="XMLID_4_"
   transform="matrix(0.7071,0.7071,-0.7071,0.7071,350.2964,-285.6902)"
   class="st1"
   cx="520"
   cy="280"
   rx="373.70001"
   ry="108.5"
   style="fill:none;stroke:#4d4d4d;stroke-width:4;stroke-miterlimit:10" />
	
		<ellipse
   id="XMLID_5_"
   transform="matrix(0.7071,-0.7071,0.7071,0.7071,-45.6806,449.7037)"
   class="st1"
   cx="520"
   cy="280"
   rx="373.70001"
   ry="108.5"
   style="fill:none;stroke:#4d4d4d;stroke-width:4;stroke-miterlimit:10" />
</g>
<polygon
   id="XMLID_29_"
   class="st2"
   points="434.5,210 485.4,161.3 550.2,161.8 599.3,204.1 641.9,247.2 637.5,311.3 596.4,354.9 555.1,397.8 486.7,406 443.5,364.8 404.1,323.7 385.4,283.2 409.1,258.5 "
   style="fill:#ff8594"
   transform="translate(-222.77365,-222.76405)" />
<g
   id="XMLID_32_"
   transform="translate(-222.77365,-222.76405)">
	<g
   id="XMLID_10_">
		<path
   id="XMLID_114_"
   class="st2"
   d="m 602.9,248.6 c 24.2,-3.3 30.9,-3.5 48.1,1.2 17.1,4.7 27.2,22.4 22.5,39.5 -4.7,17.1 -22.4,27.2 -39.5,22.5"
   inkscape:connector-curvature="0"
   style="fill:#ff8594" />
		<path
   id="XMLID_113_"
   class="st2"
   d="m 602.9,248.6 c 0,0 2.2,-0.9 6.2,-2.2 2,-0.7 4.4,-1.4 7.2,-2.2 2.8,-0.8 6,-1.5 9.7,-2 3.6,-0.5 7.8,-0.8 12.1,-0.6 4.3,0.3 8.8,0.9 13.2,1.9 l 0.8,0.2 0.4,0.1 0.7,0.2 c 0.5,0.1 1.1,0.3 1.6,0.4 l 0.8,0.2 0.4,0.1 0.5,0.2 c 0.7,0.3 1.4,0.5 2,0.8 1.4,0.5 2.6,1.2 3.8,1.8 l 0.9,0.5 0.9,0.6 1.7,1.2 c 4.6,3.2 8.4,7.6 11,12.7 2.7,5 4.2,10.7 4.3,16.2 0.1,0.7 0,1.4 0,2.1 0,0.7 -0.1,1.4 -0.1,2.1 -0.1,1.4 -0.4,2.7 -0.6,4.1 -0.3,1.3 -0.7,2.6 -1,3.9 v 0.1 l -0.1,0.4 v 0 l -0.1,0.2 -0.1,0.4 -0.3,0.8 c -0.2,0.5 -0.4,1 -0.6,1.5 -0.6,1.2 -1.2,2.5 -1.8,3.7 -0.7,1.1 -1.4,2.2 -2.1,3.2 -0.8,1 -1.6,1.9 -2.3,2.9 -0.8,0.9 -1.7,1.7 -2.5,2.5 -3.5,3.1 -7.4,5.3 -11.1,6.7 -3.7,1.3 -7.3,2 -10.4,2 -0.4,0 -0.8,0 -1.1,0 -0.4,0 -0.7,0 -1.1,-0.1 -0.7,0 -1.4,-0.1 -2.1,-0.2 -1.3,-0.2 -2.5,-0.4 -3.6,-0.7 -1,-0.3 -2,-0.6 -2.7,-0.9 -0.8,-0.3 -1.4,-0.6 -1.9,-0.8 -1,-0.5 -1.6,-0.8 -1.6,-0.8 0,0 0.6,0 1.7,0 0.6,0 1.2,0 2,-0.1 0.8,-0.1 1.7,-0.2 2.7,-0.2 1,-0.2 2,-0.4 3.2,-0.6 0.6,-0.2 1.2,-0.3 1.8,-0.5 0.3,-0.1 0.6,-0.2 0.9,-0.2 0.3,-0.1 0.6,-0.2 0.9,-0.3 0.6,-0.2 1.3,-0.5 1.9,-0.7 0.6,-0.3 1.3,-0.6 1.9,-0.9 0.7,-0.3 1.3,-0.7 1.9,-1.1 0.3,-0.2 0.7,-0.4 1,-0.6 0.3,-0.2 0.6,-0.4 0.9,-0.7 2.6,-1.7 5,-4 7.1,-6.7 0.5,-0.7 1,-1.4 1.5,-2.1 0.4,-0.7 0.9,-1.5 1.3,-2.2 0.3,-0.8 0.7,-1.6 1.1,-2.4 0.2,-0.8 0.5,-1.4 0.8,-2.2 0.1,-0.5 0.3,-1.1 0.4,-1.6 l 0.2,-0.8 0.1,-0.4 0.1,-0.2 v -0.1 c -0.2,0.6 0,0.1 -0.1,0.3 v -0.1 c 0.1,-0.9 0.3,-1.8 0.4,-2.7 0,-0.9 0.1,-1.8 0.1,-2.7 v -1.4 c 0,-0.5 0,-0.9 -0.1,-1.4 -0.3,-3.6 -1.4,-7.2 -3.1,-10.4 -1.7,-3.2 -4,-6.1 -6.9,-8.4 l -1.1,-0.8 -0.5,-0.4 -0.6,-0.4 c -0.8,-0.5 -1.5,-1 -2.2,-1.3 -0.3,-0.2 -0.7,-0.4 -1,-0.6 l -0.3,-0.1 -0.4,-0.2 -0.8,-0.3 c -0.5,-0.2 -1,-0.4 -1.6,-0.6 l -0.2,-0.1 h -0.1 v 0 c -0.3,-0.1 0.3,0.1 0.3,0.1 l -0.4,-0.1 -0.8,-0.2 c -4,-1.3 -7.8,-2.6 -11.5,-3.4 -3.6,-0.9 -7.1,-1.4 -10.5,-1.7 -3.3,-0.3 -6.5,-0.5 -9.4,-0.7 -2.9,-0.2 -5.4,-0.3 -7.4,-0.4 -3.8,-0.3 -6.2,-0.6 -6.2,-0.6 z"
   inkscape:connector-curvature="0"
   style="fill:#ff8594" />
	</g>
	<g
   id="XMLID_11_">
		<path
   id="XMLID_111_"
   class="st2"
   d="m 406.5,283.7 c -6.5,-23.5 -7.6,-30.2 -5.2,-47.8 2.4,-17.6 18.6,-29.9 36.2,-27.5 1.3,0.2 2.7,0.4 3.9,0.8"
   inkscape:connector-curvature="0"
   style="fill:#ff8594" />
		<path
   id="XMLID_110_"
   class="st2"
   d="m 406.5,283.7 c 0,0 -1,-1.4 -2.5,-3.9 -1.5,-2.5 -3.5,-6.2 -5.5,-10.8 -1,-2.3 -1.9,-4.9 -2.8,-7.7 -0.8,-2.9 -1.5,-6 -1.8,-9.3 -0.3,-3.3 -0.4,-6.7 -0.2,-10.1 0.1,-1.7 0.2,-3.4 0.4,-5 l 0.1,-1.2 0.1,-0.6 0.1,-0.6 0.1,-0.3 0.4,-2.4 0.1,-0.3 0.1,-0.4 0.2,-0.8 0.4,-1.5 c 0.2,-0.5 0.3,-1 0.5,-1.5 l 0.6,-1.4 c 0.4,-0.9 0.7,-1.8 1.2,-2.7 0.5,-0.8 0.9,-1.7 1.4,-2.5 2.1,-3.2 4.6,-6.1 7.4,-8.4 0.7,-0.6 1.4,-1.1 2.2,-1.6 0.4,-0.3 0.7,-0.5 1.1,-0.8 0.4,-0.2 0.8,-0.4 1.1,-0.6 0.8,-0.4 1.5,-0.8 2.2,-1.2 0.8,-0.3 1.5,-0.7 2.3,-1 0.7,-0.3 1.5,-0.6 2.3,-0.8 0.8,-0.2 1.5,-0.5 2.2,-0.6 0.7,-0.1 1.5,-0.3 2.2,-0.4 0.7,-0.1 1.4,-0.3 2.1,-0.3 1.4,-0.1 2.7,-0.2 3.9,-0.1 1.2,0.1 2.4,0.1 3.5,0.4 0.5,0.1 1,0.2 1.5,0.3 0.5,0.1 1,0.2 1.4,0.4 0.9,0.3 1.7,0.6 2.4,0.8 1.4,0.5 2.5,1.1 3.1,1.5 0.7,0.4 1,0.7 1,0.7 0,0 -0.4,0 -1.2,0.1 -0.8,0.1 -1.9,0.2 -3.3,0.5 -0.7,0.2 -1.5,0.3 -2.3,0.4 -0.8,0.1 -1.7,0.4 -2.5,0.7 -0.9,0.2 -1.8,0.6 -2.8,0.9 -1,0.3 -1.9,0.8 -2.9,1.2 -0.5,0.2 -1,0.5 -1.5,0.7 -0.5,0.3 -1,0.5 -1.5,0.8 -0.5,0.3 -0.9,0.6 -1.4,0.9 -0.5,0.3 -1,0.6 -1.4,1 -0.5,0.4 -0.9,0.7 -1.4,1.1 -0.5,0.4 -0.9,0.8 -1.3,1.2 l -0.7,0.6 -0.6,0.7 c -0.4,0.5 -0.9,0.9 -1.2,1.3 -1.6,1.9 -3,4 -4.1,6.2 -0.3,0.6 -0.5,1.1 -0.8,1.7 -0.3,0.6 -0.4,1.2 -0.7,1.8 l -0.3,0.9 -0.2,0.8 -0.2,0.8 -0.1,0.4 -0.1,0.2 -0.1,0.3 -0.5,2.4 -0.1,0.3 v 0.1 0.1 c -0.1,0.3 0.1,-0.4 0,-0.3 v 0 l -0.1,0.6 -0.2,1.1 c -0.2,1.5 -0.4,3 -0.7,4.5 -0.4,3 -0.7,5.8 -0.9,8.5 -0.2,2.7 -0.3,5.4 -0.2,8 0,2.6 0.1,5.2 0.3,7.6 0.2,4.8 0.3,8.9 0.3,11.8 0.1,3 -0.1,4.8 -0.1,4.8 z"
   inkscape:connector-curvature="0"
   style="fill:#ff8594" />
	</g>
	<g
   id="XMLID_8_">
		<path
   id="XMLID_107_"
   class="st2"
   d="m 447.8,241.4 c -6.5,-23.5 -7.6,-30.2 -5.2,-47.8 2.4,-17.6 18.6,-29.9 36.2,-27.5 1.3,0.2 2.7,0.4 3.9,0.8"
   inkscape:connector-curvature="0"
   style="fill:#ff8594" />
		<path
   id="XMLID_106_"
   class="st2"
   d="m 447.8,241.4 c 0,0 -1,-1.4 -2.5,-3.9 -1.5,-2.5 -3.5,-6.2 -5.5,-10.8 -1,-2.3 -1.9,-4.9 -2.8,-7.7 -0.8,-2.9 -1.5,-6 -1.8,-9.3 -0.3,-3.3 -0.4,-6.7 -0.2,-10.1 0.1,-1.7 0.2,-3.4 0.4,-5 l 0.1,-1.2 0.1,-0.6 0.1,-0.6 0.1,-0.3 0.4,-2.4 0.1,-0.3 0.1,-0.4 0.2,-0.8 0.4,-1.5 c 0.2,-0.5 0.3,-1 0.5,-1.5 l 0.6,-1.4 c 0.4,-0.9 0.7,-1.8 1.2,-2.7 0.5,-0.8 0.9,-1.7 1.4,-2.5 2.1,-3.2 4.6,-6.1 7.4,-8.4 0.7,-0.6 1.4,-1.1 2.2,-1.6 0.4,-0.3 0.7,-0.5 1.1,-0.8 0.4,-0.2 0.8,-0.4 1.1,-0.6 0.8,-0.4 1.5,-0.8 2.2,-1.2 0.8,-0.3 1.5,-0.7 2.3,-1 0.7,-0.3 1.5,-0.6 2.3,-0.8 0.8,-0.2 1.5,-0.5 2.2,-0.6 0.7,-0.1 1.5,-0.3 2.2,-0.4 0.7,-0.1 1.4,-0.3 2.1,-0.3 1.4,-0.1 2.7,-0.2 3.9,-0.1 1.2,0.1 2.4,0.1 3.5,0.4 0.5,0.1 1,0.2 1.5,0.3 0.5,0.1 1,0.2 1.4,0.4 0.9,0.3 1.7,0.6 2.4,0.8 1.4,0.5 2.5,1.1 3.1,1.5 0.7,0.4 1,0.7 1,0.7 0,0 -0.4,0 -1.2,0.1 -0.8,0.1 -1.9,0.2 -3.3,0.5 -0.7,0.2 -1.5,0.3 -2.3,0.4 -0.8,0.1 -1.7,0.4 -2.5,0.7 -0.9,0.2 -1.8,0.6 -2.8,0.9 -1,0.3 -1.9,0.8 -2.9,1.2 -0.5,0.2 -1,0.5 -1.5,0.7 -0.5,0.3 -1,0.5 -1.5,0.8 -0.5,0.3 -0.9,0.6 -1.4,0.9 -0.5,0.3 -1,0.6 -1.4,1 -0.5,0.4 -0.9,0.7 -1.4,1.1 -0.5,0.4 -0.9,0.8 -1.3,1.2 l -0.7,0.6 -0.6,0.7 c -0.4,0.5 -0.9,0.9 -1.2,1.3 -1.6,1.9 -3,4 -4.1,6.2 -0.3,0.6 -0.5,1.1 -0.8,1.7 -0.3,0.6 -0.4,1.2 -0.7,1.8 l -0.3,0.9 -0.2,0.8 -0.2,0.8 -0.1,0.4 -0.1,0.2 -0.1,0.3 -0.5,2.4 -0.1,0.3 v 0.1 0.1 c -0.1,0.3 0.1,-0.4 0,-0.3 v 0 l -0.1,0.6 -0.2,1.1 c -0.2,1.5 -0.4,3 -0.7,4.5 -0.4,3 -0.7,5.8 -0.9,8.5 -0.2,2.7 -0.3,5.4 -0.2,8 0,2.6 0.1,5.2 0.3,7.6 0.2,4.8 0.3,8.9 0.3,11.8 0.1,3.1 -0.1,4.8 -0.1,4.8 z"
   inkscape:connector-curvature="0"
   style="fill:#ff8594" />
	</g>
	<g
   id="XMLID_6_">
		<path
   id="XMLID_104_"
   class="st2"
   d="m 489,199.1 c -6.5,-23.5 -7.6,-30.2 -5.2,-47.8 2.4,-17.6 18.6,-29.9 36.2,-27.5 17.6,2.4 29.9,18.6 27.5,36.2"
   inkscape:connector-curvature="0"
   style="fill:#ff8594" />
		<path
   id="XMLID_103_"
   class="st2"
   d="m 489,199.1 c 0,0 -1.2,-2.1 -3,-5.8 -0.9,-1.9 -2,-4.2 -3.1,-6.9 -1.1,-2.7 -2.3,-5.8 -3.3,-9.3 -1,-3.5 -1.9,-7.6 -2.2,-11.9 -0.3,-4.3 -0.2,-8.8 0.1,-13.3 l 0.1,-0.8 v -0.4 l 0.1,-0.7 c 0.1,-0.5 0.1,-1.1 0.2,-1.7 l 0.1,-0.8 0.1,-0.4 0.1,-0.5 c 0.2,-0.7 0.3,-1.4 0.5,-2.1 0.3,-1.5 0.9,-2.7 1.3,-4 l 0.4,-1 0.5,-0.9 0.9,-1.9 c 2.6,-4.9 6.5,-9.3 11.1,-12.6 4.6,-3.3 10,-5.5 15.5,-6.4 0.7,-0.2 1.4,-0.2 2.1,-0.3 l 2.1,-0.2 c 1.4,-0.1 2.7,0 4.1,0 1.4,0.1 2.7,0.3 4,0.5 h 0.1 l 0.4,0.1 h 0.1 0.2 l 0.4,0.1 0.8,0.2 c 0.5,0.1 1.1,0.3 1.6,0.4 1.3,0.4 2.7,0.9 3.9,1.3 1.2,0.5 2.3,1.1 3.4,1.6 1.1,0.6 2.1,1.3 3.1,1.9 1,0.7 1.9,1.4 2.8,2.2 3.6,3 6.2,6.6 8.1,10.1 1.8,3.5 2.9,7 3.3,10.1 0.1,0.4 0.1,0.8 0.2,1.1 0,0.4 0.1,0.7 0.1,1.1 0.1,0.7 0.1,1.4 0.1,2.1 0,1.3 -0.1,2.5 -0.2,3.6 -0.2,1.1 -0.3,2 -0.5,2.8 -0.2,0.8 -0.4,1.5 -0.6,2 -0.4,1.1 -0.5,1.6 -0.5,1.6 0,0 -0.1,-0.6 -0.3,-1.7 -0.1,-0.5 -0.1,-1.2 -0.3,-2 -0.2,-0.8 -0.4,-1.6 -0.6,-2.6 -0.3,-0.9 -0.6,-2 -1,-3.1 -0.2,-0.5 -0.5,-1.1 -0.7,-1.7 -0.1,-0.3 -0.2,-0.6 -0.4,-0.9 -0.1,-0.3 -0.3,-0.6 -0.5,-0.9 -0.3,-0.6 -0.6,-1.2 -0.9,-1.8 -0.4,-0.6 -0.8,-1.2 -1.2,-1.8 -0.4,-0.6 -0.9,-1.2 -1.3,-1.8 -0.2,-0.3 -0.5,-0.6 -0.7,-0.9 -0.2,-0.3 -0.5,-0.6 -0.8,-0.8 -2.1,-2.3 -4.6,-4.4 -7.5,-6.1 -0.8,-0.4 -1.5,-0.8 -2.3,-1.2 -0.8,-0.3 -1.6,-0.6 -2.4,-1 -0.8,-0.2 -1.7,-0.5 -2.5,-0.8 -0.8,-0.1 -1.5,-0.3 -2.3,-0.5 -0.5,-0.1 -1.1,-0.1 -1.6,-0.2 l -0.8,-0.1 -0.4,-0.1 h -0.2 -0.1 c 0.6,0.1 0.1,0 0.3,0 h -0.1 c -0.9,0 -1.8,0 -2.7,0 -0.9,0.1 -1.8,0.1 -2.7,0.2 l -1.3,0.2 c -0.4,0.1 -0.9,0.1 -1.3,0.3 -3.5,0.8 -6.9,2.3 -9.9,4.5 -3,2.1 -5.6,4.8 -7.4,7.9 l -0.7,1.2 -0.3,0.6 -0.3,0.6 c -0.4,0.8 -0.8,1.7 -1,2.4 -0.1,0.4 -0.3,0.7 -0.4,1.1 l -0.1,0.3 -0.1,0.4 -0.2,0.8 c -0.1,0.5 -0.3,1.1 -0.4,1.6 v 0.2 0.1 0.1 c 0,0.3 0.1,-0.3 0,-0.3 l -0.1,0.4 -0.1,0.8 c -0.8,4.2 -1.5,8.1 -1.9,11.8 -0.4,3.7 -0.5,7.2 -0.3,10.6 0.1,3.4 0.3,6.5 0.6,9.4 0.2,2.9 0.4,5.4 0.6,7.4 0.1,4.1 0.1,6.5 0.1,6.5 z"
   inkscape:connector-curvature="0"
   style="fill:#ff8594" />
	</g>
	<g
   id="XMLID_7_">
		<path
   id="XMLID_101_"
   class="st2"
   d="m 628.2,280.7 c 6.5,23.5 7.6,30.2 5.2,47.8 -2.4,17.6 -18.6,29.9 -36.2,27.5 -1.3,-0.2 -2.7,-0.4 -3.9,-0.8"
   inkscape:connector-curvature="0"
   style="fill:#ff8594" />
		<path
   id="XMLID_100_"
   class="st2"
   d="m 628.2,280.7 c 0,0 1,1.4 2.5,3.9 1.5,2.5 3.5,6.2 5.5,10.8 1,2.3 1.9,4.9 2.8,7.7 0.8,2.9 1.5,6 1.8,9.3 0.3,3.3 0.4,6.7 0.2,10.1 -0.1,1.7 -0.2,3.4 -0.4,5 l -0.1,1.2 -0.1,0.6 -0.1,0.6 -0.1,0.3 -0.4,2.4 -0.1,0.3 -0.1,0.4 -0.2,0.8 -0.4,1.5 c -0.2,0.5 -0.3,1 -0.5,1.5 l -0.6,1.4 c -0.4,0.9 -0.7,1.8 -1.2,2.7 -0.5,0.8 -0.9,1.7 -1.4,2.5 -2.1,3.2 -4.6,6.1 -7.4,8.4 -0.7,0.6 -1.4,1.1 -2.2,1.6 -0.4,0.3 -0.7,0.5 -1.1,0.8 -0.4,0.2 -0.8,0.4 -1.1,0.6 -0.8,0.4 -1.5,0.8 -2.2,1.2 -0.8,0.3 -1.5,0.7 -2.3,1 -0.7,0.3 -1.5,0.6 -2.3,0.8 -0.8,0.2 -1.5,0.5 -2.2,0.6 -0.7,0.1 -1.5,0.3 -2.2,0.4 -0.7,0.1 -1.4,0.3 -2.1,0.3 -1.4,0.1 -2.7,0.2 -3.9,0.1 -1.2,-0.1 -2.4,-0.1 -3.5,-0.4 -0.5,-0.1 -1,-0.2 -1.5,-0.3 -0.5,-0.1 -1,-0.2 -1.4,-0.4 -0.9,-0.3 -1.7,-0.6 -2.4,-0.8 -1.4,-0.5 -2.5,-1.1 -3.1,-1.5 -0.7,-0.4 -1,-0.7 -1,-0.7 0,0 0.4,0 1.2,-0.1 0.8,-0.1 1.9,-0.2 3.3,-0.5 0.7,-0.2 1.5,-0.3 2.3,-0.4 0.8,-0.1 1.7,-0.4 2.5,-0.7 0.9,-0.2 1.8,-0.6 2.8,-0.9 1,-0.3 1.9,-0.8 2.9,-1.2 0.5,-0.2 1,-0.5 1.5,-0.7 0.5,-0.3 1,-0.5 1.5,-0.8 0.5,-0.3 0.9,-0.6 1.4,-0.9 0.5,-0.3 1,-0.6 1.4,-1 0.5,-0.4 0.9,-0.7 1.4,-1.1 0.5,-0.4 0.9,-0.8 1.3,-1.2 l 0.7,-0.6 0.6,-0.7 c 0.4,-0.5 0.9,-0.9 1.2,-1.3 1.6,-1.9 3,-4 4.1,-6.2 0.3,-0.6 0.5,-1.1 0.8,-1.7 0.3,-0.6 0.4,-1.2 0.7,-1.8 l 0.3,-0.9 0.2,-0.8 0.2,-0.8 0.1,-0.4 0.1,-0.2 0.1,-0.3 0.5,-2.4 0.1,-0.3 v -0.1 -0.1 c 0.1,-0.3 -0.1,0.4 0,0.3 v 0 l 0.1,-0.6 0.2,-1.1 c 0.2,-1.5 0.4,-3 0.7,-4.5 0.4,-3 0.7,-5.8 0.9,-8.5 0.2,-2.7 0.3,-5.4 0.2,-8 0,-2.6 -0.1,-5.2 -0.3,-7.6 -0.2,-4.8 -0.3,-8.9 -0.3,-11.8 -0.1,-3.1 0.1,-4.8 0.1,-4.8 z"
   inkscape:connector-curvature="0"
   style="fill:#ff8594" />
	</g>
	<g
   id="XMLID_12_">
		<path
   id="XMLID_98_"
   class="st2"
   d="m 545.7,365.3 c 6.5,23.5 7.6,30.2 5.2,47.8 -2.4,17.6 -18.6,29.9 -36.2,27.5 -17.6,-2.4 -29.9,-18.6 -27.5,-36.2"
   inkscape:connector-curvature="0"
   style="fill:#ff8594" />
		<path
   id="XMLID_97_"
   class="st2"
   d="m 545.7,365.3 c 0,0 1.2,2.1 3,5.8 0.9,1.9 2,4.2 3.1,6.9 1.1,2.7 2.3,5.8 3.3,9.3 1,3.5 1.9,7.6 2.2,11.9 0.3,4.3 0.2,8.8 -0.1,13.3 l -0.1,0.8 v 0.4 l -0.1,0.7 c -0.1,0.5 -0.1,1.1 -0.2,1.7 l -0.1,0.8 -0.1,0.4 -0.1,0.5 c -0.2,0.7 -0.3,1.4 -0.5,2.1 -0.3,1.5 -0.9,2.7 -1.3,4 l -0.4,1 -0.5,0.9 -0.9,1.9 c -2.6,4.9 -6.5,9.3 -11.1,12.6 -4.6,3.3 -10,5.5 -15.5,6.4 -0.7,0.2 -1.4,0.2 -2.1,0.3 l -2.1,0.2 c -1.4,0.1 -2.7,0 -4.1,0 -1.4,-0.1 -2.7,-0.3 -4,-0.5 h -0.1 l -0.4,-0.1 h -0.1 -0.2 l -0.4,-0.1 -0.8,-0.2 c -0.5,-0.1 -1.1,-0.3 -1.6,-0.4 -1.3,-0.4 -2.7,-0.9 -3.9,-1.3 -1.2,-0.5 -2.3,-1.1 -3.4,-1.6 -1.1,-0.6 -2.1,-1.3 -3.1,-1.9 -1,-0.7 -1.9,-1.4 -2.8,-2.2 -3.6,-3 -6.2,-6.6 -8.1,-10.1 -1.8,-3.5 -2.9,-7 -3.3,-10.1 -0.1,-0.4 -0.1,-0.8 -0.2,-1.1 0,-0.4 -0.1,-0.7 -0.1,-1.1 -0.1,-0.7 -0.1,-1.4 -0.1,-2.1 0,-1.3 0.1,-2.5 0.2,-3.6 0.2,-1.1 0.3,-2 0.5,-2.8 0.2,-0.8 0.4,-1.5 0.6,-2 0.4,-1.1 0.5,-1.6 0.5,-1.6 0,0 0.1,0.6 0.3,1.7 0.1,0.5 0.1,1.2 0.3,2 0.2,0.8 0.4,1.6 0.6,2.6 0.3,0.9 0.6,2 1,3.1 0.2,0.5 0.5,1.1 0.7,1.7 0.1,0.3 0.2,0.6 0.4,0.9 0.1,0.3 0.3,0.6 0.5,0.9 0.3,0.6 0.6,1.2 0.9,1.8 0.4,0.6 0.8,1.2 1.2,1.8 0.4,0.6 0.9,1.2 1.3,1.8 0.2,0.3 0.5,0.6 0.7,0.9 0.2,0.3 0.5,0.6 0.8,0.8 2.1,2.3 4.6,4.4 7.5,6.1 0.8,0.4 1.5,0.8 2.3,1.2 0.8,0.3 1.6,0.6 2.4,1 0.8,0.2 1.7,0.5 2.5,0.8 0.8,0.1 1.5,0.3 2.3,0.5 0.5,0.1 1.1,0.1 1.6,0.2 l 0.8,0.1 0.4,0.1 h 0.2 0.1 c -0.6,-0.1 -0.1,0 -0.3,0 h 0.1 c 0.9,0 1.8,0 2.7,0 0.9,-0.1 1.8,-0.1 2.7,-0.2 l 1.3,-0.2 c 0.4,-0.1 0.9,-0.1 1.3,-0.3 3.5,-0.8 6.9,-2.3 9.9,-4.5 3,-2.1 5.6,-4.8 7.4,-7.9 l 0.7,-1.2 0.3,-0.6 0.3,-0.6 c 0.4,-0.8 0.8,-1.7 1,-2.4 0.1,-0.4 0.3,-0.7 0.4,-1.1 l 0.1,-0.3 0.1,-0.4 0.2,-0.8 c 0.1,-0.5 0.3,-1.1 0.4,-1.6 v -0.2 -0.1 -0.1 c 0,-0.3 -0.1,0.3 0,0.3 l 0.1,-0.4 0.1,-0.8 c 0.8,-4.2 1.5,-8.1 1.9,-11.8 0.4,-3.7 0.5,-7.2 0.3,-10.6 -0.1,-3.4 -0.3,-6.5 -0.6,-9.4 -0.2,-2.9 -0.4,-5.4 -0.6,-7.4 -0.1,-4.1 -0.1,-6.5 -0.1,-6.5 z"
   inkscape:connector-curvature="0"
   style="fill:#ff8594" />
	</g>
	<g
   id="XMLID_14_">
		<path
   id="XMLID_95_"
   class="st2"
   d="m 514.8,397.8 c -23.5,6.5 -30.2,7.6 -47.8,5.2 -17.6,-2.4 -29.9,-18.6 -27.5,-36.2 0.2,-1.3 0.4,-2.7 0.8,-3.9"
   inkscape:connector-curvature="0"
   style="fill:#ff8594" />
		<path
   id="XMLID_94_"
   class="st2"
   d="m 514.8,397.8 c 0,0 -1.4,1 -3.9,2.5 -2.5,1.5 -6.2,3.5 -10.8,5.5 -2.3,1 -4.9,1.9 -7.7,2.8 -2.9,0.8 -6,1.5 -9.3,1.8 -3.3,0.3 -6.7,0.4 -10.1,0.2 -1.7,-0.1 -3.4,-0.2 -5,-0.4 l -1.2,-0.1 -0.6,-0.1 -0.6,-0.1 -0.3,-0.1 -2.4,-0.4 -0.3,-0.1 -0.4,-0.1 -0.8,-0.2 -1.5,-0.4 c -0.5,-0.2 -1,-0.3 -1.5,-0.5 l -1.4,-0.6 c -0.9,-0.4 -1.8,-0.7 -2.7,-1.2 -0.8,-0.5 -1.7,-0.9 -2.5,-1.4 -3.2,-2.1 -6.1,-4.6 -8.4,-7.4 -0.6,-0.7 -1.1,-1.4 -1.6,-2.2 -0.3,-0.4 -0.5,-0.7 -0.8,-1.1 -0.2,-0.4 -0.4,-0.8 -0.6,-1.1 -0.4,-0.8 -0.8,-1.5 -1.2,-2.2 -0.3,-0.8 -0.7,-1.5 -1,-2.3 -0.3,-0.7 -0.6,-1.5 -0.8,-2.3 -0.2,-0.8 -0.5,-1.5 -0.6,-2.2 -0.1,-0.7 -0.3,-1.5 -0.4,-2.2 -0.1,-0.7 -0.3,-1.4 -0.3,-2.1 -0.1,-1.4 -0.2,-2.7 -0.1,-3.9 0.1,-1.2 0.1,-2.4 0.4,-3.5 0.1,-0.5 0.2,-1 0.3,-1.5 0.1,-0.5 0.2,-1 0.4,-1.4 0.3,-0.9 0.6,-1.7 0.8,-2.4 0.5,-1.4 1.1,-2.5 1.5,-3.1 0.4,-0.7 0.7,-1 0.7,-1 0,0 0,0.4 0.1,1.2 0.1,0.8 0.2,1.9 0.5,3.3 0.2,0.7 0.3,1.5 0.4,2.3 0.1,0.8 0.4,1.7 0.7,2.5 0.2,0.9 0.6,1.8 0.9,2.8 0.3,1 0.8,1.9 1.2,2.9 0.2,0.5 0.5,1 0.7,1.5 0.3,0.5 0.5,1 0.8,1.5 0.3,0.5 0.6,0.9 0.9,1.4 0.3,0.5 0.6,1 1,1.4 0.4,0.5 0.7,0.9 1.1,1.4 0.4,0.5 0.8,0.9 1.2,1.3 l 0.6,0.7 0.7,0.6 c 0.5,0.4 0.9,0.9 1.3,1.2 1.9,1.6 4,3 6.2,4.1 0.6,0.3 1.1,0.5 1.7,0.8 0.6,0.3 1.2,0.4 1.8,0.7 l 0.9,0.3 0.8,0.2 0.8,0.2 0.4,0.1 0.2,0.1 0.3,0.1 2.4,0.5 0.3,0.1 h 0.1 0.1 c 0.3,0.1 -0.4,-0.1 -0.3,0 v 0 l 0.6,0.1 1.1,0.2 c 1.5,0.2 3,0.4 4.5,0.7 3,0.4 5.8,0.7 8.5,0.9 2.7,0.2 5.4,0.3 8,0.2 2.6,0 5.2,-0.1 7.6,-0.3 4.8,-0.2 8.9,-0.3 11.8,-0.3 3.1,-0.1 4.8,0.1 4.8,0.1 z"
   inkscape:connector-curvature="0"
   style="fill:#ff8594" />
	</g>
	<g
   id="XMLID_15_">
		<path
   id="XMLID_92_"
   class="st2"
   d="m 472.5,356.5 c -23.5,6.5 -30.2,7.6 -47.8,5.2 -17.6,-2.4 -29.9,-18.6 -27.5,-36.2 0.2,-1.3 0.4,-2.7 0.8,-3.9"
   inkscape:connector-curvature="0"
   style="fill:#ff8594" />
		<path
   id="XMLID_91_"
   class="st2"
   d="m 472.5,356.5 c 0,0 -1.4,1 -3.9,2.5 -2.5,1.5 -6.2,3.5 -10.8,5.5 -2.3,1 -4.9,1.9 -7.7,2.8 -2.9,0.8 -6,1.5 -9.3,1.8 -3.3,0.3 -6.7,0.4 -10.1,0.2 -1.7,-0.1 -3.4,-0.2 -5,-0.4 l -1.2,-0.1 -0.6,-0.1 -0.6,-0.1 -0.3,-0.1 -2.4,-0.4 -0.3,-0.1 -0.4,-0.1 -0.8,-0.2 -1.5,-0.4 c -0.5,-0.2 -1,-0.3 -1.5,-0.5 l -1.4,-0.6 c -0.9,-0.4 -1.8,-0.7 -2.7,-1.2 -0.8,-0.5 -1.7,-0.9 -2.5,-1.4 -3.2,-2.1 -6.1,-4.6 -8.4,-7.4 -0.6,-0.7 -1.1,-1.4 -1.6,-2.2 -0.3,-0.4 -0.5,-0.7 -0.8,-1.1 -0.2,-0.4 -0.4,-0.8 -0.6,-1.1 -0.4,-0.8 -0.8,-1.5 -1.2,-2.2 -0.3,-0.8 -0.7,-1.5 -1,-2.3 -0.3,-0.7 -0.6,-1.5 -0.8,-2.3 -0.2,-0.8 -0.5,-1.5 -0.6,-2.2 -0.1,-0.7 -0.3,-1.5 -0.4,-2.2 -0.1,-0.7 -0.3,-1.4 -0.3,-2.1 -0.1,-1.4 -0.2,-2.7 -0.1,-3.9 0.1,-1.2 0.1,-2.4 0.4,-3.5 0.1,-0.5 0.2,-1 0.3,-1.5 0.1,-0.5 0.2,-1 0.4,-1.4 0.3,-0.9 0.6,-1.7 0.8,-2.4 0.5,-1.4 1.1,-2.5 1.5,-3.1 0.4,-0.7 0.7,-1 0.7,-1 0,0 0,0.4 0.1,1.2 0.1,0.8 0.2,1.9 0.5,3.3 0.2,0.7 0.3,1.5 0.4,2.3 0.1,0.8 0.4,1.7 0.7,2.5 0.2,0.9 0.6,1.8 0.9,2.8 0.3,1 0.8,1.9 1.2,2.9 0.2,0.5 0.5,1 0.7,1.5 0.3,0.5 0.5,1 0.8,1.5 0.3,0.5 0.6,0.9 0.9,1.4 0.3,0.5 0.6,1 1,1.4 0.4,0.5 0.7,0.9 1.1,1.4 0.4,0.5 0.8,0.9 1.2,1.3 l 0.6,0.7 0.7,0.6 c 0.5,0.4 0.9,0.9 1.3,1.2 1.9,1.6 4,3 6.2,4.1 0.6,0.3 1.1,0.5 1.7,0.8 0.6,0.3 1.2,0.4 1.8,0.7 l 0.9,0.3 0.8,0.2 0.8,0.2 0.4,0.1 0.2,0.1 0.3,0.1 2.4,0.5 0.3,0.1 h 0.1 0.1 c 0.3,0.1 -0.4,-0.1 -0.3,0 v 0 l 0.6,0.1 1.1,0.2 c 1.5,0.2 3,0.4 4.5,0.7 3,0.4 5.8,0.7 8.5,0.9 2.7,0.2 5.4,0.3 8,0.2 2.6,0 5.2,-0.1 7.6,-0.3 4.8,-0.2 8.9,-0.3 11.8,-0.3 3.1,0 4.8,0.1 4.8,0.1 z"
   inkscape:connector-curvature="0"
   style="fill:#ff8594" />
	</g>
	<g
   id="XMLID_9_">
		<path
   id="XMLID_89_"
   class="st2"
   d="m 428.7,318.9 c -24.2,3.3 -30.9,3.5 -48.1,-1.2 -17.1,-4.7 -27.2,-22.4 -22.5,-39.5 4.7,-17.1 25.2,-27.4 42.3,-22.8"
   inkscape:connector-curvature="0"
   style="fill:#ff8594" />
		<path
   id="XMLID_88_"
   class="st2"
   d="m 428.7,318.9 c 0,0 -0.6,0.2 -1.6,0.6 -1.1,0.4 -2.6,1 -4.7,1.6 -2,0.7 -4.5,1.4 -7.3,2.2 -2.9,0.8 -6.1,1.5 -9.9,2 -1.9,0.3 -3.8,0.4 -5.9,0.6 -2.1,0.1 -4.2,0.1 -6.4,-0.1 -4.4,-0.3 -8.9,-1 -13.4,-2 l -0.4,-0.1 -0.6,-0.1 -0.8,-0.2 -0.4,-0.1 -0.5,-0.2 -1,-0.3 c -1.4,-0.5 -2.6,-0.9 -3.9,-1.5 -2.5,-1.1 -4.9,-2.6 -7.2,-4.3 -4.5,-3.4 -8.2,-8.1 -10.7,-13.3 -1.2,-2.6 -2.2,-5.4 -2.8,-8.2 -0.6,-2.8 -0.9,-5.7 -0.8,-8.5 0,-2.8 0.4,-5.6 1.1,-8.3 0.2,-0.7 0.4,-1.3 0.5,-2 l 0.1,-0.2 0.1,-0.2 v -0.1 -0.1 l 0.1,-0.4 0.3,-0.8 0.2,-0.5 0.2,-0.5 0.4,-1 c 0.3,-0.7 0.6,-1.2 0.9,-1.8 1.3,-2.4 2.8,-4.6 4.5,-6.5 1.7,-1.9 3.5,-3.6 5.4,-5 3.8,-2.8 7.7,-4.7 11.5,-5.9 3.8,-1.2 7.4,-1.6 10.5,-1.7 3.1,0 5.8,0.4 8,0.9 2.1,0.5 3.7,1.2 4.8,1.6 1,0.5 1.6,0.8 1.6,0.8 0,0 -0.6,0 -1.7,0 -1.1,0 -2.8,0.1 -4.8,0.3 -2,0.3 -4.4,0.7 -7,1.6 -2.6,0.8 -5.4,2 -8.1,3.7 -2.8,1.7 -5.5,3.8 -7.8,6.4 -1.2,1.3 -2.3,2.7 -3.2,4.2 -0.9,1.5 -1.7,3.1 -2.4,4.7 -0.1,0.4 -0.3,0.8 -0.4,1.2 l -0.3,1.1 -0.2,0.8 -0.1,0.4 v 0.1 0.1 c -0.1,0.2 0.1,-0.2 0,-0.1 v 0.2 c -0.1,0.5 -0.2,0.9 -0.2,1.4 -0.3,1.8 -0.3,3.7 -0.3,5.5 0.2,3.7 1.1,7.4 2.8,10.7 1.6,3.4 4,6.3 6.7,8.8 1.4,1.2 2.9,2.3 4.5,3.2 0.8,0.4 1.6,0.9 2.4,1.2 l 0.5,0.2 0.3,0.1 0.4,0.1 0.8,0.3 0.2,0.1 h 0.1 c -0.1,0 0.2,0.1 -0.1,0 v 0 l 0.4,0.1 c 4.1,1.4 8,2.6 11.7,3.5 3.7,0.9 7.2,1.5 10.6,1.8 3.4,0.4 6.6,0.5 9.5,0.7 2.9,0.2 5.5,0.3 7.5,0.4 2.1,0.1 3.8,0.3 4.9,0.4 0.8,0.3 1.4,0.4 1.4,0.4 z"
   inkscape:connector-curvature="0"
   style="fill:#ff8594" />
	</g>
	<g
   id="XMLID_13_">
		<path
   id="XMLID_86_"
   class="st2"
   d="m 586.9,323 c 6.5,23.5 7.6,30.2 5.2,47.8 -2.4,17.6 -18.6,29.9 -36.2,27.5 -1.3,-0.2 -2.7,-0.4 -3.9,-0.8"
   inkscape:connector-curvature="0"
   style="fill:#ff8594" />
		<path
   id="XMLID_85_"
   class="st2"
   d="m 586.9,323 c 0,0 1,1.4 2.5,3.9 1.5,2.5 3.5,6.2 5.5,10.8 1,2.3 1.9,4.9 2.8,7.7 0.8,2.9 1.5,6 1.8,9.3 0.3,3.3 0.4,6.7 0.2,10.1 -0.1,1.7 -0.2,3.4 -0.4,5 l -0.1,1.2 -0.1,0.6 -0.1,0.6 -0.1,0.3 -0.4,2.4 -0.1,0.3 -0.1,0.4 -0.2,0.8 -0.4,1.5 c -0.2,0.5 -0.3,1 -0.5,1.5 l -0.6,1.4 c -0.4,0.9 -0.7,1.8 -1.2,2.7 -0.5,0.8 -0.9,1.7 -1.4,2.5 -2.1,3.2 -4.6,6.1 -7.4,8.4 -0.7,0.6 -1.4,1.1 -2.2,1.6 -0.4,0.3 -0.7,0.5 -1.1,0.8 -0.4,0.2 -0.8,0.4 -1.1,0.6 -0.8,0.4 -1.5,0.8 -2.2,1.2 -0.8,0.3 -1.5,0.7 -2.3,1 -0.7,0.3 -1.5,0.6 -2.3,0.8 -0.8,0.2 -1.5,0.5 -2.2,0.6 -0.7,0.1 -1.5,0.3 -2.2,0.4 -0.7,0.1 -1.4,0.3 -2.1,0.3 -1.4,0.1 -2.7,0.2 -3.9,0.1 -1.2,-0.1 -2.4,-0.1 -3.5,-0.4 -0.5,-0.1 -1,-0.2 -1.5,-0.3 -0.5,-0.1 -1,-0.2 -1.4,-0.4 -0.9,-0.3 -1.7,-0.6 -2.4,-0.8 -1.4,-0.5 -2.5,-1.1 -3.1,-1.5 -0.7,-0.4 -1,-0.7 -1,-0.7 0,0 0.4,0 1.2,-0.1 0.8,-0.1 1.9,-0.2 3.3,-0.5 0.7,-0.2 1.5,-0.3 2.3,-0.4 0.8,-0.1 1.7,-0.4 2.5,-0.7 0.9,-0.2 1.8,-0.6 2.8,-0.9 1,-0.3 1.9,-0.8 2.9,-1.2 0.5,-0.2 1,-0.5 1.5,-0.7 0.5,-0.3 1,-0.5 1.5,-0.8 0.5,-0.3 0.9,-0.6 1.4,-0.9 0.5,-0.3 1,-0.6 1.4,-1 0.5,-0.4 0.9,-0.7 1.4,-1.1 0.5,-0.4 0.9,-0.8 1.3,-1.2 l 0.7,-0.6 0.6,-0.7 c 0.4,-0.5 0.9,-0.9 1.2,-1.3 1.6,-1.9 3,-4 4.1,-6.2 0.3,-0.6 0.5,-1.1 0.8,-1.7 0.3,-0.6 0.4,-1.2 0.7,-1.8 l 0.3,-0.9 0.2,-0.8 0.2,-0.8 0.1,-0.4 0.1,-0.2 0.1,-0.3 0.5,-2.4 0.1,-0.3 v -0.1 -0.1 c 0.1,-0.3 -0.1,0.4 0,0.3 v 0 l 0.1,-0.6 0.2,-1.1 c 0.2,-1.5 0.4,-3 0.7,-4.5 0.4,-3 0.7,-5.8 0.9,-8.5 0.2,-2.7 0.3,-5.4 0.2,-8 0,-2.6 -0.1,-5.2 -0.3,-7.6 -0.2,-4.8 -0.3,-8.9 -0.3,-11.8 0,-3.1 0.1,-4.8 0.1,-4.8 z"
   inkscape:connector-curvature="0"
   style="fill:#ff8594" />
	</g>
	<g
   id="XMLID_16_">
		<path
   id="XMLID_83_"
   class="st2"
   d="m 521.7,168.2 c 23.5,-6.5 30.2,-7.6 47.8,-5.2 17.6,2.4 29.9,18.6 27.5,36.2 -0.2,1.3 -0.4,2.7 -0.8,3.9"
   inkscape:connector-curvature="0"
   style="fill:#ff8594" />
		<path
   id="XMLID_82_"
   class="st2"
   d="m 521.7,168.2 c 0,0 1.4,-1 3.9,-2.5 2.5,-1.5 6.2,-3.5 10.8,-5.5 2.3,-1 4.9,-1.9 7.7,-2.8 2.9,-0.8 6,-1.5 9.3,-1.8 3.3,-0.3 6.7,-0.4 10.1,-0.2 1.7,0.1 3.4,0.2 5,0.4 l 1.2,0.1 0.6,0.1 0.6,0.1 0.3,0.1 2.4,0.4 0.3,0.1 0.4,0.1 0.8,0.2 1.5,0.4 c 0.5,0.2 1,0.3 1.5,0.5 l 1.4,0.6 c 0.9,0.4 1.8,0.7 2.7,1.2 0.8,0.5 1.7,0.9 2.5,1.4 3.2,2.1 6.1,4.6 8.4,7.4 0.6,0.7 1.1,1.4 1.6,2.2 0.3,0.4 0.5,0.7 0.8,1.1 0.2,0.4 0.4,0.8 0.6,1.1 0.4,0.8 0.8,1.5 1.2,2.2 0.3,0.8 0.7,1.5 1,2.3 0.3,0.7 0.6,1.5 0.8,2.3 0.2,0.8 0.5,1.5 0.6,2.2 0.1,0.7 0.3,1.5 0.4,2.2 0.1,0.7 0.3,1.4 0.3,2.1 0.1,1.4 0.2,2.7 0.1,3.9 -0.1,1.2 -0.1,2.4 -0.4,3.5 -0.1,0.5 -0.2,1 -0.3,1.5 -0.1,0.5 -0.2,1 -0.4,1.4 -0.3,0.9 -0.6,1.7 -0.8,2.4 -0.5,1.4 -1.1,2.5 -1.5,3.1 -0.4,0.7 -0.7,1 -0.7,1 0,0 0,-0.4 -0.1,-1.2 -0.1,-0.8 -0.2,-1.9 -0.5,-3.3 -0.2,-0.7 -0.3,-1.5 -0.4,-2.3 -0.1,-0.8 -0.4,-1.7 -0.7,-2.5 -0.2,-0.9 -0.6,-1.8 -0.9,-2.8 -0.3,-1 -0.8,-1.9 -1.2,-2.9 -0.2,-0.5 -0.5,-1 -0.7,-1.5 -0.3,-0.5 -0.5,-1 -0.8,-1.5 -0.3,-0.5 -0.6,-0.9 -0.9,-1.4 -0.3,-0.5 -0.6,-1 -1,-1.4 -0.4,-0.5 -0.7,-0.9 -1.1,-1.4 -0.4,-0.5 -0.8,-0.9 -1.2,-1.3 l -0.6,-0.7 -0.7,-0.6 c -0.5,-0.4 -0.9,-0.9 -1.3,-1.2 -1.9,-1.6 -4,-3 -6.2,-4.1 -0.6,-0.3 -1.1,-0.5 -1.7,-0.8 -0.6,-0.3 -1.2,-0.4 -1.8,-0.7 l -0.9,-0.3 -0.8,-0.2 -0.8,-0.2 -0.4,-0.1 -0.2,-0.1 -0.3,-0.1 -2.4,-0.5 -0.3,-0.1 h -0.1 -0.1 c -0.3,-0.1 0.4,0.1 0.3,0 v 0 l -0.6,-0.1 -1.1,-0.2 c -1.5,-0.2 -3,-0.4 -4.5,-0.7 -3,-0.4 -5.8,-0.7 -8.5,-0.9 -2.7,-0.2 -5.4,-0.3 -8,-0.2 -2.6,0 -5.2,0.1 -7.6,0.3 -4.8,0.2 -8.9,0.3 -11.8,0.3 -3.1,0 -4.8,-0.1 -4.8,-0.1 z"
   inkscape:connector-curvature="0"
   style="fill:#ff8594" />
	</g>
	<g
   id="XMLID_17_">
		<path
   id="XMLID_80_"
   class="st2"
   d="m 564,209.4 c 23.5,-6.5 30.2,-7.6 47.8,-5.2 17.6,2.4 29.9,18.6 27.5,36.2 -0.2,1.3 -0.4,2.7 -0.8,3.9"
   inkscape:connector-curvature="0"
   style="fill:#ff8594" />
		<path
   id="XMLID_79_"
   class="st2"
   d="m 564,209.4 c 0,0 1.4,-1 3.9,-2.5 2.5,-1.5 6.2,-3.5 10.8,-5.5 2.3,-1 4.9,-1.9 7.7,-2.8 2.9,-0.8 6,-1.5 9.3,-1.8 3.3,-0.3 6.7,-0.4 10.1,-0.2 1.7,0.1 3.4,0.2 5,0.4 l 1.2,0.1 0.6,0.1 0.6,0.1 0.3,0.1 2.4,0.4 0.3,0.1 0.4,0.1 0.8,0.2 1.5,0.4 c 0.5,0.2 1,0.3 1.5,0.5 l 1.4,0.6 c 0.9,0.4 1.8,0.7 2.7,1.2 0.8,0.5 1.7,0.9 2.5,1.4 3.2,2.1 6.1,4.6 8.4,7.4 0.6,0.7 1.1,1.4 1.6,2.2 0.3,0.4 0.5,0.7 0.8,1.1 0.2,0.4 0.4,0.8 0.6,1.1 0.4,0.8 0.8,1.5 1.2,2.2 0.3,0.8 0.7,1.5 1,2.3 0.3,0.7 0.6,1.5 0.8,2.3 0.2,0.8 0.5,1.5 0.6,2.2 0.1,0.7 0.3,1.5 0.4,2.2 0.1,0.7 0.3,1.4 0.3,2.1 0.1,1.4 0.2,2.7 0.1,3.9 -0.1,1.2 -0.1,2.4 -0.4,3.5 -0.1,0.5 -0.2,1 -0.3,1.5 -0.1,0.5 -0.2,1 -0.4,1.4 -0.3,0.9 -0.6,1.7 -0.8,2.4 -0.5,1.4 -1.1,2.5 -1.5,3.1 -0.4,0.7 -0.7,1 -0.7,1 0,0 0,-0.4 -0.1,-1.2 -0.1,-0.8 -0.2,-1.9 -0.5,-3.3 -0.2,-0.7 -0.3,-1.5 -0.4,-2.3 -0.1,-0.8 -0.4,-1.7 -0.7,-2.5 -0.2,-0.9 -0.6,-1.8 -0.9,-2.8 -0.3,-1 -0.8,-1.9 -1.2,-2.9 -0.2,-0.5 -0.5,-1 -0.7,-1.5 -0.3,-0.5 -0.5,-1 -0.8,-1.5 -0.3,-0.5 -0.6,-0.9 -0.9,-1.4 -0.3,-0.5 -0.6,-1 -1,-1.4 -0.4,-0.5 -0.7,-0.9 -1.1,-1.4 -0.4,-0.5 -0.8,-0.9 -1.2,-1.3 l -0.6,-0.7 -0.7,-0.6 c -0.5,-0.4 -0.9,-0.9 -1.3,-1.2 -1.9,-1.6 -4,-3 -6.2,-4.1 -0.6,-0.3 -1.1,-0.5 -1.7,-0.8 -0.6,-0.3 -1.2,-0.4 -1.8,-0.7 l -0.9,-0.3 -0.8,-0.2 -0.8,-0.2 -0.4,-0.1 -0.2,-0.1 -0.3,-0.1 -2.4,-0.5 -0.3,-0.1 h -0.1 -0.1 c -0.3,-0.1 0.4,0.1 0.3,0 v 0 l -0.6,-0.1 -1.1,-0.2 c -1.5,-0.2 -3,-0.4 -4.5,-0.7 -3,-0.4 -5.8,-0.7 -8.5,-0.9 -2.7,-0.2 -5.4,-0.3 -8,-0.2 -2.6,0 -5.2,0.1 -7.6,0.3 -4.8,0.2 -8.9,0.3 -11.8,0.3 -3.1,0.1 -4.8,-0.1 -4.8,-0.1 z"
   inkscape:connector-curvature="0"
   style="fill:#ff8594" />
	</g>
</g>
<g
   id="XMLID_72_"
   transform="translate(-222.77365,-222.76405)">
	<ellipse
   id="XMLID_71_"
   class="st3"
   cx="449.79999"
   cy="282.20001"
   rx="32.700001"
   ry="32.400002"
   style="fill:#ffffff;stroke:#ff1b53;stroke-width:5;stroke-miterlimit:10" />
	<ellipse
   id="XMLID_19_"
   class="st4"
   cx="442.29999"
   cy="282.20001"
   rx="23"
   ry="32.400002"
   style="fill:#002559" />
	<ellipse
   id="XMLID_18_"
   class="st5"
   cx="449.79999"
   cy="282.20001"
   rx="32.700001"
   ry="32.400002"
   style="fill:none;stroke:#ff8594;stroke-width:5;stroke-miterlimit:10" />
</g>
<g
   id="XMLID_31_"
   transform="translate(-222.77365,-222.76405)">
	<ellipse
   id="XMLID_73_"
   class="st3"
   cx="583.5"
   cy="282.20001"
   rx="32.700001"
   ry="32.400002"
   style="fill:#ffffff;stroke:#ff1b53;stroke-width:5;stroke-miterlimit:10" />
	<ellipse
   id="XMLID_21_"
   class="st4"
   cx="574.90002"
   cy="282.20001"
   rx="24.1"
   ry="32.400002"
   style="fill:#002559" />
	<ellipse
   id="XMLID_22_"
   class="st5"
   cx="583.5"
   cy="282.20001"
   rx="32.700001"
   ry="32.400002"
   style="fill:none;stroke:#ff8594;stroke-width:5;stroke-miterlimit:10" />
</g>
<circle
   id="XMLID_36_"
   class="st4"
   cx="177.52634"
   cy="-176.56406"
   r="32"
   style="fill:#002559" />
<g
   id="XMLID_33_"
   transform="translate(-222.77365,-222.76405)">
	<g
   id="XMLID_70_">
		<path
   id="XMLID_77_"
   class="st6"
   d="m 602.9,248.6 c 0,0 2.2,-0.9 6.2,-2.2 2,-0.7 4.4,-1.4 7.2,-2.2 2.8,-0.8 6,-1.5 9.7,-2 3.6,-0.5 7.8,-0.8 12.1,-0.6 4.3,0.3 8.8,0.9 13.2,1.9 l 0.8,0.2 0.4,0.1 0.7,0.2 c 0.5,0.1 1.1,0.3 1.6,0.4 l 0.8,0.2 0.4,0.1 0.5,0.2 c 0.7,0.3 1.4,0.5 2,0.8 1.4,0.5 2.6,1.2 3.8,1.8 l 0.9,0.5 0.9,0.6 1.7,1.2 c 4.6,3.2 8.4,7.6 11,12.7 2.7,5 4.2,10.7 4.3,16.2 0.1,0.7 0,1.4 0,2.1 0,0.7 -0.1,1.4 -0.1,2.1 -0.1,1.4 -0.4,2.7 -0.6,4.1 -0.3,1.3 -0.7,2.6 -1,3.9 v 0.1 l -0.1,0.4 v 0 l -0.1,0.2 -0.1,0.4 -0.3,0.8 c -0.2,0.5 -0.4,1 -0.6,1.5 -0.6,1.2 -1.2,2.5 -1.8,3.7 -0.7,1.1 -1.4,2.2 -2.1,3.2 -0.8,1 -1.6,1.9 -2.3,2.9 -0.8,0.9 -1.7,1.7 -2.5,2.5 -3.5,3.1 -7.4,5.3 -11.1,6.7 -3.7,1.3 -7.3,2 -10.4,2 -0.4,0 -0.8,0 -1.1,0 -0.4,0 -0.7,0 -1.1,-0.1 -0.7,0 -1.4,-0.1 -2.1,-0.2 -1.3,-0.2 -2.5,-0.4 -3.6,-0.7 -1,-0.3 -2,-0.6 -2.7,-0.9 -0.8,-0.3 -1.4,-0.6 -1.9,-0.8 -1,-0.5 -1.6,-0.8 -1.6,-0.8 0,0 0.6,0 1.7,0 0.6,0 1.2,0 2,-0.1 0.8,-0.1 1.7,-0.2 2.7,-0.2 1,-0.2 2,-0.4 3.2,-0.6 0.6,-0.2 1.2,-0.3 1.8,-0.5 0.3,-0.1 0.6,-0.2 0.9,-0.2 0.3,-0.1 0.6,-0.2 0.9,-0.3 0.6,-0.2 1.3,-0.5 1.9,-0.7 0.6,-0.3 1.3,-0.6 1.9,-0.9 0.7,-0.3 1.3,-0.7 1.9,-1.1 0.3,-0.2 0.7,-0.4 1,-0.6 0.3,-0.2 0.6,-0.4 0.9,-0.7 2.6,-1.7 5,-4 7.1,-6.7 0.5,-0.7 1,-1.4 1.5,-2.1 0.4,-0.7 0.9,-1.5 1.3,-2.2 0.3,-0.8 0.7,-1.6 1.1,-2.4 0.2,-0.8 0.5,-1.4 0.8,-2.2 0.1,-0.5 0.3,-1.1 0.4,-1.6 l 0.2,-0.8 0.1,-0.4 0.1,-0.2 v -0.1 c -0.2,0.6 0,0.1 -0.1,0.3 v -0.1 c 0.1,-0.9 0.3,-1.8 0.4,-2.7 0,-0.9 0.1,-1.8 0.1,-2.7 v -1.4 c 0,-0.5 0,-0.9 -0.1,-1.4 -0.3,-3.6 -1.4,-7.2 -3.1,-10.4 -1.7,-3.2 -4,-6.1 -6.9,-8.4 l -1.1,-0.8 -0.5,-0.4 -0.6,-0.4 c -0.8,-0.5 -1.5,-1 -2.2,-1.3 -0.3,-0.2 -0.7,-0.4 -1,-0.6 l -0.3,-0.1 -0.4,-0.2 -0.8,-0.3 c -0.5,-0.2 -1,-0.4 -1.6,-0.6 l -0.2,-0.1 h -0.1 v 0 c -0.3,-0.1 0.3,0.1 0.3,0.1 l -0.4,-0.1 -0.8,-0.2 c -4,-1.3 -7.8,-2.6 -11.5,-3.4 -3.6,-0.9 -7.1,-1.4 -10.5,-1.7 -3.3,-0.3 -6.5,-0.5 -9.4,-0.7 -2.9,-0.2 -5.4,-0.3 -7.4,-0.4 -3.8,-0.3 -6.2,-0.6 -6.2,-0.6 z"
   inkscape:connector-curvature="0"
   style="fill:#ff1b53" />
	</g>
	<g
   id="XMLID_69_">
		<path
   id="XMLID_75_"
   class="st6"
   d="m 406.5,283.7 c 0,0 -1,-1.4 -2.5,-3.9 -1.5,-2.5 -3.5,-6.2 -5.5,-10.8 -1,-2.3 -1.9,-4.9 -2.8,-7.7 -0.8,-2.9 -1.5,-6 -1.8,-9.3 -0.3,-3.3 -0.4,-6.7 -0.2,-10.1 0.1,-1.7 0.2,-3.4 0.4,-5 l 0.1,-1.2 0.1,-0.6 0.1,-0.6 0.1,-0.3 0.4,-2.4 0.1,-0.3 0.1,-0.4 0.2,-0.8 0.4,-1.5 c 0.2,-0.5 0.3,-1 0.5,-1.5 l 0.6,-1.4 c 0.4,-0.9 0.7,-1.8 1.2,-2.7 0.5,-0.8 0.9,-1.7 1.4,-2.5 2.1,-3.2 4.6,-6.1 7.4,-8.4 0.7,-0.6 1.4,-1.1 2.2,-1.6 0.4,-0.3 0.7,-0.5 1.1,-0.8 0.4,-0.2 0.8,-0.4 1.1,-0.6 0.8,-0.4 1.5,-0.8 2.2,-1.2 0.8,-0.3 1.5,-0.7 2.3,-1 0.7,-0.3 1.5,-0.6 2.3,-0.8 0.8,-0.2 1.5,-0.5 2.2,-0.6 0.7,-0.1 1.5,-0.3 2.2,-0.4 0.7,-0.1 1.4,-0.3 2.1,-0.3 1.4,-0.1 2.7,-0.2 3.9,-0.1 1.2,0.1 2.4,0.1 3.5,0.4 0.5,0.1 1,0.2 1.5,0.3 0.5,0.1 1,0.2 1.4,0.4 0.9,0.3 1.7,0.6 2.4,0.8 1.4,0.5 2.5,1.1 3.1,1.5 0.7,0.4 1,0.7 1,0.7 0,0 -0.4,0 -1.2,0.1 -0.8,0.1 -1.9,0.2 -3.3,0.5 -0.7,0.2 -1.5,0.3 -2.3,0.4 -0.8,0.1 -1.7,0.4 -2.5,0.7 -0.9,0.2 -1.8,0.6 -2.8,0.9 -1,0.3 -1.9,0.8 -2.9,1.2 -0.5,0.2 -1,0.5 -1.5,0.7 -0.5,0.3 -1,0.5 -1.5,0.8 -0.5,0.3 -0.9,0.6 -1.4,0.9 -0.5,0.3 -1,0.6 -1.4,1 -0.5,0.4 -0.9,0.7 -1.4,1.1 -0.5,0.4 -0.9,0.8 -1.3,1.2 l -0.7,0.6 -0.6,0.7 c -0.4,0.5 -0.9,0.9 -1.2,1.3 -1.6,1.9 -3,4 -4.1,6.2 -0.3,0.6 -0.5,1.1 -0.8,1.7 -0.3,0.6 -0.4,1.2 -0.7,1.8 l -0.3,0.9 -0.2,0.8 -0.2,0.8 -0.1,0.4 -0.1,0.2 -0.1,0.3 -0.5,2.4 -0.1,0.3 v 0.1 0.1 c -0.1,0.3 0.1,-0.4 0,-0.3 v 0 l -0.1,0.6 -0.2,1.1 c -0.2,1.5 -0.4,3 -0.7,4.5 -0.4,3 -0.7,5.8 -0.9,8.5 -0.2,2.7 -0.3,5.4 -0.2,8 0,2.6 0.1,5.2 0.3,7.6 0.2,4.8 0.3,8.9 0.3,11.8 0.1,3 -0.1,4.8 -0.1,4.8 z"
   inkscape:connector-curvature="0"
   style="fill:#ff1b53" />
	</g>
	<g
   id="XMLID_68_">
		<path
   id="XMLID_64_"
   class="st6"
   d="m 447.8,241.4 c 0,0 -1,-1.4 -2.5,-3.9 -1.5,-2.5 -3.5,-6.2 -5.5,-10.8 -1,-2.3 -1.9,-4.9 -2.8,-7.7 -0.8,-2.9 -1.5,-6 -1.8,-9.3 -0.3,-3.3 -0.4,-6.7 -0.2,-10.1 0.1,-1.7 0.2,-3.4 0.4,-5 l 0.1,-1.2 0.1,-0.6 0.1,-0.6 0.1,-0.3 0.4,-2.4 0.1,-0.3 0.1,-0.4 0.2,-0.8 0.4,-1.5 c 0.2,-0.5 0.3,-1 0.5,-1.5 l 0.6,-1.4 c 0.4,-0.9 0.7,-1.8 1.2,-2.7 0.5,-0.8 0.9,-1.7 1.4,-2.5 2.1,-3.2 4.6,-6.1 7.4,-8.4 0.7,-0.6 1.4,-1.1 2.2,-1.6 0.4,-0.3 0.7,-0.5 1.1,-0.8 0.4,-0.2 0.8,-0.4 1.1,-0.6 0.8,-0.4 1.5,-0.8 2.2,-1.2 0.8,-0.3 1.5,-0.7 2.3,-1 0.7,-0.3 1.5,-0.6 2.3,-0.8 0.8,-0.2 1.5,-0.5 2.2,-0.6 0.7,-0.1 1.5,-0.3 2.2,-0.4 0.7,-0.1 1.4,-0.3 2.1,-0.3 1.4,-0.1 2.7,-0.2 3.9,-0.1 1.2,0.1 2.4,0.1 3.5,0.4 0.5,0.1 1,0.2 1.5,0.3 0.5,0.1 1,0.2 1.4,0.4 0.9,0.3 1.7,0.6 2.4,0.8 1.4,0.5 2.5,1.1 3.1,1.5 0.7,0.4 1,0.7 1,0.7 0,0 -0.4,0 -1.2,0.1 -0.8,0.1 -1.9,0.2 -3.3,0.5 -0.7,0.2 -1.5,0.3 -2.3,0.4 -0.8,0.1 -1.7,0.4 -2.5,0.7 -0.9,0.2 -1.8,0.6 -2.8,0.9 -1,0.3 -1.9,0.8 -2.9,1.2 -0.5,0.2 -1,0.5 -1.5,0.7 -0.5,0.3 -1,0.5 -1.5,0.8 -0.5,0.3 -0.9,0.6 -1.4,0.9 -0.5,0.3 -1,0.6 -1.4,1 -0.5,0.4 -0.9,0.7 -1.4,1.1 -0.5,0.4 -0.9,0.8 -1.3,1.2 l -0.7,0.6 -0.6,0.7 c -0.4,0.5 -0.9,0.9 -1.2,1.3 -1.6,1.9 -3,4 -4.1,6.2 -0.3,0.6 -0.5,1.1 -0.8,1.7 -0.3,0.6 -0.4,1.2 -0.7,1.8 l -0.3,0.9 -0.2,0.8 -0.2,0.8 -0.1,0.4 -0.1,0.2 -0.1,0.3 -0.5,2.4 -0.1,0.3 v 0.1 0.1 c -0.1,0.3 0.1,-0.4 0,-0.3 v 0 l -0.1,0.6 -0.2,1.1 c -0.2,1.5 -0.4,3 -0.7,4.5 -0.4,3 -0.7,5.8 -0.9,8.5 -0.2,2.7 -0.3,5.4 -0.2,8 0,2.6 0.1,5.2 0.3,7.6 0.2,4.8 0.3,8.9 0.3,11.8 0.1,3.1 -0.1,4.8 -0.1,4.8 z"
   inkscape:connector-curvature="0"
   style="fill:#ff1b53" />
	</g>
	<g
   id="XMLID_67_">
		<path
   id="XMLID_62_"
   class="st6"
   d="m 547.5,159.9 c 0,0 -0.1,-0.6 -0.3,-1.7 -0.1,-0.5 -0.1,-1.3 -0.3,-2 -0.2,-0.8 -0.4,-1.6 -0.6,-2.6 -0.3,-0.9 -0.6,-2 -1,-3.1 -0.2,-0.5 -0.5,-1.1 -0.7,-1.7 -0.1,-0.3 -0.2,-0.6 -0.4,-0.9 -0.1,-0.3 -0.3,-0.6 -0.5,-0.9 -0.3,-0.6 -0.6,-1.2 -0.9,-1.8 -0.4,-0.6 -0.8,-1.2 -1.2,-1.8 -0.4,-0.6 -0.9,-1.2 -1.3,-1.8 -0.2,-0.3 -0.5,-0.6 -0.7,-0.9 -0.2,-0.3 -0.5,-0.6 -0.8,-0.9 -2.1,-2.3 -4.6,-4.4 -7.5,-6.1 -2.9,-1.7 -6.3,-2.9 -9.8,-3.4 -0.8,-0.1 -1.6,-0.2 -2.4,-0.3 -0.6,0 -1.1,0 -1.7,-0.1 h -0.8 -0.4 -0.2 -0.1 c -0.8,0.1 -1.5,0.1 -2.4,0.2 -0.9,0.2 -1.8,0.2 -2.7,0.5 -3.5,0.8 -6.9,2.3 -9.9,4.5 -3,2.1 -5.6,4.8 -7.4,7.9 l -0.7,1.2 -0.3,0.6 -0.3,0.6 c -0.4,0.8 -0.8,1.6 -1.1,2.5 -0.3,0.8 -0.6,1.7 -0.8,2.6 l -0.3,1.3 c 0,0.1 -0.1,0.3 -0.1,0.3 l -0.1,0.4 -0.2,0.8 c -0.4,2.2 -0.8,4.1 -1.1,6.1 -0.4,2 -0.6,3.9 -0.8,5.7 -0.4,3.7 -0.5,7.2 -0.3,10.6 0.1,3.4 0.3,6.5 0.6,9.4 0.2,2.9 0.4,5.4 0.6,7.4 0.3,4.1 0.3,6.6 0.3,6.6 0,0 -1.2,-2.1 -3,-5.8 -0.9,-1.9 -2,-4.2 -3.1,-6.9 -1.1,-2.7 -2.3,-5.8 -3.3,-9.3 -1,-3.5 -1.9,-7.6 -2.2,-11.9 -0.2,-2.2 -0.2,-4.4 -0.2,-6.6 0,-1.1 0,-2.2 0.1,-3.4 0,-1.2 0.1,-2.2 0.2,-3.3 l 0.1,-0.8 v -0.4 l 0.1,-0.5 c 0.1,-0.7 0.2,-1.3 0.3,-2 0.1,-1.3 0.5,-2.6 0.8,-3.9 0.7,-2.6 1.7,-5.2 3,-7.7 2.6,-4.9 6.5,-9.3 11.1,-12.6 4.6,-3.3 10,-5.5 15.5,-6.4 0.7,-0.2 1.4,-0.2 2.1,-0.3 l 2.1,-0.2 c 1.4,-0.1 3,0 4.4,0 h 0.3 0.2 l 0.4,0.1 0.8,0.1 c 0.6,0.1 1.1,0.1 1.7,0.2 h 0.1 0.4 0.1 l 0.2,0.1 0.5,0.1 1,0.2 c 0.6,0.2 1.3,0.3 1.9,0.5 5,1.4 9.5,4 13.1,7 3.6,3 6.2,6.6 8.1,10.1 1.8,3.5 2.9,7 3.3,10.1 0.1,0.4 0.1,0.8 0.2,1.1 0,0.4 0.1,0.7 0.1,1.1 0.1,0.7 0.1,1.4 0.1,2.1 0,1.3 -0.1,2.5 -0.2,3.6 -0.2,1.1 -0.3,2.1 -0.5,2.9 -0.2,0.8 -0.4,1.4 -0.6,2 -0.4,1 -0.6,1.5 -0.6,1.5 z"
   inkscape:connector-curvature="0"
   style="fill:#ff1b53" />
	</g>
	<g
   id="XMLID_66_">
		<path
   id="XMLID_60_"
   class="st6"
   d="m 628.2,280.7 c 0,0 1,1.4 2.5,3.9 1.5,2.5 3.5,6.2 5.5,10.8 1,2.3 1.9,4.9 2.8,7.7 0.8,2.9 1.5,6 1.8,9.3 0.3,3.3 0.4,6.7 0.2,10.1 -0.1,1.7 -0.2,3.4 -0.4,5 l -0.1,1.2 -0.1,0.6 -0.1,0.6 -0.1,0.3 -0.4,2.4 -0.1,0.3 -0.1,0.4 -0.2,0.8 -0.4,1.5 c -0.2,0.5 -0.3,1 -0.5,1.5 l -0.6,1.4 c -0.4,0.9 -0.7,1.8 -1.2,2.7 -0.5,0.8 -0.9,1.7 -1.4,2.5 -2.1,3.2 -4.6,6.1 -7.4,8.4 -0.7,0.6 -1.4,1.1 -2.2,1.6 -0.4,0.3 -0.7,0.5 -1.1,0.8 -0.4,0.2 -0.8,0.4 -1.1,0.6 -0.8,0.4 -1.5,0.8 -2.2,1.2 -0.8,0.3 -1.5,0.7 -2.3,1 -0.7,0.3 -1.5,0.6 -2.3,0.8 -0.8,0.2 -1.5,0.5 -2.2,0.6 -0.7,0.1 -1.5,0.3 -2.2,0.4 -0.7,0.1 -1.4,0.3 -2.1,0.3 -1.4,0.1 -2.7,0.2 -3.9,0.1 -1.2,-0.1 -2.4,-0.1 -3.5,-0.4 -0.5,-0.1 -1,-0.2 -1.5,-0.3 -0.5,-0.1 -1,-0.2 -1.4,-0.4 -0.9,-0.3 -1.7,-0.6 -2.4,-0.8 -1.4,-0.5 -2.5,-1.1 -3.1,-1.5 -0.7,-0.4 -1,-0.7 -1,-0.7 0,0 0.4,0 1.2,-0.1 0.8,-0.1 1.9,-0.2 3.3,-0.5 0.7,-0.2 1.5,-0.3 2.3,-0.4 0.8,-0.1 1.7,-0.4 2.5,-0.7 0.9,-0.2 1.8,-0.6 2.8,-0.9 1,-0.3 1.9,-0.8 2.9,-1.2 0.5,-0.2 1,-0.5 1.5,-0.7 0.5,-0.3 1,-0.5 1.5,-0.8 0.5,-0.3 0.9,-0.6 1.4,-0.9 0.5,-0.3 1,-0.6 1.4,-1 0.5,-0.4 0.9,-0.7 1.4,-1.1 0.5,-0.4 0.9,-0.8 1.3,-1.2 l 0.7,-0.6 0.6,-0.7 c 0.4,-0.5 0.9,-0.9 1.2,-1.3 1.6,-1.9 3,-4 4.1,-6.2 0.3,-0.6 0.5,-1.1 0.8,-1.7 0.3,-0.6 0.4,-1.2 0.7,-1.8 l 0.3,-0.9 0.2,-0.8 0.2,-0.8 0.1,-0.4 0.1,-0.2 0.1,-0.3 0.5,-2.4 0.1,-0.3 v -0.1 -0.1 c 0.1,-0.3 -0.1,0.4 0,0.3 v 0 l 0.1,-0.6 0.2,-1.1 c 0.2,-1.5 0.4,-3 0.7,-4.5 0.4,-3 0.7,-5.8 0.9,-8.5 0.2,-2.7 0.3,-5.4 0.2,-8 0,-2.6 -0.1,-5.2 -0.3,-7.6 -0.2,-4.8 -0.3,-8.9 -0.3,-11.8 -0.1,-3.1 0.1,-4.8 0.1,-4.8 z"
   inkscape:connector-curvature="0"
   style="fill:#ff1b53" />
	</g>
	<g
   id="XMLID_65_">
		<path
   id="XMLID_58_"
   class="st6"
   d="m 545.7,365.3 c 0,0 1.2,2.1 3,5.8 0.9,1.9 2,4.2 3.1,6.9 1.1,2.7 2.3,5.8 3.3,9.3 1,3.5 1.9,7.6 2.2,11.9 0.3,4.3 0.2,8.8 -0.1,13.3 l -0.1,0.8 v 0.4 l -0.1,0.7 c -0.1,0.5 -0.1,1.1 -0.2,1.7 l -0.1,0.8 -0.1,0.4 -0.1,0.5 c -0.2,0.7 -0.3,1.4 -0.5,2.1 -0.3,1.5 -0.9,2.7 -1.3,4 l -0.4,1 -0.5,0.9 -0.9,1.9 c -2.6,4.9 -6.5,9.3 -11.1,12.6 -4.6,3.3 -10,5.5 -15.5,6.4 -0.7,0.2 -1.4,0.2 -2.1,0.3 l -2.1,0.2 c -1.4,0.1 -2.7,0 -4.1,0 -1.4,-0.1 -2.7,-0.3 -4,-0.5 h -0.1 l -0.4,-0.1 h -0.1 -0.2 l -0.4,-0.1 -0.8,-0.2 c -0.5,-0.1 -1.1,-0.3 -1.6,-0.4 -1.3,-0.4 -2.7,-0.9 -3.9,-1.3 -1.2,-0.5 -2.3,-1.1 -3.4,-1.6 -1.1,-0.6 -2.1,-1.3 -3.1,-1.9 -1,-0.7 -1.9,-1.4 -2.8,-2.2 -3.6,-3 -6.2,-6.6 -8.1,-10.1 -1.8,-3.5 -2.9,-7 -3.3,-10.1 -0.1,-0.4 -0.1,-0.8 -0.2,-1.1 0,-0.4 -0.1,-0.7 -0.1,-1.1 -0.1,-0.7 -0.1,-1.4 -0.1,-2.1 0,-1.3 0.1,-2.5 0.2,-3.6 0.2,-1.1 0.3,-2 0.5,-2.8 0.2,-0.8 0.4,-1.5 0.6,-2 0.4,-1.1 0.5,-1.6 0.5,-1.6 0,0 0.1,0.6 0.3,1.7 0.1,0.5 0.1,1.2 0.3,2 0.2,0.8 0.4,1.6 0.6,2.6 0.3,0.9 0.6,2 1,3.1 0.2,0.5 0.5,1.1 0.7,1.7 0.1,0.3 0.2,0.6 0.4,0.9 0.1,0.3 0.3,0.6 0.5,0.9 0.3,0.6 0.6,1.2 0.9,1.8 0.4,0.6 0.8,1.2 1.2,1.8 0.4,0.6 0.9,1.2 1.3,1.8 0.2,0.3 0.5,0.6 0.7,0.9 0.2,0.3 0.5,0.6 0.8,0.8 2.1,2.3 4.6,4.4 7.5,6.1 0.8,0.4 1.5,0.8 2.3,1.2 0.8,0.3 1.6,0.6 2.4,1 0.8,0.2 1.7,0.5 2.5,0.8 0.8,0.1 1.5,0.3 2.3,0.5 0.5,0.1 1.1,0.1 1.6,0.2 l 0.8,0.1 0.4,0.1 h 0.2 0.1 c -0.6,-0.1 -0.1,0 -0.3,0 h 0.1 c 0.9,0 1.8,0 2.7,0 0.9,-0.1 1.8,-0.1 2.7,-0.2 l 1.3,-0.2 c 0.4,-0.1 0.9,-0.1 1.3,-0.3 3.5,-0.8 6.9,-2.3 9.9,-4.5 3,-2.1 5.6,-4.8 7.4,-7.9 l 0.7,-1.2 0.3,-0.6 0.3,-0.6 c 0.4,-0.8 0.8,-1.7 1,-2.4 0.1,-0.4 0.3,-0.7 0.4,-1.1 l 0.1,-0.3 0.1,-0.4 0.2,-0.8 c 0.1,-0.5 0.3,-1.1 0.4,-1.6 v -0.2 -0.1 -0.1 c 0,-0.3 -0.1,0.3 0,0.3 l 0.1,-0.4 0.1,-0.8 c 0.8,-4.2 1.5,-8.1 1.9,-11.8 0.4,-3.7 0.5,-7.2 0.3,-10.6 -0.1,-3.4 -0.3,-6.5 -0.6,-9.4 -0.2,-2.9 -0.4,-5.4 -0.6,-7.4 -0.1,-4.1 -0.1,-6.5 -0.1,-6.5 z"
   inkscape:connector-curvature="0"
   style="fill:#ff1b53" />
	</g>
	<g
   id="XMLID_28_">
		<path
   id="XMLID_56_"
   class="st6"
   d="m 514.8,397.8 c 0,0 -1.4,1 -3.9,2.5 -2.5,1.5 -6.2,3.5 -10.8,5.5 -2.3,1 -4.9,1.9 -7.7,2.8 -2.9,0.8 -6,1.5 -9.3,1.8 -3.3,0.3 -6.7,0.4 -10.1,0.2 -1.7,-0.1 -3.4,-0.2 -5,-0.4 l -1.2,-0.1 -0.6,-0.1 -0.6,-0.1 -0.3,-0.1 -2.4,-0.4 -0.3,-0.1 -0.4,-0.1 -0.8,-0.2 -1.5,-0.4 c -0.5,-0.2 -1,-0.3 -1.5,-0.5 l -1.4,-0.6 c -0.9,-0.4 -1.8,-0.7 -2.7,-1.2 -0.8,-0.5 -1.7,-0.9 -2.5,-1.4 -3.2,-2.1 -6.1,-4.6 -8.4,-7.4 -0.6,-0.7 -1.1,-1.4 -1.6,-2.2 -0.3,-0.4 -0.5,-0.7 -0.8,-1.1 -0.2,-0.4 -0.4,-0.8 -0.6,-1.1 -0.4,-0.8 -0.8,-1.5 -1.2,-2.2 -0.3,-0.8 -0.7,-1.5 -1,-2.3 -0.3,-0.7 -0.6,-1.5 -0.8,-2.3 -0.2,-0.8 -0.5,-1.5 -0.6,-2.2 -0.1,-0.7 -0.3,-1.5 -0.4,-2.2 -0.1,-0.7 -0.3,-1.4 -0.3,-2.1 -0.1,-1.4 -0.2,-2.7 -0.1,-3.9 0.1,-1.2 0.1,-2.4 0.4,-3.5 0.1,-0.5 0.2,-1 0.3,-1.5 0.1,-0.5 0.2,-1 0.4,-1.4 0.3,-0.9 0.6,-1.7 0.8,-2.4 0.5,-1.4 1.1,-2.5 1.5,-3.1 0.4,-0.7 0.7,-1 0.7,-1 0,0 0,0.4 0.1,1.2 0.1,0.8 0.2,1.9 0.5,3.3 0.2,0.7 0.3,1.5 0.4,2.3 0.1,0.8 0.4,1.7 0.7,2.5 0.2,0.9 0.6,1.8 0.9,2.8 0.3,1 0.8,1.9 1.2,2.9 0.2,0.5 0.5,1 0.7,1.5 0.3,0.5 0.5,1 0.8,1.5 0.3,0.5 0.6,0.9 0.9,1.4 0.3,0.5 0.6,1 1,1.4 0.4,0.5 0.7,0.9 1.1,1.4 0.4,0.5 0.8,0.9 1.2,1.3 l 0.6,0.7 0.7,0.6 c 0.5,0.4 0.9,0.9 1.3,1.2 1.9,1.6 4,3 6.2,4.1 0.6,0.3 1.1,0.5 1.7,0.8 0.6,0.3 1.2,0.4 1.8,0.7 l 0.9,0.3 0.8,0.2 0.8,0.2 0.4,0.1 0.2,0.1 0.3,0.1 2.4,0.5 0.3,0.1 h 0.1 0.1 c 0.3,0.1 -0.4,-0.1 -0.3,0 v 0 l 0.6,0.1 1.1,0.2 c 1.5,0.2 3,0.4 4.5,0.7 3,0.4 5.8,0.7 8.5,0.9 2.7,0.2 5.4,0.3 8,0.2 2.6,0 5.2,-0.1 7.6,-0.3 4.8,-0.2 8.9,-0.3 11.8,-0.3 3.1,-0.1 4.8,0.1 4.8,0.1 z"
   inkscape:connector-curvature="0"
   style="fill:#ff1b53" />
	</g>
	<g
   id="XMLID_27_">
		<path
   id="XMLID_54_"
   class="st6"
   d="m 472.5,356.5 c 0,0 -1.4,1 -3.9,2.5 -2.5,1.5 -6.2,3.5 -10.8,5.5 -2.3,1 -4.9,1.9 -7.7,2.8 -2.9,0.8 -6,1.5 -9.3,1.8 -3.3,0.3 -6.7,0.4 -10.1,0.2 -1.7,-0.1 -3.4,-0.2 -5,-0.4 l -1.2,-0.1 -0.6,-0.1 -0.6,-0.1 -0.3,-0.1 -2.4,-0.4 -0.3,-0.1 -0.4,-0.1 -0.8,-0.2 -1.5,-0.4 c -0.5,-0.2 -1,-0.3 -1.5,-0.5 l -1.4,-0.6 c -0.9,-0.4 -1.8,-0.7 -2.7,-1.2 -0.8,-0.5 -1.7,-0.9 -2.5,-1.4 -3.2,-2.1 -6.1,-4.6 -8.4,-7.4 -0.6,-0.7 -1.1,-1.4 -1.6,-2.2 -0.3,-0.4 -0.5,-0.7 -0.8,-1.1 -0.2,-0.4 -0.4,-0.8 -0.6,-1.1 -0.4,-0.8 -0.8,-1.5 -1.2,-2.2 -0.3,-0.8 -0.7,-1.5 -1,-2.3 -0.3,-0.7 -0.6,-1.5 -0.8,-2.3 -0.2,-0.8 -0.5,-1.5 -0.6,-2.2 -0.1,-0.7 -0.3,-1.5 -0.4,-2.2 -0.1,-0.7 -0.3,-1.4 -0.3,-2.1 -0.1,-1.4 -0.2,-2.7 -0.1,-3.9 0.1,-1.2 0.1,-2.4 0.4,-3.5 0.1,-0.5 0.2,-1 0.3,-1.5 0.1,-0.5 0.2,-1 0.4,-1.4 0.3,-0.9 0.6,-1.7 0.8,-2.4 0.5,-1.4 1.1,-2.5 1.5,-3.1 0.4,-0.7 0.7,-1 0.7,-1 0,0 0,0.4 0.1,1.2 0.1,0.8 0.2,1.9 0.5,3.3 0.2,0.7 0.3,1.5 0.4,2.3 0.1,0.8 0.4,1.7 0.7,2.5 0.2,0.9 0.6,1.8 0.9,2.8 0.3,1 0.8,1.9 1.2,2.9 0.2,0.5 0.5,1 0.7,1.5 0.3,0.5 0.5,1 0.8,1.5 0.3,0.5 0.6,0.9 0.9,1.4 0.3,0.5 0.6,1 1,1.4 0.4,0.5 0.7,0.9 1.1,1.4 0.4,0.5 0.8,0.9 1.2,1.3 l 0.6,0.7 0.7,0.6 c 0.5,0.4 0.9,0.9 1.3,1.2 1.9,1.6 4,3 6.2,4.1 0.6,0.3 1.1,0.5 1.7,0.8 0.6,0.3 1.2,0.4 1.8,0.7 l 0.9,0.3 0.8,0.2 0.8,0.2 0.4,0.1 0.2,0.1 0.3,0.1 2.4,0.5 0.3,0.1 h 0.1 0.1 c 0.3,0.1 -0.4,-0.1 -0.3,0 v 0 l 0.6,0.1 1.1,0.2 c 1.5,0.2 3,0.4 4.5,0.7 3,0.4 5.8,0.7 8.5,0.9 2.7,0.2 5.4,0.3 8,0.2 2.6,0 5.2,-0.1 7.6,-0.3 4.8,-0.2 8.9,-0.3 11.8,-0.3 3.1,0 4.8,0.1 4.8,0.1 z"
   inkscape:connector-curvature="0"
   style="fill:#ff1b53" />
	</g>
	<g
   id="XMLID_26_">
		<path
   id="XMLID_52_"
   class="st6"
   d="m 428.7,318.9 c 0,0 -0.6,0.2 -1.6,0.6 -1.1,0.4 -2.6,1 -4.7,1.6 -2,0.7 -4.5,1.4 -7.3,2.2 -2.9,0.8 -6.1,1.5 -9.9,2 -1.9,0.3 -3.8,0.4 -5.9,0.6 -2.1,0.1 -4.2,0.1 -6.4,-0.1 -4.4,-0.3 -8.9,-1 -13.4,-2 l -0.4,-0.1 -0.6,-0.1 -0.8,-0.2 -0.4,-0.1 -0.5,-0.2 -1,-0.3 c -1.4,-0.5 -2.6,-0.9 -3.9,-1.5 -2.5,-1.1 -4.9,-2.6 -7.2,-4.3 -4.5,-3.4 -8.2,-8.1 -10.7,-13.3 -1.2,-2.6 -2.2,-5.4 -2.8,-8.2 -0.6,-2.8 -0.9,-5.7 -0.8,-8.5 0,-2.8 0.4,-5.6 1.1,-8.3 0.2,-0.7 0.4,-1.3 0.5,-2 l 0.1,-0.2 0.1,-0.2 v -0.1 -0.1 l 0.1,-0.4 0.3,-0.8 0.2,-0.5 0.2,-0.5 0.4,-1 c 0.3,-0.7 0.6,-1.2 0.9,-1.8 1.3,-2.4 2.8,-4.6 4.5,-6.5 1.7,-1.9 3.5,-3.6 5.4,-5 3.8,-2.8 7.7,-4.7 11.5,-5.9 3.8,-1.2 7.4,-1.6 10.5,-1.7 3.1,0 5.8,0.4 8,0.9 2.1,0.5 3.7,1.2 4.8,1.6 1,0.5 1.6,0.8 1.6,0.8 0,0 -0.6,0 -1.7,0 -1.1,0 -2.8,0.1 -4.8,0.3 -2,0.3 -4.4,0.7 -7,1.6 -2.6,0.8 -5.4,2 -8.1,3.7 -2.8,1.7 -5.5,3.8 -7.8,6.4 -1.2,1.3 -2.3,2.7 -3.2,4.2 -0.9,1.5 -1.7,3.1 -2.4,4.7 -0.1,0.4 -0.3,0.8 -0.4,1.2 l -0.3,1.1 -0.2,0.8 -0.1,0.4 v 0.1 0.1 c -0.1,0.2 0.1,-0.2 0,-0.1 v 0.2 c -0.1,0.5 -0.2,0.9 -0.2,1.4 -0.3,1.8 -0.3,3.7 -0.3,5.5 0.2,3.7 1.1,7.4 2.8,10.7 1.6,3.4 4,6.3 6.7,8.8 1.4,1.2 2.9,2.3 4.5,3.2 0.8,0.4 1.6,0.9 2.4,1.2 l 0.5,0.2 0.3,0.1 0.4,0.1 0.8,0.3 0.2,0.1 h 0.1 c -0.1,0 0.2,0.1 -0.1,0 v 0 l 0.4,0.1 c 4.1,1.4 8,2.6 11.7,3.5 3.7,0.9 7.2,1.5 10.6,1.8 3.4,0.4 6.6,0.5 9.5,0.7 2.9,0.2 5.5,0.3 7.5,0.4 2.1,0.1 3.8,0.3 4.9,0.4 0.8,0.3 1.4,0.4 1.4,0.4 z"
   inkscape:connector-curvature="0"
   style="fill:#ff1b53" />
	</g>
	<g
   id="XMLID_25_">
		<path
   id="XMLID_50_"
   class="st6"
   d="m 586.9,323 c 0,0 1,1.4 2.5,3.9 1.5,2.5 3.5,6.2 5.5,10.8 1,2.3 1.9,4.9 2.8,7.7 0.8,2.9 1.5,6 1.8,9.3 0.3,3.3 0.4,6.7 0.2,10.1 -0.1,1.7 -0.2,3.4 -0.4,5 l -0.1,1.2 -0.1,0.6 -0.1,0.6 -0.1,0.3 -0.4,2.4 -0.1,0.3 -0.1,0.4 -0.2,0.8 -0.4,1.5 c -0.2,0.5 -0.3,1 -0.5,1.5 l -0.6,1.4 c -0.4,0.9 -0.7,1.8 -1.2,2.7 -0.5,0.8 -0.9,1.7 -1.4,2.5 -2.1,3.2 -4.6,6.1 -7.4,8.4 -0.7,0.6 -1.4,1.1 -2.2,1.6 -0.4,0.3 -0.7,0.5 -1.1,0.8 -0.4,0.2 -0.8,0.4 -1.1,0.6 -0.8,0.4 -1.5,0.8 -2.2,1.2 -0.8,0.3 -1.5,0.7 -2.3,1 -0.7,0.3 -1.5,0.6 -2.3,0.8 -0.8,0.2 -1.5,0.5 -2.2,0.6 -0.7,0.1 -1.5,0.3 -2.2,0.4 -0.7,0.1 -1.4,0.3 -2.1,0.3 -1.4,0.1 -2.7,0.2 -3.9,0.1 -1.2,-0.1 -2.4,-0.1 -3.5,-0.4 -0.5,-0.1 -1,-0.2 -1.5,-0.3 -0.5,-0.1 -1,-0.2 -1.4,-0.4 -0.9,-0.3 -1.7,-0.6 -2.4,-0.8 -1.4,-0.5 -2.5,-1.1 -3.1,-1.5 -0.7,-0.4 -1,-0.7 -1,-0.7 0,0 0.4,0 1.2,-0.1 0.8,-0.1 1.9,-0.2 3.3,-0.5 0.7,-0.2 1.5,-0.3 2.3,-0.4 0.8,-0.1 1.7,-0.4 2.5,-0.7 0.9,-0.2 1.8,-0.6 2.8,-0.9 1,-0.3 1.9,-0.8 2.9,-1.2 0.5,-0.2 1,-0.5 1.5,-0.7 0.5,-0.3 1,-0.5 1.5,-0.8 0.5,-0.3 0.9,-0.6 1.4,-0.9 0.5,-0.3 1,-0.6 1.4,-1 0.5,-0.4 0.9,-0.7 1.4,-1.1 0.5,-0.4 0.9,-0.8 1.3,-1.2 l 0.7,-0.6 0.6,-0.7 c 0.4,-0.5 0.9,-0.9 1.2,-1.3 1.6,-1.9 3,-4 4.1,-6.2 0.3,-0.6 0.5,-1.1 0.8,-1.7 0.3,-0.6 0.4,-1.2 0.7,-1.8 l 0.3,-0.9 0.2,-0.8 0.2,-0.8 0.1,-0.4 0.1,-0.2 0.1,-0.3 0.5,-2.4 0.1,-0.3 v -0.1 -0.1 c 0.1,-0.3 -0.1,0.4 0,0.3 v 0 l 0.1,-0.6 0.2,-1.1 c 0.2,-1.5 0.4,-3 0.7,-4.5 0.4,-3 0.7,-5.8 0.9,-8.5 0.2,-2.7 0.3,-5.4 0.2,-8 0,-2.6 -0.1,-5.2 -0.3,-7.6 -0.2,-4.8 -0.3,-8.9 -0.3,-11.8 0,-3.1 0.1,-4.8 0.1,-4.8 z"
   inkscape:connector-curvature="0"
   style="fill:#ff1b53" />
	</g>
	<g
   id="XMLID_24_">
		<path
   id="XMLID_48_"
   class="st6"
   d="m 521.7,168.2 c 0,0 1.4,-1 3.9,-2.5 2.5,-1.5 6.2,-3.5 10.8,-5.5 2.3,-1 4.9,-1.9 7.7,-2.8 2.9,-0.8 6,-1.5 9.3,-1.8 3.3,-0.3 6.7,-0.4 10.1,-0.2 1.7,0.1 3.4,0.2 5,0.4 l 1.2,0.1 0.6,0.1 0.6,0.1 0.3,0.1 2.4,0.4 0.3,0.1 0.4,0.1 0.8,0.2 1.5,0.4 c 0.5,0.2 1,0.3 1.5,0.5 l 1.4,0.6 c 0.9,0.4 1.8,0.7 2.7,1.2 0.8,0.5 1.7,0.9 2.5,1.4 3.2,2.1 6.1,4.6 8.4,7.4 0.6,0.7 1.1,1.4 1.6,2.2 0.3,0.4 0.5,0.7 0.8,1.1 0.2,0.4 0.4,0.8 0.6,1.1 0.4,0.8 0.8,1.5 1.2,2.2 0.3,0.8 0.7,1.5 1,2.3 0.3,0.7 0.6,1.5 0.8,2.3 0.2,0.8 0.5,1.5 0.6,2.2 0.1,0.7 0.3,1.5 0.4,2.2 0.1,0.7 0.3,1.4 0.3,2.1 0.1,1.4 0.2,2.7 0.1,3.9 -0.1,1.2 -0.1,2.4 -0.4,3.5 -0.1,0.5 -0.2,1 -0.3,1.5 -0.1,0.5 -0.2,1 -0.4,1.4 -0.3,0.9 -0.6,1.7 -0.8,2.4 -0.5,1.4 -1.1,2.5 -1.5,3.1 -0.4,0.7 -0.7,1 -0.7,1 0,0 0,-0.4 -0.1,-1.2 -0.1,-0.8 -0.2,-1.9 -0.5,-3.3 -0.2,-0.7 -0.3,-1.5 -0.4,-2.3 -0.1,-0.8 -0.4,-1.7 -0.7,-2.5 -0.2,-0.9 -0.6,-1.8 -0.9,-2.8 -0.3,-1 -0.8,-1.9 -1.2,-2.9 -0.2,-0.5 -0.5,-1 -0.7,-1.5 -0.3,-0.5 -0.5,-1 -0.8,-1.5 -0.3,-0.5 -0.6,-0.9 -0.9,-1.4 -0.3,-0.5 -0.6,-1 -1,-1.4 -0.4,-0.5 -0.7,-0.9 -1.1,-1.4 -0.4,-0.5 -0.8,-0.9 -1.2,-1.3 l -0.6,-0.7 -0.7,-0.6 c -0.5,-0.4 -0.9,-0.9 -1.3,-1.2 -1.9,-1.6 -4,-3 -6.2,-4.1 -0.6,-0.3 -1.1,-0.5 -1.7,-0.8 -0.6,-0.3 -1.2,-0.4 -1.8,-0.7 l -0.9,-0.3 -0.8,-0.2 -0.8,-0.2 -0.4,-0.1 -0.2,-0.1 -0.3,-0.1 -2.4,-0.5 -0.3,-0.1 h -0.1 -0.1 c -0.3,-0.1 0.4,0.1 0.3,0 v 0 l -0.6,-0.1 -1.1,-0.2 c -1.5,-0.2 -3,-0.4 -4.5,-0.7 -3,-0.4 -5.8,-0.7 -8.5,-0.9 -2.7,-0.2 -5.4,-0.3 -8,-0.2 -2.6,0 -5.2,0.1 -7.6,0.3 -4.8,0.2 -8.9,0.3 -11.8,0.3 -3.1,0 -4.8,-0.1 -4.8,-0.1 z"
   inkscape:connector-curvature="0"
   style="fill:#ff1b53" />
	</g>
	<g
   id="XMLID_23_">
		<path
   id="XMLID_46_"
   class="st6"
   d="m 638.5,244.3 c 0,0 0,-0.4 -0.1,-1.2 -0.1,-0.8 -0.2,-2 -0.5,-3.3 -0.1,-0.7 -0.3,-1.5 -0.4,-2.4 -0.1,-0.4 -0.2,-0.9 -0.3,-1.3 -0.1,-0.4 -0.2,-0.8 -0.4,-1.3 -0.2,-0.8 -0.6,-1.8 -0.9,-2.7 -0.3,-1 -0.8,-1.9 -1.2,-2.9 -0.4,-1 -1,-1.9 -1.5,-2.9 -0.3,-0.5 -0.6,-1 -0.9,-1.4 -0.3,-0.5 -0.6,-1 -1,-1.4 -1.3,-1.9 -3.1,-3.6 -4.9,-5.3 -1.9,-1.6 -4,-3 -6.2,-4.1 -2.2,-1.1 -4.6,-2 -7.1,-2.6 -2.2,-0.5 -5.8,-1 -8.6,-1.4 -3,-0.4 -5.8,-0.7 -8.5,-0.9 -2.7,-0.2 -5.4,-0.3 -8,-0.2 -1.3,0 -2.6,0.1 -3.9,0.1 -1.3,0 -2.5,0.1 -3.7,0.1 -4.8,0.2 -8.9,0.3 -11.9,0.3 -2.9,0 -4.6,-0.2 -4.6,-0.2 0,0 1.4,-1 3.9,-2.5 1.3,-0.7 2.8,-1.6 4.6,-2.6 1.8,-0.9 3.9,-1.9 6.2,-2.9 2.3,-1 4.9,-1.9 7.7,-2.8 2.9,-0.8 6,-1.5 9.3,-1.8 3.3,-0.3 6.7,-0.4 10.1,-0.2 0.8,0 1.7,0.1 2.5,0.2 0.9,0.1 1.7,0.1 2.5,0.2 1.4,0.1 3.6,0.5 5.5,0.9 3.8,0.9 7.5,2.4 10.8,4.5 3.2,2.1 6.1,4.6 8.4,7.4 0.6,0.7 1.1,1.4 1.6,2.2 0.3,0.4 0.5,0.7 0.8,1.1 0.2,0.4 0.4,0.8 0.6,1.1 0.4,0.8 0.8,1.5 1.2,2.2 0.3,0.8 0.7,1.5 1,2.3 0.3,0.7 0.6,1.5 0.8,2.3 0.2,0.8 0.5,1.5 0.6,2.2 0.1,0.7 0.3,1.5 0.4,2.2 0.1,0.7 0.2,1.4 0.3,2.1 0.1,1.4 0.2,2.7 0.1,3.9 -0.1,1.2 -0.1,2.4 -0.4,3.5 -0.1,0.5 -0.2,1.1 -0.3,1.6 -0.1,0.3 -0.1,0.5 -0.2,0.7 -0.1,0.2 -0.1,0.4 -0.2,0.6 -0.3,0.8 -0.6,1.6 -0.8,2.3 -0.3,0.8 -0.6,1.3 -0.8,1.9 -0.3,0.5 -0.5,1 -0.7,1.3 -0.6,0.8 -0.9,1.1 -0.9,1.1 z"
   inkscape:connector-curvature="0"
   style="fill:#ff1b53" />
	</g>
</g>
<circle
   id="XMLID_109_"
   class="st4"
   cx="417.52634"
   cy="291.43594"
   r="32"
   style="fill:#002559" />
<path
   class="st7"
   d="m 370.12635,49.035946 c 1.6,-0.6 -0.4,-6.5 -1.5,-9.1 -1.8,-4.1 -6.3,-5.4 -6.9,-5.3 -1.7,0.3 -0.1,1.9 5,9.2 2.1,2.9 1.8,5.8 3.4,5.2 z"
   id="path82"
   inkscape:connector-curvature="0"
   style="display:none;fill:#fff1f1" />
<circle
   class="st8"
   cx="368.92636"
   cy="43.735947"
   r="5.5999999"
   id="circle84"
   style="fill:#ffffff" />
<circle
   class="st8"
   cx="234.92636"
   cy="43.735947"
   r="5.5999999"
   id="circle86"
   style="fill:#ffffff" />
</svg>